{
.appVersion = "1286";
copyright = "Copyright 2020 Google LLC. All Rights Reserved.";
customParameters = (
{
name = vendorID;
value = GOOG;
},
{
name = unicodeRanges;
value = (
0,
1,
31,
45,
57
);
},
{
name = glyphOrder;
value = (
.notdef,
NULL,
CR,
space,
nbspace,
u16FE1,
u1B170,
u1B171,
u1B172,
u1B173,
u1B174,
u1B175,
u1B176,
u1B177,
u1B178,
u1B179,
u1B17A,
u1B17B,
u1B17C,
u1B17D,
u1B17E,
u1B17F,
u1B180,
u1B181,
u1B182,
u1B183,
u1B184,
u1B185,
u1B186,
u1B187,
u1B188,
u1B189,
u1B18A,
u1B18B,
u1B18C,
u1B18D,
u1B18E,
u1B18F,
u1B190,
u1B191,
u1B192,
u1B193,
u1B194,
u1B195,
u1B196,
u1B197,
u1B198,
u1B199,
u1B19A,
u1B19B,
u1B19C,
u1B19D,
u1B19E,
u1B19F,
u1B1A0,
u1B1A1,
u1B1A2,
u1B1A3,
u1B1A4,
u1B1A5,
u1B1A6,
u1B1A7,
u1B1A8,
u1B1A9,
u1B1AA,
u1B1AB,
u1B1AC,
u1B1AD,
u1B1AE,
u1B1AF,
u1B1B0,
u1B1B1,
u1B1B2,
u1B1B3,
u1B1B4,
u1B1B5,
u1B1B6,
u1B1B7,
u1B1B8,
u1B1B9,
u1B1BA,
u1B1BB,
u1B1BC,
u1B1BD,
u1B1BE,
u1B1BF,
u1B1C0,
u1B1C1,
u1B1C2,
u1B1C3,
u1B1C4,
u1B1C5,
u1B1C6,
u1B1C7,
u1B1C8,
u1B1C9,
u1B1CA,
u1B1CB,
u1B1CC,
u1B1CD,
u1B1CE,
u1B1CF,
u1B1D0,
u1B1D1,
u1B1D2,
u1B1D3,
u1B1D4,
u1B1D5,
u1B1D6,
u1B1D7,
u1B1D8,
u1B1D9,
u1B1DA,
u1B1DB,
u1B1DC,
u1B1DD,
u1B1DE,
u1B1DF,
u1B1E0,
u1B1E1,
u1B1E2,
u1B1E3,
u1B1E4,
u1B1E5,
u1B1E6,
u1B1E7,
u1B1E8,
u1B1E9,
u1B1EA,
u1B1EB,
u1B1EC,
u1B1ED,
u1B1EE,
u1B1EF,
u1B1F0,
u1B1F1,
u1B1F2,
u1B1F3,
u1B1F4,
u1B1F5,
u1B1F6,
u1B1F7,
u1B1F8,
u1B1F9,
u1B1FA,
u1B1FB,
u1B1FC,
u1B1FD,
u1B1FE,
u1B1FF,
u1B200,
u1B201,
u1B202,
u1B203,
u1B204,
u1B205,
u1B206,
u1B207,
u1B208,
u1B209,
u1B20A,
u1B20B,
u1B20C,
u1B20D,
u1B20E,
u1B20F,
u1B210,
u1B211,
u1B212,
u1B213,
u1B214,
u1B215,
u1B216,
u1B217,
u1B218,
u1B219,
u1B21A,
u1B21B,
u1B21C,
u1B21D,
u1B21E,
u1B21F,
u1B220,
u1B221,
u1B222,
u1B223,
u1B224,
u1B225,
u1B226,
u1B227,
u1B228,
u1B229,
u1B22A,
u1B22B,
u1B22C,
u1B22D,
u1B22E,
u1B22F,
u1B230,
u1B231,
u1B232,
u1B233,
u1B234,
u1B235,
u1B236,
u1B237,
u1B238,
u1B239,
u1B23A,
u1B23B,
u1B23C,
u1B23D,
u1B23E,
u1B23F,
u1B240,
u1B241,
u1B242,
u1B243,
u1B244,
u1B245,
u1B246,

glyphs = (
{
glyphname = .notdef;
lastChange = "2020-04-15 16:53:23 +0000";
layers = (
{
layerId = "CFFEBDE4-599A-46B2-9328-D96E42CD9C81";
paths = (
{
closed = 1;
nodes = (
"505 0 LINE",
"505 714 LINE",
"94 714 LINE",
"94 0 LINE"
);
},
{
closed = 1;
nodes = (
"145 663 LINE",
"454 663 LINE",
"454 51 LINE",
"145 51 LINE"
);
}
);
width = 600;
}
);
note = .notdef;
},
{
glyphname = u16FE1;
lastChange = "2020-04-13 08:25:41 +0000";
layers = (
{
layerId = "CFFEBDE4-599A-46B2-9328-D96E42CD9C81";
paths = (
{
closed = 1;
nodes = (
"677 210 OFFCURVE",
"603 52 OFFCURVE",
"458 -137 CURVE",
"522 -182 LINE",
"672 14 OFFCURVE",
"753 195 OFFCURVE",
"753 326 CURVE SMOOTH",
"753 424 OFFCURVE",
"709 493 OFFCURVE",
"602 559 CURVE",
"561 489 LINE",
"651 444 OFFCURVE",
"677 395 OFFCURVE",
"677 326 CURVE SMOOTH"
);
},
{
closed = 1;
nodes = (
"140 223 OFFCURVE",
"163 240 OFFCURVE",
"163 279 CURVE SMOOTH",
"163 318 OFFCURVE",
"140 335 OFFCURVE",
"112 335 CURVE SMOOTH",
"83 335 OFFCURVE",
"60 318 OFFCURVE",
"60 279 CURVE SMOOTH",
"60 240 OFFCURVE",
"83 223 OFFCURVE",
"112 223 CURVE SMOOTH"
);
},
{
closed = 1;
nodes = (
"438 635 OFFCURVE",
"461 652 OFFCURVE",
"461 691 CURVE SMOOTH",
"461 730 OFFCURVE",
"438 747 OFFCURVE",
"410 747 CURVE SMOOTH",
"381 747 OFFCURVE",
"358 730 OFFCURVE",
"358 691 CURVE SMOOTH",
"358 652 OFFCURVE",
"381 635 OFFCURVE",
"410 635 CURVE SMOOTH"
);
},
{
closed = 1;
nodes = (
"650 909 LINE",
"586 685 OFFCURVE",
"524 526 OFFCURVE",
"474 424 CURVE SMOOTH",
"446 366 OFFCURVE",
"423 319 OFFCURVE",
"393 259 CURVE",
"389 259 LINE",
"376 308 OFFCURVE",
"364 348 OFFCURVE",
"351 381 CURVE SMOOTH",
"332 429 OFFCURVE",
"291 516 OFFCURVE",
"241 598 CURVE",
"174 559 LINE",
"248 433 OFFCURVE",
"297 327 OFFCURVE",
"341 189 CURVE",
"424 177 LINE",
"573 406 OFFCURVE",
"650 632 OFFCURVE",
"725 889 CURVE"
);
}
);
width = 853;
}
);
leftMetricsKey = u1B193;
unicode = 16FE1;
},
{
glyphname = u1B170;
lastChange = "2020-04-13 08:25:56 +0000";
layers = (
{
layerId = "CFFEBDE4-599A-46B2-9328-D96E42CD9C81";
paths = (
{
closed = 1;
nodes = (
"304 939 LINE",
"303 472 OFFCURVE",
"217 93 OFFCURVE",
"80 -169 CURVE",
"150 -203 LINE",
"289 61 OFFCURVE",
"379 443 OFFCURVE",
"382 938 CURVE"
);
}
);
vertOrigin = 25;
vertWidth = 1362;
width = 512;
}
);
unicode = 1B170;
},
{
glyphname = u1B171;
lastChange = "2020-04-13 08:26:31 +0000";
layers = (
{
layerId = "CFFEBDE4-599A-46B2-9328-D96E42CD9C81";
paths = (
{
closed = 1;
nodes = (
"491 268 LINE",
"419 90 OFFCURVE",
"319 -35 OFFCURVE",
"198 -150 CURVE",
"253 -203 LINE",
"378 -84 OFFCURVE",
"482 46 OFFCURVE",
"562 239 CURVE"
);
},
{
closed = 1;
nodes = (
"379 939 LINE",
"378 478 OFFCURVE",
"292 269 OFFCURVE",
"80 54 CURVE",
"136 0 LINE",
"350 217 OFFCURVE",
"454 432 OFFCURVE",
"457 938 CURVE"
);
}
);
vertOrigin = 25;
vertWidth = 1362;
width = 662;
}
);
unicode = 1B171;
},
{
glyphname = u1B172;
lastChange = "2020-04-13 08:26:27 +0000";
layers = (
{
layerId = "CFFEBDE4-599A-46B2-9328-D96E42CD9C81";
paths = (
{
closed = 1;
nodes = (
"459 939 LINE",
"424 757 OFFCURVE",
"386 632 OFFCURVE",
"336 509 CURVE",
"317 479 LINE",
"253 349 OFFCURVE",
"190 251 OFFCURVE",
"95 132 CURVE",
"152 85 LINE",
"238 188 OFFCURVE",
"306 287 OFFCURVE",
"366 415 CURVE",
"390 440 LINE",
"457 592 OFFCURVE",
"492 716 OFFCURVE",
"536 924 CURVE"
);
},
{
closed = 1;
nodes = (
"354 457 OFFCURVE",
"446 301 OFFCURVE",
"446 137 CURVE SMOOTH",
"446 21 OFFCURVE",
"417 -62 OFFCURVE",
"335 -155 CURVE",
"391 -203 LINE",
"480 -105 OFFCURVE",
"524 0 OFFCURVE",
"524 139 CURVE SMOOTH",
"524 315 OFFCURVE",
"430 491 OFFCURVE",
"130 768 CURVE",
"80 711 LINE"
);
}
);
vertOrigin = 25;
vertWidth = 1362;
width = 656;
}
);
unicode = 1B172;
},
{
glyphname = u1B173;
lastChange = "2020-04-13 08:26:23 +0000";
layers = (
{
layerId = "CFFEBDE4-599A-46B2-9328-D96E42CD9C81";
paths = (
{
closed = 1;
nodes = (
"644 -72 LINE",
"555 154 OFFCURVE",
"460 313 OFFCURVE",
"323 504 CURVE",
"308 391 LINE",
"413 242 OFFCURVE",
"499 84 OFFCURVE",
"572 -101 CURVE"
);
},
{
closed = 1;
nodes = (
"293 939 LINE",
"292 478 OFFCURVE",
"207 93 OFFCURVE",
"70 -169 CURVE",
"138 -203 LINE",
"277 61 OFFCURVE",
"368 443 OFFCURVE",
"371 938 CURVE"
);
}
);
vertOrigin = 25;
vertWidth = 1362;
width = 694;
}
);
unicode = 1B173;
},
{
glyphname = u1B174;
lastChange = "2020-04-13 08:26:17 +0000";
layers = (
{
layerId = "CFFEBDE4-599A-46B2-9328-D96E42CD9C81";
paths = (
{
closed = 1;
nodes = (
"179 522 OFFCURVE",
"212 371 OFFCURVE",
"212 202 CURVE SMOOTH",
"212 69 OFFCURVE",
"189 -51 OFFCURVE",
"134 -175 CURVE",
"202 -203 LINE",
"266 -65 OFFCURVE",
"288 56 OFFCURVE",
"288 202 CURVE SMOOTH",
"288 393 OFFCURVE",
"255 529 OFFCURVE",
"169 735 CURVE",
"100 707 LINE"
);
},
{
closed = 1;
nodes = (
"562 279 OFFCURVE",
"517 415 OFFCURVE",
"517 593 CURVE SMOOTH",
"517 692 OFFCURVE",
"528 794 OFFCURVE",
"559 923 CURVE",
"487 939 LINE",
"457 812 OFFCURVE",
"441 710 OFFCURVE",
"441 594 CURVE SMOOTH",
"441 405 OFFCURVE",
"488 248 OFFCURVE",
"596 97 CURVE",
"656 139 LINE"
);
}
);
vertOrigin = 25;
vertWidth = 1362;
width = 756;
}
);
unicode = 1B174;
},
{
glyphname = u1B175;
lastChange = "2020-04-13 08:26:39 +0000";
layers = (
{
layerId = "CFFEBDE4-599A-46B2-9328-D96E42CD9C81";
paths = (
{
closed = 1;
nodes = (
"586 -89 LINE",
"532 74 OFFCURVE",
"459 244 OFFCURVE",
"391 368 CURVE",
"363 398 LINE",
"284 543 OFFCURVE",
"221 643 OFFCURVE",
"131 762 CURVE",
"70 717 LINE",
"168 587 OFFCURVE",
"243 470 OFFCURVE",
"330 304 CURVE",
"359 269 LINE",
"412 162 OFFCURVE",
"471 24 OFFCURVE",
"515 -110 CURVE"
);
},
{
closed = 1;
nodes = (
"466 939 LINE",
"412 543 OFFCURVE",
"285 176 OFFCURVE",
"117 -172 CURVE",
"184 -203 LINE",
"350 141 OFFCURVE",
"484 514 OFFCURVE",
"541 928 CURVE"
);
}
);
vertOrigin = 25;
vertWidth = 1362;
width = 686;
}
);
unicode = 1B175;
},
{
glyphname = u1B176;
lastChange = "2020-04-13 08:26:46 +0000";
layers = (
{
layerId = "CFFEBDE4-599A-46B2-9328-D96E42CD9C81";
paths = (
{
closed = 1;
nodes = (
"160 306 OFFCURVE",
"183 323 OFFCURVE",
"183 362 CURVE SMOOTH",
"183 401 OFFCURVE",
"160 418 OFFCURVE",
"132 418 CURVE SMOOTH",
"103 418 OFFCURVE",
"80 401 OFFCURVE",
"80 362 CURVE SMOOTH",
"80 323 OFFCURVE",
"103 306 OFFCURVE",
"132 306 CURVE SMOOTH"
);
},
{
closed = 1;
nodes = (
"421 939 LINE",
"420 472 OFFCURVE",
"334 93 OFFCURVE",
"197 -169 CURVE",
"267 -203 LINE",
"406 61 OFFCURVE",
"496 443 OFFCURVE",
"499 938 CURVE"
);
}
);
vertOrigin = 25;
vertWidth = 1362;
width = 629;
}
);
rightMetricsKey = u1B170;
unicode = 1B176;
},
{
glyphname = u1B177;
lastChange = "2020-04-13 08:26:52 +0000";
layers = (
{
layerId = "CFFEBDE4-599A-46B2-9328-D96E42CD9C81";
paths = (
{
closed = 1;
nodes = (
"424 295 OFFCURVE",
"401 278 OFFCURVE",
"401 239 CURVE SMOOTH",
"401 200 OFFCURVE",
"424 183 OFFCURVE",
"452 183 CURVE SMOOTH",
"481 183 OFFCURVE",
"504 200 OFFCURVE",
"504 239 CURVE SMOOTH",
"504 278 OFFCURVE",
"481 295 OFFCURVE",
"452 295 CURVE SMOOTH"
);
},
{
closed = 1;
nodes = (
"143 478 OFFCURVE",
"107 93 OFFCURVE",
"143 -203 CURVE",
"220 -194 LINE",
"185 99 OFFCURVE",
"224 481 OFFCURVE",
"392 912 CURVE",
"319 939 LINE"
);
}
);
vertOrigin = 25;
vertWidth = 1362;
width = 584;
}
);
unicode = 1B177;
},
{
glyphname = u1B178;
lastChange = "2020-04-13 08:26:58 +0000";
layers = (
{
layerId = "CFFEBDE4-599A-46B2-9328-D96E42CD9C81";
paths = (
{
closed = 1;
nodes = (
"262 442 LINE",
"239 276 OFFCURVE",
"183 141 OFFCURVE",
"100 39 CURVE",
"158 -4 LINE",
"253 119 OFFCURVE",
"309 248 OFFCURVE",
"335 432 CURVE"
);
},
{
closed = 1;
nodes = (
"642 213 OFFCURVE",
"629 114 OFFCURVE",
"629 12 CURVE SMOOTH",
"629 -78 OFFCURVE",
"639 -144 OFFCURVE",
"653 -203 CURVE",
"723 -188 LINE",
"708 -120 OFFCURVE",
"704 -65 OFFCURVE",
"704 12 CURVE SMOOTH",
"704 106 OFFCURVE",
"714 198 OFFCURVE",
"752 307 CURVE",
"683 328 LINE"
);
},
{
closed = 1;
nodes = (
"507 939 LINE",
"504 445 OFFCURVE",
"464 130 OFFCURVE",
"304 -147 CURVE",
"369 -183 LINE",
"529 96 OFFCURVE",
"582 417 OFFCURVE",
"583 938 CURVE"
);
}
);
vertOrigin = 25;
vertWidth = 1362;
width = 862;
}
);
unicode = 1B178;
},
{
glyphname = u1B179;
lastChange = "2020-04-13 08:27:04 +0000";
layers = (
{
layerId = "CFFEBDE4-599A-46B2-9328-D96E42CD9C81";
paths = (
{
closed = 1;
nodes = (
"523 939 LINE",
"371 765 OFFCURVE",
"235 646 OFFCURVE",
"60 520 CURVE",
"104 461 LINE",
"280 588 OFFCURVE",
"416 704 OFFCURVE",
"582 891 CURVE"
);
},
{
closed = 1;
nodes = (
"525 740 OFFCURVE",
"549 692 OFFCURVE",
"549 634 CURVE SMOOTH",
"549 528 OFFCURVE",
"456 441 OFFCURVE",
"140 229 CURVE",
"182 168 LINE",
"527 396 OFFCURVE",
"625 499 OFFCURVE",
"625 634 CURVE SMOOTH",
"625 719 OFFCURVE",
"594 781 OFFCURVE",
"511 864 CURVE",
"472 793 LINE"
);
},
{
closed = 1;
nodes = (
"392 363 LINE",
"408 247 OFFCURVE",
"413 170 OFFCURVE",
"413 42 CURVE SMOOTH",
"413 -51 OFFCURVE",
"409 -113 OFFCURVE",
"401 -196 CURVE",
"476 -203 LINE",
"485 -122 OFFCURVE",
"489 -53 OFFCURVE",
"489 40 CURVE SMOOTH",
"489 170 OFFCURVE",
"480 281 OFFCURVE",
"457 408 CURVE"
);
}
);
vertOrigin = 25;
vertWidth = 1362;
width = 755;
}
);
unicode = 1B179;
},
{
glyphname = u1B17A;
lastChange = "2020-04-13 08:27:09 +0000";
layers = (
{
layerId = "CFFEBDE4-599A-46B2-9328-D96E42CD9C81";
paths = (
{
closed = 1;
nodes = (
"381 340 LINE",
"395 237 OFFCURVE",
"398 153 OFFCURVE",
"398 55 CURVE SMOOTH",
"398 -33 OFFCURVE",
"393 -114 OFFCURVE",
"382 -194 CURVE",
"456 -203 LINE",
"469 -119 OFFCURVE",
"474 -39 OFFCURVE",
"474 56 CURVE SMOOTH",
"474 155 OFFCURVE",
"467 249 OFFCURVE",
"452 349 CURVE"
);
},
{
closed = 1;
nodes = (
"462 939 LINE",
"395 675 OFFCURVE",
"302 467 OFFCURVE",
"127 223 CURVE",
"187 180 LINE",
"361 424 OFFCURVE",
"464 636 OFFCURVE",
"536 921 CURVE"
);
},
{
closed = 1;
nodes = (
"293 582 OFFCURVE",
"456 462 OFFCURVE",
"625 303 CURVE",
"677 358 LINE",
"493 530 OFFCURVE",
"343 638 OFFCURVE",
"103 756 CURVE",
"70 688 LINE"
);
}
);
vertOrigin = 25;
vertWidth = 1362;
width = 767;
}
);
unicode = 1B17A;
},
{
glyphname = u1B17B;
lastChange = "2020-04-13 08:27:15 +0000";
layers = (
{
layerId = "CFFEBDE4-599A-46B2-9328-D96E42CD9C81";
paths = (
{
closed = 1;
nodes = (
"462 939 LINE",
"357 689 OFFCURVE",
"237 506 OFFCURVE",
"70 304 CURVE",
"129 257 LINE",
"294 455 OFFCURVE",
"424 653 OFFCURVE",
"533 911 CURVE"
);
},
{
closed = 1;
nodes = (
"113 836 LINE",
"317 495 OFFCURVE",
"466 158 OFFCURVE",
"576 -203 CURVE",
"649 -182 LINE",
"539 183 OFFCURVE",
"385 521 OFFCURVE",
"179 875 CURVE"
);
},
{
closed = 1;
nodes = (
"390 313 LINE",
"316 168 OFFCURVE",
"248 58 OFFCURVE",
"157 -65 CURVE",
"219 -109 LINE",
"311 16 OFFCURVE",
"383 130 OFFCURVE",
"454 271 CURVE"
);
}
);
vertOrigin = 25;
vertWidth = 1362;
width = 679;
}
);
unicode = 1B17B;
},
{
glyphname = u1B17C;
lastChange = "2020-04-13 08:27:19 +0000";
layers = (
{
layerId = "CFFEBDE4-599A-46B2-9328-D96E42CD9C81";
paths = (
{
closed = 1;
nodes = (
"129 495 LINE",
"268 303 OFFCURVE",
"380 116 OFFCURVE",
"494 -107 CURVE",
"560 -74 LINE",
"505 36 OFFCURVE",
"451 129 OFFCURVE",
"372 260 CURVE",
"355 260 LINE",
"318 354 OFFCURVE",
"284 412 OFFCURVE",
"168 576 CURVE",
"180 499 LINE",
"275 670 OFFCURVE",
"301 730 OFFCURVE",
"324 798 CURVE",
"347 839 LINE",
"356 864 OFFCURVE",
"365 892 OFFCURVE",
"374 918 CURVE",
"301 939 LINE",
"250 786 OFFCURVE",
"199 678 OFFCURVE",
"129 566 CURVE"
);
},
{
closed = 1;
nodes = (
"328 798 LINE",
"380 718 OFFCURVE",
"409 628 OFFCURVE",
"409 536 CURVE SMOOTH",
"409 451 OFFCURVE",
"392 357 OFFCURVE",
"359 260 CURVE",
"347 260 LINE",
"291 127 OFFCURVE",
"212 4 OFFCURVE",
"90 -159 CURVE",
"152 -203 LINE",
"411 150 OFFCURVE",
"485 330 OFFCURVE",
"485 536 CURVE SMOOTH",
"485 662 OFFCURVE",
"445 766 OFFCURVE",
"340 889 CURVE",
"297 798 LINE"
);
}
);
vertOrigin = 25;
vertWidth = 1362;
width = 670;
}
);
unicode = 1B17C;
},
{
glyphname = u1B17D;
lastChange = "2020-04-13 08:27:21 +0000";
layers = (
{
layerId = "CFFEBDE4-599A-46B2-9328-D96E42CD9C81";
paths = (
{
closed = 1;
nodes = (
"370 939 LINE",
"345 546 OFFCURVE",
"257 306 OFFCURVE",
"70 95 CURVE",
"127 47 LINE",
"322 269 OFFCURVE",
"417 505 OFFCURVE",
"446 933 CURVE"
);
},
{
closed = 1;
nodes = (
"681 279 OFFCURVE",
"704 296 OFFCURVE",
"704 335 CURVE SMOOTH",
"704 374 OFFCURVE",
"681 391 OFFCURVE",
"653 391 CURVE SMOOTH",
"624 391 OFFCURVE",
"601 374 OFFCURVE",
"601 335 CURVE SMOOTH",
"601 296 OFFCURVE",
"624 279 OFFCURVE",
"653 279 CURVE SMOOTH"
);
},
{
closed = 1;
nodes = (
"332 504 LINE",
"411 341 OFFCURVE",
"425 208 OFFCURVE",
"425 54 CURVE SMOOTH",
"425 -39 OFFCURVE",
"421 -115 OFFCURVE",
"412 -198 CURVE",
"486 -203 LINE",
"495 -122 OFFCURVE",
"501 -41 OFFCURVE",
"501 52 CURVE SMOOTH",
"501 220 OFFCURVE",
"480 363 OFFCURVE",
"385 573 CURVE"
);
}
);
vertOrigin = 25;
vertWidth = 1362;
width = 784;
}
);
leftMetricsKey = u1B173;
rightMetricsKey = u1B177;
unicode = 1B17D;
},
{
glyphname = u1B17E;
lastChange = "2020-04-13 08:27:25 +0000";
layers = (
{
layerId = "CFFEBDE4-599A-46B2-9328-D96E42CD9C81";
paths = (
{
closed = 1;
nodes = (
"447 939 LINE",
"356 789 OFFCURVE",
"247 669 OFFCURVE",
"120 550 CURVE",
"162 417 OFFCURVE",
"175 311 OFFCURVE",
"175 187 CURVE SMOOTH",
"175 51 OFFCURVE",
"158 -64 OFFCURVE",
"120 -182 CURVE",
"191 -203 LINE",
"235 -77 OFFCURVE",
"251 46 OFFCURVE",
"251 187 CURVE SMOOTH",
"251 315 OFFCURVE",
"234 431 OFFCURVE",
"196 568 CURVE",
"190 512 LINE",
"310 626 OFFCURVE",
"420 745 OFFCURVE",
"515 903 CURVE"
);
},
{
closed = 1;
nodes = (
"558 315 LINE",
"530 492 OFFCURVE",
"490 611 OFFCURVE",
"403 777 CURVE",
"359 703 LINE",
"427 558 OFFCURVE",
"457 460 OFFCURVE",
"481 303 CURVE"
);
}
);
vertOrigin = 25;
vertWidth = 1362;
width = 658;
}
);
unicode = 1B17E;
},
{
glyphname = u1B17F;
lastChange = "2020-04-11 14:47:57 +0000";
layers = (
{
layerId = "CFFEBDE4-599A-46B2-9328-D96E42CD9C81";
paths = (
{
closed = 1;
nodes = (
"160 274 OFFCURVE",
"183 291 OFFCURVE",
"183 330 CURVE SMOOTH",
"183 369 OFFCURVE",
"160 386 OFFCURVE",
"132 386 CURVE SMOOTH",
"103 386 OFFCURVE",
"80 369 OFFCURVE",
"80 330 CURVE SMOOTH",
"80 291 OFFCURVE",
"103 274 OFFCURVE",
"132 274 CURVE SMOOTH"
);
},
{
closed = 1;
nodes = (
"637 12 OFFCURVE",
"660 29 OFFCURVE",
"660 68 CURVE SMOOTH",
"660 107 OFFCURVE",
"637 124 OFFCURVE",
"609 124 CURVE SMOOTH",
"580 124 OFFCURVE",
"557 107 OFFCURVE",
"557 68 CURVE SMOOTH",
"557 29 OFFCURVE",
"580 12 OFFCURVE",
"609 12 CURVE SMOOTH"
);
},
{
closed = 1;
nodes = (
"401 939 LINE",
"400 472 OFFCURVE",
"314 93 OFFCURVE",
"177 -169 CURVE",
"247 -203 LINE",
"386 61 OFFCURVE",
"476 443 OFFCURVE",
"479 938 CURVE"
);
}
);
vertOrigin = 25;
vertWidth = 1362;
width = 740;
}
);
leftMetricsKey = u1B176;
rightMetricsKey = u1B177;
unicode = 1B17F;
},
{
glyphname = u1B180;
lastChange = "2020-04-13 08:27:28 +0000";
layers = (
{
layerId = "CFFEBDE4-599A-46B2-9328-D96E42CD9C81";
paths = (
{
closed = 1;
nodes = (
"547 68 LINE",
"422 328 OFFCURVE",
"314 525 OFFCURVE",
"143 774 CURVE",
"80 731 LINE",
"248 490 OFFCURVE",
"363 278 OFFCURVE",
"480 30 CURVE"
);
},
{
closed = 1;
nodes = (
"568 939 LINE",
"488 765 OFFCURVE",
"405 614 OFFCURVE",
"315 474 CURVE",
"286 434 LINE",
"223 339 OFFCURVE",
"156 250 OFFCURVE",
"84 161 CURVE",
"144 114 LINE",
"210 195 OFFCURVE",
"275 281 OFFCURVE",
"335 371 CURVE",
"359 403 LINE",
"457 552 OFFCURVE",
"549 716 OFFCURVE",
"638 909 CURVE"
);
},
{
closed = 1;
nodes = (
"675 367 LINE",
"572 177 OFFCURVE",
"449 -2 OFFCURVE",
"313 -155 CURVE",
"372 -203 LINE",
"520 -33 OFFCURVE",
"631 128 OFFCURVE",
"743 331 CURVE"
);
}
);
vertOrigin = 30;
vertWidth = 1362;
width = 813;
}
);
unicode = 1B180;
},
{
glyphname = u1B181;
lastChange = "2020-04-13 08:33:31 +0000";
layers = (
{
layerId = "CFFEBDE4-599A-46B2-9328-D96E42CD9C81";
paths = (
{
closed = 1;
nodes = (
"131 344 LINE",
"274 172 OFFCURVE",
"374 6 OFFCURVE",
"469 -203 CURVE",
"539 -172 LINE",
"488 -65 OFFCURVE",
"443 21 OFFCURVE",
"364 154 CURVE",
"353 154 LINE",
"310 235 OFFCURVE",
"282 276 OFFCURVE",
"179 408 CURVE",
"177 346 LINE",
"273 474 OFFCURVE",
"299 519 OFFCURVE",
"334 590 CURVE",
"344 590 LINE",
"420 721 OFFCURVE",
"455 812 OFFCURVE",
"490 915 CURVE",
"418 939 LINE",
"387 849 OFFCURVE",
"354 770 OFFCURVE",
"315 696 CURVE",
"299 660 LINE",
"253 576 OFFCURVE",
"196 494 OFFCURVE",
"131 415 CURVE"
);
},
{
closed = 1;
nodes = (
"196 730 OFFCURVE",
"260 673 OFFCURVE",
"330 590 CURVE",
"338 590 LINE",
"395 524 OFFCURVE",
"422 451 OFFCURVE",
"422 380 CURVE SMOOTH",
"422 310 OFFCURVE",
"403 233 OFFCURVE",
"357 154 CURVE",
"346 154 LINE",
"282 59 OFFCURVE",
"217 -8 OFFCURVE",
"120 -104 CURVE",
"174 -158 LINE",
"396 65 OFFCURVE",
"498 205 OFFCURVE",
"498 380 CURVE SMOOTH",
"498 524 OFFCURVE",
"425 648 OFFCURVE",
"158 854 CURVE",
"110 794 LINE"
);
}
);
vertOrigin = 25;
vertWidth = 1362;
width = 659;
}
);
unicode = 1B181;
},
{
glyphname = u1B182;
lastChange = "2020-04-13 08:27:35 +0000";
layers = (
{
layerId = "CFFEBDE4-599A-46B2-9328-D96E42CD9C81";
paths = (
{
closed = 1;
nodes = (
"254 473 LINE",
"335 594 OFFCURVE",
"376 681 OFFCURVE",
"406 763 CURVE",
"434 802 LINE",
"448 836 OFFCURVE",
"465 875 OFFCURVE",
"480 914 CURVE",
"409 939 LINE",
"343 766 OFFCURVE",
"284 649 OFFCURVE",
"207 532 CURVE"
);
},
{
closed = 1;
nodes = (
"410 763 LINE",
"451 683 OFFCURVE",
"464 611 OFFCURVE",
"464 521 CURVE SMOOTH",
"464 441 OFFCURVE",
"450 364 OFFCURVE",
"413 274 CURVE",
"402 274 LINE",
"339 130 OFFCURVE",
"253 -1 OFFCURVE",
"138 -160 CURVE",
"201 -203 LINE",
"453 146 OFFCURVE",
"540 347 OFFCURVE",
"540 521 CURVE SMOOTH",
"540 653 OFFCURVE",
"505 758 OFFCURVE",
"414 869 CURVE",
"379 763 LINE"
);
},
{
closed = 1;
nodes = (
"80 623 LINE",
"274 364 OFFCURVE",
"422 147 OFFCURVE",
"570 -95 CURVE",
"635 -55 LINE",
"572 47 OFFCURVE",
"511 143 OFFCURVE",
"423 274 CURVE",
"409 274 LINE",
"350 378 OFFCURVE",
"296 459 OFFCURVE",
"139 668 CURVE"
);
}
);
vertOrigin = 25;
vertWidth = 1362;
width = 705;
}
);
unicode = 1B182;
},
{
glyphname = u1B183;
lastChange = "2020-04-13 08:27:38 +0000";
layers = (
{
layerId = "CFFEBDE4-599A-46B2-9328-D96E42CD9C81";
paths = (
{
closed = 1;
nodes = (
"274 432 LINE",
"362 290 OFFCURVE",
"433 170 OFFCURVE",
"501 22 CURVE",
"566 62 LINE",
"493 217 OFFCURVE",
"416 352 OFFCURVE",
"316 505 CURVE"
);
},
{
closed = 1;
nodes = (
"552 939 LINE",
"412 658 OFFCURVE",
"213 362 OFFCURVE",
"60 165 CURVE",
"118 120 LINE",
"269 310 OFFCURVE",
"480 627 OFFCURVE",
"622 908 CURVE"
);
},
{
closed = 1;
nodes = (
"690 367 LINE",
"583 180 OFFCURVE",
"449 -11 OFFCURVE",
"322 -155 CURVE",
"378 -203 LINE",
"524 -34 OFFCURVE",
"636 129 OFFCURVE",
"756 331 CURVE"
);
}
);
vertOrigin = 24;
vertWidth = 1362;
width = 826;
}
);
rightMetricsKey = u1B180;
unicode = 1B183;
},
{
glyphname = u1B184;
lastChange = "2020-04-13 08:27:44 +0000";
layers = (
{
layerId = "CFFEBDE4-599A-46B2-9328-D96E42CD9C81";
paths = (
{
closed = 1;
nodes = (
"340 -62 OFFCURVE",
"363 -45 OFFCURVE",
"363 -6 CURVE SMOOTH",
"363 33 OFFCURVE",
"340 50 OFFCURVE",
"312 50 CURVE SMOOTH",
"283 50 OFFCURVE",
"260 33 OFFCURVE",
"260 -6 CURVE SMOOTH",
"260 -45 OFFCURVE",
"283 -62 OFFCURVE",
"312 -62 CURVE SMOOTH"
);
},
{
closed = 1;
nodes = (
"390 939 LINE",
"365 546 OFFCURVE",
"267 306 OFFCURVE",
"70 95 CURVE",
"125 45 LINE",
"330 264 OFFCURVE",
"437 505 OFFCURVE",
"466 933 CURVE"
);
},
{
closed = 1;
nodes = (
"361 510 LINE",
"448 348 OFFCURVE",
"479 198 OFFCURVE",
"479 22 CURVE SMOOTH",
"479 -59 OFFCURVE",
"477 -114 OFFCURVE",
"469 -197 CURVE",
"543 -203 LINE",
"552 -122 OFFCURVE",
"555 -61 OFFCURVE",
"555 20 CURVE SMOOTH",
"555 220 OFFCURVE",
"521 373 OFFCURVE",
"403 591 CURVE"
);
}
);
vertOrigin = 25;
vertWidth = 1362;
width = 675;
}
);
leftMetricsKey = u1B173;
unicode = 1B184;
},
{
glyphname = u1B185;
lastChange = "2020-04-13 08:29:59 +0000";
layers = (
{
layerId = "CFFEBDE4-599A-46B2-9328-D96E42CD9C81";
paths = (
{
closed = 1;
nodes = (
"355 939 LINE",
"293 691 OFFCURVE",
"222 543 OFFCURVE",
"80 364 CURVE",
"141 319 LINE",
"286 499 OFFCURVE",
"366 671 OFFCURVE",
"429 923 CURVE"
);
},
{
closed = 1;
nodes = (
"360 788 LINE",
"474 652 OFFCURVE",
"561 521 OFFCURVE",
"648 344 CURVE",
"719 377 LINE",
"617 579 OFFCURVE",
"532 699 OFFCURVE",
"407 854 CURVE"
);
},
{
closed = 1;
nodes = (
"368 457 LINE",
"383 341 OFFCURVE",
"388 225 OFFCURVE",
"388 122 CURVE SMOOTH",
"388 -11 OFFCURVE",
"383 -97 OFFCURVE",
"367 -192 CURVE",
"441 -203 LINE",
"457 -106 OFFCURVE",
"464 -10 OFFCURVE",
"464 123 CURVE SMOOTH",
"464 233 OFFCURVE",
"457 346 OFFCURVE",
"439 464 CURVE"
);
}
);
vertOrigin = 25;
vertWidth = 1362;
width = 809;
}
);
unicode = 1B185;
},
{
glyphname = u1B186;
lastChange = "2020-04-13 08:29:50 +0000";
layers = (
{
layerId = "CFFEBDE4-599A-46B2-9328-D96E42CD9C81";
paths = (
{
closed = 1;
nodes = (
"207 570 OFFCURVE",
"240 425 OFFCURVE",
"240 266 CURVE SMOOTH",
"240 89 OFFCURVE",
"218 -41 OFFCURVE",
"170 -181 CURVE",
"241 -203 LINE",
"292 -62 OFFCURVE",
"314 75 OFFCURVE",
"314 266 CURVE SMOOTH",
"314 289 OFFCURVE",
"313 311 OFFCURVE",
"312 363 CURVE",
"298 384 LINE",
"293 501 OFFCURVE",
"267 612 OFFCURVE",
"189 784 CURVE",
"120 754 LINE"
);
},
{
closed = 1;
nodes = (
"517 654 OFFCURVE",
"404 489 OFFCURVE",
"302 383 CURVE",
"274 390 LINE",
"285 271 LINE",
"460 441 OFFCURVE",
"569 589 OFFCURVE",
"648 924 CURVE",
"573 939 LINE"
);
},
{
closed = 1;
nodes = (
"462 530 LINE",
"537 394 OFFCURVE",
"577 279 OFFCURVE",
"603 135 CURVE",
"679 149 LINE",
"649 318 OFFCURVE",
"599 439 OFFCURVE",
"506 593 CURVE"
);
}
);
vertOrigin = 25;
vertWidth = 1362;
width = 779;
}
);
leftMetricsKey = u1B17E;
rightMetricsKey = u1B17E;
unicode = 1B186;
},
{
glyphname = u1B187;
lastChange = "2020-04-13 08:29:47 +0000";
layers = (
{
layerId = "CFFEBDE4-599A-46B2-9328-D96E42CD9C81";
paths = (
{
closed = 1;
nodes = (
"553 -199 LINE",
"527 272 OFFCURVE",
"408 552 OFFCURVE",
"191 896 CURVE",
"126 856 LINE",
"343 515 OFFCURVE",
"461 215 OFFCURVE",
"477 -203 CURVE"
);
},
{
closed = 1;
nodes = (
"477 939 LINE",
"423 845 OFFCURVE",
"364 757 OFFCURVE",
"298 676 CURVE",
"270 648 LINE",
"207 572 OFFCURVE",
"138 501 OFFCURVE",
"60 432 CURVE",
"112 377 LINE",
"183 440 OFFCURVE",
"249 506 OFFCURVE",
"310 577 CURVE",
"341 608 LINE",
"416 699 OFFCURVE",
"483 796 OFFCURVE",
"543 902 CURVE"
);
},
{
closed = 1;
nodes = (
"634 675 LINE",
"567 574 OFFCURVE",
"498 484 OFFCURVE",
"424 401 CURVE",
"395 375 LINE",
"323 299 OFFCURVE",
"247 229 OFFCURVE",
"163 162 CURVE",
"211 103 LINE",
"283 160 OFFCURVE",
"351 221 OFFCURVE",
"417 288 CURVE",
"456 323 LINE",
"540 414 OFFCURVE",
"620 516 OFFCURVE",
"697 632 CURVE"
);
}
);
vertOrigin = 25;
vertWidth = 1362;
width = 787;
}
);
unicode = 1B187;
},
{
glyphname = u1B188;
lastChange = "2020-04-13 08:29:39 +0000";
layers = (
{
layerId = "CFFEBDE4-599A-46B2-9328-D96E42CD9C81";
paths = (
{
closed = 1;
nodes = (
"140 -1 OFFCURVE",
"163 16 OFFCURVE",
"163 55 CURVE SMOOTH",
"163 94 OFFCURVE",
"140 111 OFFCURVE",
"112 111 CURVE SMOOTH",
"83 111 OFFCURVE",
"60 94 OFFCURVE",
"60 55 CURVE SMOOTH",
"60 16 OFFCURVE",
"83 -1 OFFCURVE",
"112 -1 CURVE SMOOTH"
);
},
{
closed = 1;
nodes = (
"694 863 LINE",
"648 587 OFFCURVE",
"593 361 OFFCURVE",
"517 160 CURVE SMOOTH",
"489 87 OFFCURVE",
"463 26 OFFCURVE",
"442 -28 CURVE",
"438 -28 LINE",
"424 20 OFFCURVE",
"405 72 OFFCURVE",
"376 136 CURVE SMOOTH",
"339 217 OFFCURVE",
"298 294 OFFCURVE",
"248 370 CURVE",
"184 329 LINE",
"270 192 OFFCURVE",
"322 86 OFFCURVE",
"386 -83 CURVE",
"486 -89 LINE",
"611 156 OFFCURVE",
"700 428 OFFCURVE",
"769 854 CURVE"
);
}
);
vertOrigin = 24;
vertWidth = 1362;
width = 849;
}
);
unicode = 1B188;
},
{
glyphname = u1B189;
lastChange = "2020-04-13 08:29:36 +0000";
layers = (
{
layerId = "CFFEBDE4-599A-46B2-9328-D96E42CD9C81";
paths = (
{
closed = 1;
nodes = (
"563 -199 LINE",
"539 194 OFFCURVE",
"483 409 OFFCURVE",
"355 692 CURVE",
"303 624 LINE",
"421 363 OFFCURVE",
"467 130 OFFCURVE",
"487 -203 CURVE"
);
},
{
closed = 1;
nodes = (
"477 939 LINE",
"363 743 OFFCURVE",
"232 578 OFFCURVE",
"60 426 CURVE",
"113 372 LINE",
"285 524 OFFCURVE",
"427 698 OFFCURVE",
"543 902 CURVE"
);
},
{
closed = 1;
nodes = (
"634 670 LINE",
"575 580 OFFCURVE",
"513 500 OFFCURVE",
"448 424 CURVE",
"413 390 LINE",
"336 306 OFFCURVE",
"254 229 OFFCURVE",
"163 156 CURVE",
"211 97 LINE",
"289 160 OFFCURVE",
"364 227 OFFCURVE",
"436 302 CURVE",
"474 338 LINE",
"552 424 OFFCURVE",
"626 519 OFFCURVE",
"698 628 CURVE"
);
}
);
vertOrigin = 25;
vertWidth = 1362;
width = 788;
}
);
leftMetricsKey = u1B187;
rightMetricsKey = u1B187;
unicode = 1B189;
},
{
glyphname = u1B18A;
lastChange = "2020-04-13 08:29:33 +0000";
layers = (
{
layerId = "CFFEBDE4-599A-46B2-9328-D96E42CD9C81";
paths = (
{
closed = 1;
nodes = (
"459 342 LINE",
"378 204 OFFCURVE",
"294 120 OFFCURVE",
"169 26 CURVE",
"213 -31 LINE",
"344 66 OFFCURVE",
"432 156 OFFCURVE",
"522 306 CURVE"
);
},
{
closed = 1;
nodes = (
"564 155 LINE",
"474 24 OFFCURVE",
"379 -64 OFFCURVE",
"264 -144 CURVE",
"306 -203 LINE",
"428 -118 OFFCURVE",
"532 -22 OFFCURVE",
"623 114 CURVE"
);
},
{
closed = 1;
nodes = (
"424 939 LINE",
"393 571 OFFCURVE",
"323 405 OFFCURVE",
"80 190 CURVE",
"127 133 LINE",
"372 350 OFFCURVE",
"467 521 OFFCURVE",
"500 934 CURVE"
);
}
);
vertOrigin = 25;
vertWidth = 1362;
width = 723;
}
);
leftMetricsKey = u1B171;
rightMetricsKey = u1B171;
unicode = 1B18A;
},
{
glyphname = u1B18B;
lastChange = "2020-04-12 09:59:30 +0000";
layers = (
{
layerId = "CFFEBDE4-599A-46B2-9328-D96E42CD9C81";
paths = (
{
closed = 1;
nodes = (
"570 733 LINE",
"500 625 OFFCURVE",
"442 560 OFFCURVE",
"347 478 CURVE",
"377 372 OFFCURVE",
"388 287 OFFCURVE",
"388 189 CURVE SMOOTH",
"388 100 OFFCURVE",
"383 41 OFFCURVE",
"370 -32 CURVE",
"443 -43 LINE",
"457 39 OFFCURVE",
"464 106 OFFCURVE",
"464 190 CURVE SMOOTH",
"464 287 OFFCURVE",
"452 376 OFFCURVE",
"416 497 CURVE",
"414 435 LINE",
"498 509 OFFCURVE",
"564 583 OFFCURVE",
"634 692 CURVE"
);
},
{
closed = 1;
nodes = (
"447 939 LINE",
"356 789 OFFCURVE",
"247 669 OFFCURVE",
"120 550 CURVE",
"162 417 OFFCURVE",
"175 311 OFFCURVE",
"175 187 CURVE SMOOTH",
"175 51 OFFCURVE",
"158 -64 OFFCURVE",
"120 -182 CURVE",
"191 -203 LINE",
"235 -77 OFFCURVE",
"251 46 OFFCURVE",
"251 187 CURVE SMOOTH",
"251 315 OFFCURVE",
"234 431 OFFCURVE",
"196 568 CURVE",
"190 512 LINE",
"310 626 OFFCURVE",
"420 745 OFFCURVE",
"515 903 CURVE"
);
}
);
vertOrigin = 25;
vertWidth = 1362;
width = 714;
}
);
leftMetricsKey = u1B17E;
unicode = 1B18B;
},
{
glyphname = u1B18C;
lastChange = "2020-04-11 14:57:49 +0000";
layers = (
{
layerId = "CFFEBDE4-599A-46B2-9328-D96E42CD9C81";
paths = (
{
closed = 1;
nodes = (
"721 558 OFFCURVE",
"744 575 OFFCURVE",
"744 614 CURVE SMOOTH",
"744 653 OFFCURVE",
"721 670 OFFCURVE",
"693 670 CURVE SMOOTH",
"664 670 OFFCURVE",
"641 653 OFFCURVE",
"641 614 CURVE SMOOTH",
"641 575 OFFCURVE",
"664 558 OFFCURVE",
"693 558 CURVE SMOOTH"
);
},
{
closed = 1;
nodes = (
"160 156 OFFCURVE",
"183 173 OFFCURVE",
"183 212 CURVE SMOOTH",
"183 251 OFFCURVE",
"160 268 OFFCURVE",
"132 268 CURVE SMOOTH",
"103 268 OFFCURVE",
"80 251 OFFCURVE",
"80 212 CURVE SMOOTH",
"80 173 OFFCURVE",
"103 156 OFFCURVE",
"132 156 CURVE SMOOTH"
);
},
{
closed = 1;
nodes = (
"249 522 OFFCURVE",
"282 371 OFFCURVE",
"282 202 CURVE SMOOTH",
"282 69 OFFCURVE",
"259 -51 OFFCURVE",
"204 -175 CURVE",
"270 -203 LINE",
"334 -65 OFFCURVE",
"358 56 OFFCURVE",
"358 202 CURVE SMOOTH",
"358 393 OFFCURVE",
"325 529 OFFCURVE",
"239 735 CURVE",
"170 707 LINE"
);
},
{
closed = 1;
nodes = (
"572 279 OFFCURVE",
"527 415 OFFCURVE",
"527 593 CURVE SMOOTH",
"527 692 OFFCURVE",
"538 794 OFFCURVE",
"569 923 CURVE",
"497 939 LINE",
"467 812 OFFCURVE",
"451 710 OFFCURVE",
"451 594 CURVE SMOOTH",
"451 405 OFFCURVE",
"501 250 OFFCURVE",
"609 99 CURVE",
"666 139 LINE"
);
}
);
vertOrigin = 25;
vertWidth = 1362;
width = 824;
}
);
leftMetricsKey = u1B176;
rightMetricsKey = u1B177;
unicode = 1B18C;
},
{
glyphname = u1B18D;
lastChange = "2020-04-13 08:29:28 +0000";
layers = (
{
layerId = "CFFEBDE4-599A-46B2-9328-D96E42CD9C81";
paths = (
{
closed = 1;
nodes = (
"483 270 LINE",
"473 339 OFFCURVE",
"455 395 OFFCURVE",
"417 485 CURVE",
"354 459 LINE",
"387 383 OFFCURVE",
"414 307 OFFCURVE",
"436 221 CURVE",
"525 218 LINE",
"589 308 OFFCURVE",
"611 394 OFFCURVE",
"611 476 CURVE SMOOTH",
"611 590 OFFCURVE",
"563 705 OFFCURVE",
"409 846 CURVE",
"378 782 LINE",
"502 652 OFFCURVE",
"535 568 OFFCURVE",
"535 470 CURVE SMOOTH",
"535 402 OFFCURVE",
"521 342 OFFCURVE",
"487 270 CURVE"
);
},
{
closed = 1;
nodes = (
"447 939 LINE",
"356 789 OFFCURVE",
"247 669 OFFCURVE",
"120 550 CURVE",
"162 417 OFFCURVE",
"175 311 OFFCURVE",
"175 187 CURVE SMOOTH",
"175 51 OFFCURVE",
"158 -64 OFFCURVE",
"120 -182 CURVE",
"191 -203 LINE",
"235 -77 OFFCURVE",
"251 46 OFFCURVE",
"251 187 CURVE SMOOTH",
"251 315 OFFCURVE",
"234 431 OFFCURVE",
"196 568 CURVE",
"190 512 LINE",
"310 626 OFFCURVE",
"420 745 OFFCURVE",
"515 903 CURVE"
);
}
);
vertOrigin = 25;
vertWidth = 1362;
width = 711;
}
);
leftMetricsKey = u1B17E;
unicode = 1B18D;
},
{
glyphname = u1B18E;
lastChange = "2020-04-13 08:29:24 +0000";
layers = (
{
layerId = "CFFEBDE4-599A-46B2-9328-D96E42CD9C81";
paths = (
{
closed = 1;
nodes = (
"487 919 LINE",
"432 819 OFFCURVE",
"374 725 OFFCURVE",
"306 633 CURVE",
"278 591 LINE",
"217 512 OFFCURVE",
"149 432 OFFCURVE",
"70 349 CURVE",
"125 297 LINE",
"199 374 OFFCURVE",
"264 450 OFFCURVE",
"324 528 CURVE",
"347 562 LINE",
"423 662 OFFCURVE",
"491 767 OFFCURVE",
"556 886 CURVE"
);
},
{
closed = 1;
nodes = (
"130 811 LINE",
"365 450 OFFCURVE",
"495 178 OFFCURVE",
"635 -169 CURVE",
"705 -140 LINE",
"557 234 OFFCURVE",
"422 490 OFFCURVE",
"193 854 CURVE"
);
},
{
closed = 1;
nodes = (
"404 399 LINE",
"307 254 OFFCURVE",
"233 158 OFFCURVE",
"113 31 CURVE",
"167 -19 LINE",
"276 97 OFFCURVE",
"362 206 OFFCURVE",
"457 352 CURVE"
);
},
{
closed = 1;
nodes = (
"409 -142 OFFCURVE",
"432 -125 OFFCURVE",
"432 -86 CURVE SMOOTH",
"432 -47 OFFCURVE",
"409 -30 OFFCURVE",
"381 -30 CURVE SMOOTH",
"352 -30 OFFCURVE",
"329 -47 OFFCURVE",
"329 -86 CURVE SMOOTH",
"329 -125 OFFCURVE",
"352 -142 OFFCURVE",
"381 -142 CURVE SMOOTH"
);
}
);
vertOrigin = 25;
vertWidth = 1362;
width = 735;
}
);
leftMetricsKey = u1B17B;
rightMetricsKey = u1B17B;
unicode = 1B18E;
},
{
glyphname = u1B18F;
lastChange = "2020-04-13 08:19:56 +0000";
layers = (
{
layerId = "CFFEBDE4-599A-46B2-9328-D96E42CD9C81";
paths = (
{
closed = 1;
nodes = (
"638 383 OFFCURVE",
"661 400 OFFCURVE",
"661 439 CURVE SMOOTH",
"661 478 OFFCURVE",
"638 495 OFFCURVE",
"610 495 CURVE SMOOTH",
"581 495 OFFCURVE",
"558 478 OFFCURVE",
"558 439 CURVE SMOOTH",
"558 400 OFFCURVE",
"581 383 OFFCURVE",
"610 383 CURVE SMOOTH"
);
},
{
closed = 1;
nodes = (
"178 255 OFFCURVE",
"201 272 OFFCURVE",
"201 311 CURVE SMOOTH",
"201 350 OFFCURVE",
"178 367 OFFCURVE",
"150 367 CURVE SMOOTH",
"121 367 OFFCURVE",
"98 350 OFFCURVE",
"98 311 CURVE SMOOTH",
"98 272 OFFCURVE",
"121 255 OFFCURVE",
"150 255 CURVE SMOOTH"
);
},
{
closed = 1;
nodes = (
"596 -89 LINE",
"542 74 OFFCURVE",
"469 244 OFFCURVE",
"398 372 CURVE",
"370 402 LINE",
"294 543 OFFCURVE",
"230 644 OFFCURVE",
"140 763 CURVE",
"80 717 LINE",
"178 587 OFFCURVE",
"253 470 OFFCURVE",
"337 308 CURVE",
"366 273 LINE",
"422 162 OFFCURVE",
"481 24 OFFCURVE",
"525 -110 CURVE"
);
},
{
closed = 1;
nodes = (
"476 939 LINE",
"422 543 OFFCURVE",
"295 176 OFFCURVE",
"127 -172 CURVE",
"194 -203 LINE",
"360 141 OFFCURVE",
"494 514 OFFCURVE",
"551 928 CURVE"
);
}
);
vertOrigin = 25;
vertWidth = 1362;
width = 741;
}
);
leftMetricsKey = u1B176;
rightMetricsKey = u1B177;
unicode = 1B18F;
},
{
glyphname = u1B190;
lastChange = "2020-04-13 08:29:19 +0000";
layers = (
{
layerId = "CFFEBDE4-599A-46B2-9328-D96E42CD9C81";
paths = (
{
closed = 1;
nodes = (
"287 -102 OFFCURVE",
"325 -156 OFFCURVE",
"404 -203 CURVE",
"475 -194 LINE",
"555 -106 OFFCURVE",
"582 -33 OFFCURVE",
"582 43 CURVE SMOOTH",
"582 130 OFFCURVE",
"545 186 OFFCURVE",
"461 236 CURVE",
"387 226 LINE",
"310 123 OFFCURVE",
"287 50 OFFCURVE",
"287 -9 CURVE SMOOTH"
);
},
{
closed = 1;
nodes = (
"437 170 LINE",
"486 131 OFFCURVE",
"508 92 OFFCURVE",
"508 40 CURVE SMOOTH",
"508 -23 OFFCURVE",
"486 -79 OFFCURVE",
"435 -143 CURVE",
"430 -144 LINE",
"382 -102 OFFCURVE",
"361 -64 OFFCURVE",
"361 -10 CURVE SMOOTH",
"361 43 OFFCURVE",
"382 109 OFFCURVE",
"432 169 CURVE"
);
},
{
closed = 1;
nodes = (
"200 684 OFFCURVE",
"211 591 OFFCURVE",
"211 486 CURVE SMOOTH",
"211 359 OFFCURVE",
"182 262 OFFCURVE",
"100 150 CURVE",
"160 110 LINE",
"254 240 OFFCURVE",
"285 339 OFFCURVE",
"285 490 CURVE SMOOTH",
"285 599 OFFCURVE",
"272 691 OFFCURVE",
"226 817 CURVE",
"158 793 LINE"
);
},
{
closed = 1;
nodes = (
"595 431 OFFCURVE",
"561 519 OFFCURVE",
"561 651 CURVE SMOOTH",
"561 745 OFFCURVE",
"573 820 OFFCURVE",
"607 918 CURVE",
"538 939 LINE",
"499 830 OFFCURVE",
"487 749 OFFCURVE",
"487 651 CURVE SMOOTH",
"487 499 OFFCURVE",
"534 383 OFFCURVE",
"642 273 CURVE",
"694 320 LINE"
);
}
);
vertOrigin = 25;
vertWidth = 1362;
width = 794;
}
);
leftMetricsKey = u1B174;
rightMetricsKey = u1B174;
unicode = 1B190;
},
{
glyphname = u1B191;
lastChange = "2020-04-13 08:29:15 +0000";
layers = (
{
layerId = "CFFEBDE4-599A-46B2-9328-D96E42CD9C81";
paths = (
{
closed = 1;
nodes = (
"663 343 LINE",
"596 279 OFFCURVE",
"531 224 OFFCURVE",
"462 172 CURVE",
"427 150 LINE",
"355 99 OFFCURVE",
"278 52 OFFCURVE",
"191 4 CURVE",
"227 -61 LINE",
"303 -18 OFFCURVE",
"368 21 OFFCURVE",
"429 63 CURVE",
"473 89 LINE",
"554 147 OFFCURVE",
"629 210 OFFCURVE",
"715 290 CURVE"
);
},
{
closed = 1;
nodes = (
"523 939 LINE",
"371 765 OFFCURVE",
"235 646 OFFCURVE",
"60 520 CURVE",
"105 460 LINE",
"281 587 OFFCURVE",
"414 702 OFFCURVE",
"580 889 CURVE"
);
},
{
closed = 1;
nodes = (
"525 740 OFFCURVE",
"549 692 OFFCURVE",
"549 634 CURVE SMOOTH",
"549 528 OFFCURVE",
"456 441 OFFCURVE",
"140 229 CURVE",
"183 167 LINE",
"528 395 OFFCURVE",
"625 499 OFFCURVE",
"625 634 CURVE SMOOTH",
"625 719 OFFCURVE",
"594 781 OFFCURVE",
"511 864 CURVE",
"472 793 LINE"
);
},
{
closed = 1;
nodes = (
"392 363 LINE",
"408 247 OFFCURVE",
"413 170 OFFCURVE",
"413 42 CURVE SMOOTH",
"413 -51 OFFCURVE",
"409 -113 OFFCURVE",
"401 -196 CURVE",
"476 -203 LINE",
"485 -122 OFFCURVE",
"489 -53 OFFCURVE",
"489 40 CURVE SMOOTH",
"489 170 OFFCURVE",
"480 281 OFFCURVE",
"457 408 CURVE"
);
}
);
vertOrigin = 25;
vertWidth = 1362;
width = 795;
}
);
leftMetricsKey = u1B179;
unicode = 1B191;
},
{
glyphname = u1B192;
lastChange = "2020-04-13 08:29:12 +0000";
layers = (
{
layerId = "CFFEBDE4-599A-46B2-9328-D96E42CD9C81";
paths = (
{
closed = 1;
nodes = (
"160 101 OFFCURVE",
"183 118 OFFCURVE",
"183 157 CURVE SMOOTH",
"183 196 OFFCURVE",
"160 213 OFFCURVE",
"132 213 CURVE SMOOTH",
"103 213 OFFCURVE",
"80 196 OFFCURVE",
"80 157 CURVE SMOOTH",
"80 118 OFFCURVE",
"103 101 OFFCURVE",
"132 101 CURVE SMOOTH"
);
},
{
closed = 1;
nodes = (
"523 939 LINE",
"432 789 OFFCURVE",
"323 669 OFFCURVE",
"196 550 CURVE",
"260 403 OFFCURVE",
"290 299 OFFCURVE",
"290 167 CURVE SMOOTH",
"290 52 OFFCURVE",
"269 -61 OFFCURVE",
"223 -178 CURVE",
"290 -203 LINE",
"340 -84 OFFCURVE",
"366 39 OFFCURVE",
"366 167 CURVE SMOOTH",
"366 299 OFFCURVE",
"333 428 OFFCURVE",
"273 561 CURVE",
"266 512 LINE",
"386 624 OFFCURVE",
"495 742 OFFCURVE",
"591 901 CURVE"
);
},
{
closed = 1;
nodes = (
"634 315 LINE",
"606 492 OFFCURVE",
"566 611 OFFCURVE",
"479 777 CURVE",
"435 703 LINE",
"503 558 OFFCURVE",
"533 460 OFFCURVE",
"557 303 CURVE"
);
}
);
vertOrigin = 25;
vertWidth = 1362;
width = 734;
}
);
leftMetricsKey = u1B176;
rightMetricsKey = u1B17E;
unicode = 1B192;
},
{
glyphname = u1B193;
lastChange = "2020-04-13 08:29:09 +0000";
layers = (
{
layerId = "CFFEBDE4-599A-46B2-9328-D96E42CD9C81";
paths = (
{
closed = 1;
nodes = (
"140 29 OFFCURVE",
"163 46 OFFCURVE",
"163 85 CURVE SMOOTH",
"163 124 OFFCURVE",
"140 141 OFFCURVE",
"112 141 CURVE SMOOTH",
"83 141 OFFCURVE",
"60 124 OFFCURVE",
"60 85 CURVE SMOOTH",
"60 46 OFFCURVE",
"83 29 OFFCURVE",
"112 29 CURVE SMOOTH"
);
},
{
closed = 1;
nodes = (
"448 409 OFFCURVE",
"471 426 OFFCURVE",
"471 465 CURVE SMOOTH",
"471 504 OFFCURVE",
"448 521 OFFCURVE",
"420 521 CURVE SMOOTH",
"391 521 OFFCURVE",
"368 504 OFFCURVE",
"368 465 CURVE SMOOTH",
"368 426 OFFCURVE",
"391 409 OFFCURVE",
"420 409 CURVE SMOOTH"
);
},
{
closed = 1;
nodes = (
"694 863 LINE",
"648 587 OFFCURVE",
"593 361 OFFCURVE",
"517 160 CURVE SMOOTH",
"489 87 OFFCURVE",
"463 26 OFFCURVE",
"442 -28 CURVE",
"438 -28 LINE",
"424 20 OFFCURVE",
"405 72 OFFCURVE",
"376 136 CURVE SMOOTH",
"339 217 OFFCURVE",
"298 294 OFFCURVE",
"248 370 CURVE",
"184 329 LINE",
"270 192 OFFCURVE",
"322 86 OFFCURVE",
"386 -83 CURVE",
"486 -89 LINE",
"611 156 OFFCURVE",
"700 428 OFFCURVE",
"769 854 CURVE"
);
}
);
vertOrigin = 24;
vertWidth = 1362;
width = 849;
}
);
leftMetricsKey = u1B188;
rightMetricsKey = u1B188;
unicode = 1B193;
},
{
glyphname = u1B194;
lastChange = "2020-04-13 08:29:04 +0000";
layers = (
{
layerId = "CFFEBDE4-599A-46B2-9328-D96E42CD9C81";
paths = (
{
closed = 1;
nodes = (
"496 168 LINE",
"435 56 OFFCURVE",
"377 -30 OFFCURVE",
"287 -148 CURVE",
"344 -192 LINE",
"433 -78 OFFCURVE",
"492 14 OFFCURVE",
"555 134 CURVE"
);
},
{
closed = 1;
nodes = (
"471 939 LINE",
"415 831 OFFCURVE",
"358 736 OFFCURVE",
"294 642 CURVE",
"264 605 LINE",
"207 525 OFFCURVE",
"144 445 OFFCURVE",
"70 360 CURVE",
"129 312 LINE",
"196 389 OFFCURVE",
"255 462 OFFCURVE",
"309 537 CURVE",
"336 569 LINE",
"408 671 OFFCURVE",
"474 779 OFFCURVE",
"541 908 CURVE"
);
},
{
closed = 1;
nodes = (
"606 711 LINE",
"547 607 OFFCURVE",
"484 508 OFFCURVE",
"414 410 CURVE",
"384 375 LINE",
"320 289 OFFCURVE",
"249 203 OFFCURVE",
"170 114 CURVE",
"227 66 LINE",
"299 148 OFFCURVE",
"364 227 OFFCURVE",
"425 308 CURVE",
"454 341 LINE",
"533 447 OFFCURVE",
"604 556 OFFCURVE",
"673 678 CURVE"
);
},
{
closed = 1;
nodes = (
"110 829 LINE",
"338 468 OFFCURVE",
"485 144 OFFCURVE",
"626 -203 CURVE",
"696 -175 LINE",
"549 199 OFFCURVE",
"393 512 OFFCURVE",
"174 870 CURVE"
);
}
);
vertOrigin = 25;
vertWidth = 1362;
width = 786;
}
);
leftMetricsKey = u1B17B;
unicode = 1B194;
},
{
glyphname = u1B195;
lastChange = "2020-04-13 08:29:01 +0000";
layers = (
{
layerId = "CFFEBDE4-599A-46B2-9328-D96E42CD9C81";
paths = (
{
closed = 1;
nodes = (
"735 509 OFFCURVE",
"758 526 OFFCURVE",
"758 565 CURVE SMOOTH",
"758 604 OFFCURVE",
"735 621 OFFCURVE",
"707 621 CURVE SMOOTH",
"678 621 OFFCURVE",
"655 604 OFFCURVE",
"655 565 CURVE SMOOTH",
"655 526 OFFCURVE",
"678 509 OFFCURVE",
"707 509 CURVE SMOOTH"
);
},
{
closed = 1;
nodes = (
"160 386 OFFCURVE",
"183 403 OFFCURVE",
"183 442 CURVE SMOOTH",
"183 481 OFFCURVE",
"160 498 OFFCURVE",
"132 498 CURVE SMOOTH",
"103 498 OFFCURVE",
"80 481 OFFCURVE",
"80 442 CURVE SMOOTH",
"80 403 OFFCURVE",
"103 386 OFFCURVE",
"132 386 CURVE SMOOTH"
);
},
{
closed = 1;
nodes = (
"754 -72 LINE",
"665 154 OFFCURVE",
"570 313 OFFCURVE",
"433 504 CURVE",
"418 395 LINE",
"526 235 OFFCURVE",
"609 84 OFFCURVE",
"682 -101 CURVE"
);
},
{
closed = 1;
nodes = (
"403 939 LINE",
"402 465 OFFCURVE",
"311 114 OFFCURVE",
"146 -169 CURVE",
"214 -203 LINE",
"376 82 OFFCURVE",
"478 443 OFFCURVE",
"481 938 CURVE"
);
}
);
vertOrigin = 25;
vertWidth = 1362;
width = 838;
}
);
leftMetricsKey = u1B176;
unicode = 1B195;
},
{
glyphname = u1B196;
lastChange = "2020-04-13 08:28:58 +0000";
layers = (
{
layerId = "CFFEBDE4-599A-46B2-9328-D96E42CD9C81";
paths = (
{
closed = 1;
nodes = (
"457 742 OFFCURVE",
"428 593 OFFCURVE",
"390 449 CURVE",
"372 399 LINE",
"322 223 OFFCURVE",
"255 49 OFFCURVE",
"152 -172 CURVE",
"219 -203 LINE",
"306 -17 OFFCURVE",
"371 147 OFFCURVE",
"422 309 CURVE",
"439 353 LINE",
"465 440 OFFCURVE",
"488 528 OFFCURVE",
"507 619 CURVE SMOOTH",
"524 702 OFFCURVE",
"538 776 OFFCURVE",
"542 853 CURVE",
"546 854 LINE",
"578 772 OFFCURVE",
"605 697 OFFCURVE",
"633 594 CURVE",
"705 612 LINE",
"669 732 OFFCURVE",
"635 820 OFFCURVE",
"578 934 CURVE",
"487 925 LINE"
);
},
{
closed = 1;
nodes = (
"228 606 OFFCURVE",
"274 544 OFFCURVE",
"306 488 CURVE SMOOTH",
"415 298 OFFCURVE",
"503 112 OFFCURVE",
"575 -109 CURVE",
"646 -85 LINE",
"536 239 OFFCURVE",
"408 484 OFFCURVE",
"212 772 CURVE",
"128 752 LINE",
"113 585 OFFCURVE",
"100 491 OFFCURVE",
"80 390 CURVE",
"153 378 LINE",
"171 479 OFFCURVE",
"185 573 OFFCURVE",
"187 680 CURVE",
"191 681 LINE"
);
}
);
vertOrigin = 25;
vertWidth = 1362;
width = 765;
}
);
unicode = 1B196;
},
{
glyphname = u1B197;
lastChange = "2020-04-13 08:18:20 +0000";
layers = (
{
background = {
paths = (
{
closed = 1;
nodes = (
"474 939 LINE",
"361 688 OFFCURVE",
"236 502 OFFCURVE",
"80 318 CURVE",
"147 264 LINE",
"308 450 OFFCURVE",
"426 633 OFFCURVE",
"554 906 CURVE"
);
},
{
closed = 1;
nodes = (
"662 286 LINE",
"575 132 OFFCURVE",
"463 -12 OFFCURVE",
"331 -142 CURVE",
"389 -203 LINE",
"532 -57 OFFCURVE",
"643 80 OFFCURVE",
"737 243 CURVE"
);
},
{
closed = 1;
nodes = (
"560 -1 LINE",
"479 289 OFFCURVE",
"364 562 OFFCURVE",
"207 863 CURVE",
"131 823 LINE",
"296 518 OFFCURVE",
"402 239 OFFCURVE",
"483 -29 CURVE"
);
},
{
closed = 1;
nodes = (
"549 573 LINE",
"448 394 OFFCURVE",
"336 236 OFFCURVE",
"200 87 CURVE",
"263 31 LINE",
"399 180 OFFCURVE",
"515 343 OFFCURVE",
"623 532 CURVE"
);
}
);
};
layerId = "CFFEBDE4-599A-46B2-9328-D96E42CD9C81";
paths = (
{
closed = 1;
nodes = (
"474 939 LINE",
"420 818 OFFCURVE",
"362 712 OFFCURVE",
"300 615 CURVE",
"272 577 LINE",
"213 488 OFFCURVE",
"150 405 OFFCURVE",
"80 323 CURVE",
"138 275 LINE",
"202 349 OFFCURVE",
"259 422 OFFCURVE",
"313 501 CURVE",
"343 541 LINE",
"413 648 OFFCURVE",
"478 766 OFFCURVE",
"545 910 CURVE"
);
},
{
closed = 1;
nodes = (
"673 280 LINE",
"586 126 OFFCURVE",
"468 -20 OFFCURVE",
"336 -150 CURVE",
"389 -203 LINE",
"532 -57 OFFCURVE",
"643 80 OFFCURVE",
"737 243 CURVE"
);
},
{
closed = 1;
nodes = (
"550 -4 LINE",
"469 286 OFFCURVE",
"354 557 OFFCURVE",
"197 858 CURVE",
"131 823 LINE",
"296 518 OFFCURVE",
"402 239 OFFCURVE",
"483 -29 CURVE"
);
},
{
closed = 1;
nodes = (
"552 570 LINE",
"510 495 OFFCURVE",
"465 423 OFFCURVE",
"418 355 CURVE",
"388 317 LINE",
"331 238 OFFCURVE",
"270 162 OFFCURVE",
"203 89 CURVE",
"258 39 LINE",
"316 103 OFFCURVE",
"371 170 OFFCURVE",
"423 240 CURVE",
"449 270 LINE",
"508 353 OFFCURVE",
"564 441 OFFCURVE",
"618 535 CURVE"
);
}
);
vertOrigin = 25;
vertWidth = 1362;
width = 817;
}
);
leftMetricsKey = u1B180;
unicode = 1B197;
},
{
glyphname = u1B198;
lastChange = "2020-04-13 08:27:52 +0000";
layers = (
{
layerId = "CFFEBDE4-599A-46B2-9328-D96E42CD9C81";
paths = (
{
closed = 1;
nodes = (
"378 359 OFFCURVE",
"409 292 OFFCURVE",
"485 241 CURVE",
"560 247 LINE",
"608 316 OFFCURVE",
"626 378 OFFCURVE",
"626 440 CURVE SMOOTH",
"626 556 OFFCURVE",
"582 658 OFFCURVE",
"421 851 CURVE",
"387 777 LINE",
"515 621 OFFCURVE",
"552 546 OFFCURVE",
"552 440 CURVE SMOOTH",
"552 386 OFFCURVE",
"541 339 OFFCURVE",
"518 294 CURVE",
"514 294 LINE",
"472 339 OFFCURVE",
"452 376 OFFCURVE",
"452 434 CURVE SMOOTH",
"452 492 OFFCURVE",
"472 543 OFFCURVE",
"541 627 CURVE",
"515 679 LINE",
"408 568 OFFCURVE",
"378 497 OFFCURVE",
"378 429 CURVE SMOOTH"
);
},
{
closed = 1;
nodes = (
"447 939 LINE",
"356 789 OFFCURVE",
"247 669 OFFCURVE",
"120 550 CURVE",
"162 417 OFFCURVE",
"175 311 OFFCURVE",
"175 187 CURVE SMOOTH",
"175 51 OFFCURVE",
"158 -64 OFFCURVE",
"120 -182 CURVE",
"191 -203 LINE",
"235 -77 OFFCURVE",
"251 46 OFFCURVE",
"251 187 CURVE SMOOTH",
"251 315 OFFCURVE",
"234 431 OFFCURVE",
"196 568 CURVE",
"190 512 LINE",
"310 626 OFFCURVE",
"420 745 OFFCURVE",
"515 903 CURVE"
);
}
);
vertOrigin = 25;
vertWidth = 1362;
width = 726;
}
);
leftMetricsKey = u1B17E;
rightMetricsKey = u1B18D;
unicode = 1B198;
},
{
glyphname = u1B199;
lastChange = "2020-04-13 08:30:01 +0000";
layers = (
{
layerId = "CFFEBDE4-599A-46B2-9328-D96E42CD9C81";
paths = (
{
closed = 1;
nodes = (
"375 403 LINE",
"319 178 OFFCURVE",
"248 27 OFFCURVE",
"129 -146 CURVE",
"191 -186 LINE",
"313 -6 OFFCURVE",
"389 143 OFFCURVE",
"449 387 CURVE"
);
},
{
closed = 1;
nodes = (
"373 245 LINE",
"484 99 OFFCURVE",
"552 -24 OFFCURVE",
"615 -168 CURVE",
"684 -136 LINE",
"610 24 OFFCURVE",
"536 156 OFFCURVE",
"421 303 CURVE"
);
},
{
closed = 1;
nodes = (
"355 919 LINE",
"293 671 OFFCURVE",
"222 523 OFFCURVE",
"80 344 CURVE",
"139 299 LINE",
"284 479 OFFCURVE",
"366 651 OFFCURVE",
"429 903 CURVE"
);
},
{
closed = 1;
nodes = (
"362 769 LINE",
"476 633 OFFCURVE",
"563 502 OFFCURVE",
"650 325 CURVE",
"719 357 LINE",
"617 559 OFFCURVE",
"532 679 OFFCURVE",
"407 834 CURVE"
);
}
);
vertOrigin = 25;
vertWidth = 1362;
width = 809;
}
);
leftMetricsKey = u1B185;
rightMetricsKey = u1B185;
unicode = 1B199;
},
{
glyphname = u1B19A;
lastChange = "2020-04-13 08:30:27 +0000";
layers = (
{
layerId = "CFFEBDE4-599A-46B2-9328-D96E42CD9C81";
paths = (
{
closed = 1;
nodes = (
"617 939 LINE",
"539 676 OFFCURVE",
"429 515 OFFCURVE",
"266 371 CURVE",
"311 320 LINE",
"505 481 OFFCURVE",
"604 642 OFFCURVE",
"690 917 CURVE"
);
},
{
closed = 1;
nodes = (
"200 614 OFFCURVE",
"227 471 OFFCURVE",
"227 291 CURVE SMOOTH",
"227 114 OFFCURVE",
"208 -12 OFFCURVE",
"146 -180 CURVE",
"216 -203 LINE",
"279 -32 OFFCURVE",
"303 108 OFFCURVE",
"303 291 CURVE SMOOTH",
"303 481 OFFCURVE",
"268 642 OFFCURVE",
"188 820 CURVE",
"120 792 LINE"
);
},
{
closed = 1;
nodes = (
"585 -107 LINE",
"657 11 OFFCURVE",
"708 144 OFFCURVE",
"748 294 CURVE",
"674 313 LINE",
"635 162 OFFCURVE",
"596 62 OFFCURVE",
"547 -43 CURVE",
"541 -43 LINE",
"528 31 OFFCURVE",
"505 88 OFFCURVE",
"481 141 CURVE SMOOTH",
"447 215 OFFCURVE",
"394 298 OFFCURVE",
"327 371 CURVE",
"280 329 LINE",
"386 191 OFFCURVE",
"445 56 OFFCURVE",
"491 -96 CURVE"
);
}
);
vertOrigin = 25;
vertWidth = 1362;
width = 828;
}
);
leftMetricsKey = u1B186;
unicode = 1B19A;
},
{
glyphname = u1B19B;
lastChange = "2020-04-13 08:21:42 +0000";
layers = (
{
layerId = "CFFEBDE4-599A-46B2-9328-D96E42CD9C81";
paths = (
{
closed = 1;
nodes = (
"180 50 OFFCURVE",
"203 67 OFFCURVE",
"203 106 CURVE SMOOTH",
"203 145 OFFCURVE",
"180 162 OFFCURVE",
"152 162 CURVE SMOOTH",
"123 162 OFFCURVE",
"100 145 OFFCURVE",
"100 106 CURVE SMOOTH",
"100 67 OFFCURVE",
"123 50 OFFCURVE",
"152 50 CURVE SMOOTH"
);
},
{
closed = 1;
nodes = (
"246 259 OFFCURVE",
"269 276 OFFCURVE",
"269 315 CURVE SMOOTH",
"269 354 OFFCURVE",
"246 371 OFFCURVE",
"218 371 CURVE SMOOTH",
"189 371 OFFCURVE",
"166 354 OFFCURVE",
"166 315 CURVE SMOOTH",
"166 276 OFFCURVE",
"189 259 OFFCURVE",
"218 259 CURVE SMOOTH"
);
},
{
closed = 1;
nodes = (
"676 -89 LINE",
"622 74 OFFCURVE",
"549 244 OFFCURVE",
"480 369 CURVE",
"452 399 LINE",
"374 543 OFFCURVE",
"310 644 OFFCURVE",
"220 763 CURVE",
"160 717 LINE",
"258 587 OFFCURVE",
"333 470 OFFCURVE",
"419 305 CURVE",
"448 270 LINE",
"502 162 OFFCURVE",
"561 24 OFFCURVE",
"605 -110 CURVE"
);
},
{
closed = 1;
nodes = (
"556 939 LINE",
"502 543 OFFCURVE",
"375 176 OFFCURVE",
"207 -172 CURVE",
"274 -203 LINE",
"440 141 OFFCURVE",
"574 514 OFFCURVE",
"631 928 CURVE"
);
}
);
vertOrigin = 25;
vertWidth = 1362;
width = 776;
}
);
rightMetricsKey = u1B175;
unicode = 1B19B;
},
{
glyphname = u1B19C;
lastChange = "2020-04-13 08:30:31 +0000";
layers = (
{
layerId = "CFFEBDE4-599A-46B2-9328-D96E42CD9C81";
paths = (
{
closed = 1;
nodes = (
"634 406 LINE",
"558 305 OFFCURVE",
"538 221 OFFCURVE",
"538 125 CURVE SMOOTH",
"538 27 OFFCURVE",
"562 -58 OFFCURVE",
"630 -129 CURVE",
"686 -84 LINE",
"634 -19 OFFCURVE",
"614 45 OFFCURVE",
"614 126 CURVE SMOOTH",
"614 202 OFFCURVE",
"634 282 OFFCURVE",
"693 365 CURVE"
);
},
{
closed = 1;
nodes = (
"196 -203 LINE",
"239 -133 OFFCURVE",
"256 -65 OFFCURVE",
"256 26 CURVE SMOOTH",
"256 122 OFFCURVE",
"227 188 OFFCURVE",
"154 276 CURVE",
"100 232 LINE",
"161 162 OFFCURVE",
"182 104 OFFCURVE",
"182 26 CURVE SMOOTH",
"182 -62 OFFCURVE",
"169 -115 OFFCURVE",
"136 -170 CURVE"
);
},
{
closed = 1;
nodes = (
"576 907 LINE",
"534 737 OFFCURVE",
"494 607 OFFCURVE",
"451 493 CURVE SMOOTH",
"419 412 OFFCURVE",
"393 354 OFFCURVE",
"358 285 CURVE",
"354 285 LINE",
"326 359 OFFCURVE",
"298 416 OFFCURVE",
"272 465 CURVE SMOOTH",
"245 516 OFFCURVE",
"208 569 OFFCURVE",
"179 612 CURVE",
"119 573 LINE",
"191 465 OFFCURVE",
"249 366 OFFCURVE",
"307 238 CURVE",
"402 232 LINE",
"508 417 OFFCURVE",
"570 578 OFFCURVE",
"650 892 CURVE"
);
}
);
vertOrigin = 25;
vertWidth = 1362;
width = 793;
}
);
leftMetricsKey = u1B174;
rightMetricsKey = u1B174;
unicode = 1B19C;
},
{
glyphname = u1B19D;
lastChange = "2020-04-13 08:30:34 +0000";
layers = (
{
layerId = "CFFEBDE4-599A-46B2-9328-D96E42CD9C81";
paths = (
{
closed = 1;
nodes = (
"547 591 LINE",
"466 316 OFFCURVE",
"350 95 OFFCURVE",
"182 -162 CURVE",
"247 -203 LINE",
"419 64 OFFCURVE",
"524 266 OFFCURVE",
"612 541 CURVE"
);
},
{
closed = 1;
nodes = (
"227 475 LINE",
"365 280 OFFCURVE",
"475 91 OFFCURVE",
"566 -123 CURVE",
"635 -93 LINE",
"528 152 OFFCURVE",
"411 346 OFFCURVE",
"269 541 CURVE"
);
},
{
closed = 1;
nodes = (
"364 939 LINE",
"297 686 OFFCURVE",
"219 506 OFFCURVE",
"80 297 CURVE",
"143 255 LINE",
"282 466 OFFCURVE",
"363 639 OFFCURVE",
"438 922 CURVE"
);
},
{
closed = 1;
nodes = (
"354 812 LINE",
"489 644 OFFCURVE",
"596 491 OFFCURVE",
"700 303 CURVE",
"767 343 LINE",
"658 534 OFFCURVE",
"552 690 OFFCURVE",
"394 879 CURVE"
);
}
);
vertOrigin = 25;
vertWidth = 1362;
width = 857;
}
);
leftMetricsKey = u1B185;
rightMetricsKey = u1B185;
unicode = 1B19D;
},
{
glyphname = u1B19E;
lastChange = "2020-04-13 08:30:38 +0000";
layers = (
{
layerId = "CFFEBDE4-599A-46B2-9328-D96E42CD9C81";
paths = (
{
closed = 1;
nodes = (
"508 15 OFFCURVE",
"503 102 OFFCURVE",
"485 207 CURVE SMOOTH",
"455 378 OFFCURVE",
"407 552 OFFCURVE",
"345 694 CURVE",
"292 636 LINE",
"378 420 OFFCURVE",
"428 159 OFFCURVE",
"444 -122 CURVE",
"531 -153 LINE",
"636 -41 OFFCURVE",
"712 60 OFFCURVE",
"804 204 CURVE",
"739 241 LINE",
"659 108 OFFCURVE",
"592 22 OFFCURVE",
"515 -77 CURVE",
"509 -75 LINE"
);
},
{
closed = 1;
nodes = (
"476 939 LINE",
"362 743 OFFCURVE",
"232 580 OFFCURVE",
"60 428 CURVE",
"110 370 LINE",
"279 522 OFFCURVE",
"427 701 OFFCURVE",
"543 903 CURVE"
);
},
{
closed = 1;
nodes = (
"613 666 LINE",
"550 572 OFFCURVE",
"487 491 OFFCURVE",
"421 416 CURVE",
"386 384 LINE",
"321 315 OFFCURVE",
"253 251 OFFCURVE",
"178 186 CURVE",
"229 130 LINE",
"295 188 OFFCURVE",
"357 245 OFFCURVE",
"417 307 CURVE",
"446 332 LINE",
"525 417 OFFCURVE",
"601 511 OFFCURVE",
"677 625 CURVE"
);
}
);
vertOrigin = 25;
vertWidth = 1362;
width = 884;
}
);
leftMetricsKey = u1B187;
unicode = 1B19E;
},
{
glyphname = u1B19F;
lastChange = "2020-04-13 08:30:44 +0000";
layers = (
{
layerId = "CFFEBDE4-599A-46B2-9328-D96E42CD9C81";
paths = (
{
closed = 1;
nodes = (
"90 385 LINE",
"121 275 OFFCURVE",
"141 184 OFFCURVE",
"153 76 CURVE",
"223 86 LINE",
"212 198 OFFCURVE",
"191 292 OFFCURVE",
"158 404 CURVE"
);
},
{
closed = 1;
nodes = (
"197 495 LINE",
"336 303 OFFCURVE",
"448 116 OFFCURVE",
"562 -107 CURVE",
"628 -74 LINE",
"573 36 OFFCURVE",
"519 129 OFFCURVE",
"440 260 CURVE",
"423 260 LINE",
"386 354 OFFCURVE",
"334 438 OFFCURVE",
"236 576 CURVE",
"248 499 LINE",
"324 625 OFFCURVE",
"362 704 OFFCURVE",
"392 798 CURVE",
"415 839 LINE",
"424 864 OFFCURVE",
"433 892 OFFCURVE",
"442 918 CURVE",
"369 939 LINE",
"318 786 OFFCURVE",
"267 678 OFFCURVE",
"197 566 CURVE"
);
},
{
closed = 1;
nodes = (
"396 798 LINE",
"448 718 OFFCURVE",
"477 628 OFFCURVE",
"477 536 CURVE SMOOTH",
"477 451 OFFCURVE",
"460 357 OFFCURVE",
"427 260 CURVE",
"415 260 LINE",
"359 127 OFFCURVE",
"280 4 OFFCURVE",
"158 -159 CURVE",
"220 -203 LINE",
"322 -64 OFFCURVE",
"393 54 OFFCURVE",
"444 154 CURVE",
"468 189 LINE",
"531 318 OFFCURVE",
"553 423 OFFCURVE",
"553 536 CURVE SMOOTH",
"553 662 OFFCURVE",
"513 766 OFFCURVE",
"408 889 CURVE",
"365 798 LINE"
);
}
);
vertOrigin = 25;
vertWidth = 1362;
width = 738;
}
);
rightMetricsKey = u1B17C;
unicode = 1B19F;
},
{
glyphname = u1B1A0;
lastChange = "2020-04-13 08:30:47 +0000";
layers = (
{
layerId = "CFFEBDE4-599A-46B2-9328-D96E42CD9C81";
paths = (
{
closed = 1;
nodes = (
"416 248 LINE",
"458 381 OFFCURVE",
"484 485 OFFCURVE",
"505 596 CURVE SMOOTH",
"521 682 OFFCURVE",
"536 762 OFFCURVE",
"539 861 CURVE",
"545 862 LINE",
"579 765 OFFCURVE",
"601 711 OFFCURVE",
"633 594 CURVE",
"705 612 LINE",
"669 735 OFFCURVE",
"633 825 OFFCURVE",
"578 939 CURVE",
"487 925 LINE",
"457 722 OFFCURVE",
"428 553 OFFCURVE",
"386 401 CURVE"
);
},
{
closed = 1;
nodes = (
"474 363 OFFCURVE",
"374 594 OFFCURVE",
"204 782 CURVE",
"128 759 LINE",
"115 602 OFFCURVE",
"100 491 OFFCURVE",
"80 390 CURVE",
"153 379 LINE",
"171 480 OFFCURVE",
"187 594 OFFCURVE",
"184 697 CURVE",
"190 699 LINE",
"249 611 OFFCURVE",
"292 545 OFFCURVE",
"329 456 CURVE SMOOTH",
"384 325 OFFCURVE",
"398 217 OFFCURVE",
"398 56 CURVE SMOOTH",
"398 -38 OFFCURVE",
"394 -105 OFFCURVE",
"383 -196 CURVE",
"457 -203 LINE",
"467 -124 OFFCURVE",
"474 -46 OFFCURVE",
"474 56 CURVE SMOOTH"
);
}
);
vertOrigin = 25;
vertWidth = 1362;
width = 765;
}
);
leftMetricsKey = u1B196;
rightMetricsKey = u1B196;
unicode = 1B1A0;
},
{
glyphname = u1B1A1;
lastChange = "2020-04-13 08:30:50 +0000";
layers = (
{
layerId = "CFFEBDE4-599A-46B2-9328-D96E42CD9C81";
paths = (
{
closed = 1;
nodes = (
"541 870 LINE",
"409 567 OFFCURVE",
"263 345 OFFCURVE",
"60 90 CURVE",
"119 43 LINE",
"322 295 OFFCURVE",
"473 523 OFFCURVE",
"612 843 CURVE"
);
},
{
closed = 1;
nodes = (
"202 554 OFFCURVE",
"225 571 OFFCURVE",
"225 610 CURVE SMOOTH",
"225 649 OFFCURVE",
"202 666 OFFCURVE",
"174 666 CURVE SMOOTH",
"145 666 OFFCURVE",
"122 649 OFFCURVE",
"122 610 CURVE SMOOTH",
"122 571 OFFCURVE",
"145 554 OFFCURVE",
"174 554 CURVE SMOOTH"
);
},
{
closed = 1;
nodes = (
"267 315 LINE",
"291 187 OFFCURVE",
"303 47 OFFCURVE",
"309 -122 CURVE",
"396 -153 LINE",
"507 -49 OFFCURVE",
"588 69 OFFCURVE",
"692 261 CURVE",
"627 297 LINE",
"591 231 OFFCURVE",
"559 174 OFFCURVE",
"529 125 CURVE SMOOTH",
"474 36 OFFCURVE",
"437 -12 OFFCURVE",
"380 -75 CURVE",
"375 -74 LINE",
"378 10 OFFCURVE",
"373 87 OFFCURVE",
"366 149 CURVE SMOOTH",
"356 237 OFFCURVE",
"341 326 OFFCURVE",
"322 415 CURVE"
);
}
);
vertOrigin = 25;
vertWidth = 1362;
width = 772;
}
);
leftMetricsKey = u1B183;
rightMetricsKey = u1B19E;
unicode = 1B1A1;
},
{
glyphname = u1B1A2;
lastChange = "2020-04-13 08:30:53 +0000";
layers = (
{
layerId = "CFFEBDE4-599A-46B2-9328-D96E42CD9C81";
paths = (
{
closed = 1;
nodes = (
"351 -64 LINE",
"322 9 OFFCURVE",
"299 69 OFFCURVE",
"266 139 CURVE SMOOTH",
"229 218 OFFCURVE",
"188 296 OFFCURVE",
"145 373 CURVE",
"80 336 LINE",
"157 200 OFFCURVE",
"234 45 OFFCURVE",
"294 -112 CURVE",
"395 -126 LINE",
"564 112 OFFCURVE",
"688 348 OFFCURVE",
"783 621 CURVE",
"713 644 LINE",
"653 472 OFFCURVE",
"574 303 OFFCURVE",
"492 157 CURVE SMOOTH",
"445 73 OFFCURVE",
"404 15 OFFCURVE",
"355 -64 CURVE"
);
},
{
closed = 1;
nodes = (
"510 896 LINE",
"462 726 OFFCURVE",
"417 588 OFFCURVE",
"365 458 CURVE",
"345 421 LINE",
"310 339 OFFCURVE",
"273 259 OFFCURVE",
"230 174 CURVE",
"268 99 LINE",
"312 180 OFFCURVE",
"349 255 OFFCURVE",
"382 328 CURVE",
"407 373 LINE",
"476 532 OFFCURVE",
"527 686 OFFCURVE",
"583 879 CURVE"
);
},
{
closed = 1;
nodes = (
"158 699 LINE",
"282 496 OFFCURVE",
"372 320 OFFCURVE",
"466 85 CURVE",
"522 139 LINE",
"430 372 OFFCURVE",
"345 529 OFFCURVE",
"224 737 CURVE"
);
}
);
vertOrigin = 25;
vertWidth = 1362;
width = 873;
}
);
leftMetricsKey = u1B19D;
rightMetricsKey = u1B19D;
unicode = 1B1A2;
},
{
glyphname = u1B1A3;
lastChange = "2020-04-13 08:30:56 +0000";
layers = (
{
layerId = "CFFEBDE4-599A-46B2-9328-D96E42CD9C81";
paths = (
{
closed = 1;
nodes = (
"322 -203 LINE",
"468 -38 OFFCURVE",
"518 102 OFFCURVE",
"518 285 CURVE SMOOTH",
"518 450 OFFCURVE",
"468 561 OFFCURVE",
"337 735 CURVE",
"279 686 LINE",
"398 540 OFFCURVE",
"442 428 OFFCURVE",
"442 282 CURVE SMOOTH",
"442 116 OFFCURVE",
"397 -12 OFFCURVE",
"266 -158 CURVE"
);
},
{
closed = 1;
nodes = (
"436 939 LINE",
"324 782 OFFCURVE",
"213 666 OFFCURVE",
"70 548 CURVE",
"115 492 LINE",
"259 611 OFFCURVE",
"377 731 OFFCURVE",
"497 896 CURVE"
);
},
{
closed = 1;
nodes = (
"604 741 LINE",
"545 666 OFFCURVE",
"491 606 OFFCURVE",
"436 552 CURVE",
"403 525 LINE",
"342 467 OFFCURVE",
"277 414 OFFCURVE",
"199 356 CURVE",
"242 297 LINE",
"313 351 OFFCURVE",
"376 402 OFFCURVE",
"434 456 CURVE",
"466 481 LINE",
"532 545 OFFCURVE",
"594 613 OFFCURVE",
"662 695 CURVE"
);
},
{
closed = 1;
nodes = (
"166 115 LINE",
"248 74 OFFCURVE",
"323 31 OFFCURVE",
"391 -12 CURVE",
"425 -31 LINE",
"494 -75 OFFCURVE",
"557 -121 OFFCURVE",
"616 -169 CURVE",
"661 -112 LINE",
"592 -58 OFFCURVE",
"524 -9 OFFCURVE",
"452 38 CURVE",
"415 59 LINE",
"348 102 OFFCURVE",
"277 142 OFFCURVE",
"198 182 CURVE"
);
}
);
vertOrigin = 25;
vertWidth = 1362;
width = 772;
}
);
unicode = 1B1A3;
},
{
glyphname = u1B1A4;
lastChange = "2020-04-13 08:30:59 +0000";
layers = (
{
layerId = "CFFEBDE4-599A-46B2-9328-D96E42CD9C81";
paths = (
{
closed = 1;
nodes = (
"290 384 OFFCURVE",
"454 268 OFFCURVE",
"573 160 CURVE",
"579 205 LINE",
"494 53 OFFCURVE",
"445 -24 OFFCURVE",
"341 -160 CURVE",
"398 -203 LINE",
"511 -56 OFFCURVE",
"570 34 OFFCURVE",
"655 191 CURVE",
"502 327 OFFCURVE",
"339 441 OFFCURVE",
"179 548 CURVE",
"178 514 LINE",
"257 632 OFFCURVE",
"324 748 OFFCURVE",
"402 906 CURVE",
"333 939 LINE",
"259 788 OFFCURVE",
"195 676 OFFCURVE",
"90 516 CURVE"
);
},
{
closed = 1;
nodes = (
"527 680 LINE",
"472 582 OFFCURVE",
"419 491 OFFCURVE",
"364 403 CURVE",
"334 365 LINE",
"270 268 OFFCURVE",
"213 195 OFFCURVE",
"143 112 CURVE",
"200 62 LINE",
"273 149 OFFCURVE",
"328 225 OFFCURVE",
"387 317 CURVE",
"418 353 LINE",
"480 446 OFFCURVE",
"537 540 OFFCURVE",
"594 645 CURVE"
);
}
);
vertOrigin = 25;
vertWidth = 1362;
width = 745;
}
);
unicode = 1B1A4;
},
{
glyphname = u1B1A5;
lastChange = "2020-04-13 08:31:02 +0000";
layers = (
{
layerId = "CFFEBDE4-599A-46B2-9328-D96E42CD9C81";
paths = (
{
closed = 1;
nodes = (
"577 655 LINE",
"535 603 OFFCURVE",
"495 558 OFFCURVE",
"454 517 CURVE",
"421 488 LINE",
"357 428 OFFCURVE",
"287 376 OFFCURVE",
"201 319 CURVE",
"238 257 LINE",
"312 303 OFFCURVE",
"378 350 OFFCURVE",
"439 403 CURVE",
"474 431 LINE",
"531 483 OFFCURVE",
"583 541 OFFCURVE",
"636 608 CURVE"
);
},
{
closed = 1;
nodes = (
"321 716 LINE",
"416 476 OFFCURVE",
"455 297 OFFCURVE",
"477 87 CURVE",
"551 93 LINE",
"524 327 OFFCURVE",
"480 514 OFFCURVE",
"374 778 CURVE"
);
},
{
closed = 1;
nodes = (
"447 939 LINE",
"356 789 OFFCURVE",
"247 669 OFFCURVE",
"120 550 CURVE",
"162 417 OFFCURVE",
"175 311 OFFCURVE",
"175 187 CURVE SMOOTH",
"175 51 OFFCURVE",
"158 -64 OFFCURVE",
"120 -182 CURVE",
"191 -203 LINE",
"235 -77 OFFCURVE",
"251 46 OFFCURVE",
"251 187 CURVE SMOOTH",
"251 315 OFFCURVE",
"234 431 OFFCURVE",
"196 568 CURVE",
"190 512 LINE",
"310 626 OFFCURVE",
"420 745 OFFCURVE",
"515 903 CURVE"
);
}
);
vertOrigin = 25;
vertWidth = 1362;
width = 726;
}
);
leftMetricsKey = u1B17E;
unicode = 1B1A5;
},
{
glyphname = u1B1A6;
lastChange = "2020-04-13 08:31:04 +0000";
layers = (
{
layerId = "CFFEBDE4-599A-46B2-9328-D96E42CD9C81";
paths = (
{
closed = 1;
nodes = (
"474 939 LINE",
"386 634 OFFCURVE",
"284 384 OFFCURVE",
"120 99 CURVE",
"186 64 LINE",
"229 139 OFFCURVE",
"266 209 OFFCURVE",
"300 277 CURVE",
"314 327 LINE",
"350 401 OFFCURVE",
"376 460 OFFCURVE",
"401 520 CURVE",
"428 566 LINE",
"471 677 OFFCURVE",
"508 787 OFFCURVE",
"547 919 CURVE"
);
},
{
closed = 1;
nodes = (
"172 769 LINE",
"239 695 OFFCURVE",
"299 624 OFFCURVE",
"355 553 CURVE",
"388 523 LINE",
"436 459 OFFCURVE",
"475 405 OFFCURVE",
"514 349 CURVE",
"536 305 LINE",
"581 238 OFFCURVE",
"626 167 OFFCURVE",
"671 91 CURVE",
"731 130 LINE",
"565 409 OFFCURVE",
"425 596 OFFCURVE",
"225 818 CURVE"
);
},
{
closed = 1;
nodes = (
"629 673 LINE",
"600 592 OFFCURVE",
"568 507 OFFCURVE",
"534 424 CURVE",
"521 376 LINE",
"495 313 OFFCURVE",
"467 249 OFFCURVE",
"430 172 CURVE",
"410 146 LINE",
"360 41 OFFCURVE",
"306 -63 OFFCURVE",
"247 -168 CURVE",
"312 -203 LINE",
"464 68 OFFCURVE",
"591 346 OFFCURVE",
"699 651 CURVE"
);
},
{
closed = 1;
nodes = (
"90 521 LINE",
"286 301 OFFCURVE",
"440 64 OFFCURVE",
"568 -168 CURVE",
"632 -135 LINE",
"578 -36 OFFCURVE",
"521 59 OFFCURVE",
"461 151 CURVE",
"443 172 LINE",
"394 241 OFFCURVE",
"356 296 OFFCURVE",
"307 363 CURVE",
"285 398 LINE",
"240 457 OFFCURVE",
"192 515 OFFCURVE",
"143 573 CURVE"
);
}
);
vertOrigin = 25;
vertWidth = 1362;
width = 831;
}
);
unicode = 1B1A6;
},
{
glyphname = u1B1A7;
lastChange = "2020-04-13 08:31:07 +0000";
layers = (
{
layerId = "CFFEBDE4-599A-46B2-9328-D96E42CD9C81";
paths = (
{
closed = 1;
nodes = (
"295 540 LINE",
"372 351 OFFCURVE",
"429 176 OFFCURVE",
"476 -19 CURVE",
"542 13 LINE",
"493 231 OFFCURVE",
"426 420 OFFCURVE",
"347 615 CURVE"
);
},
{
closed = 1;
nodes = (
"474 939 LINE",
"361 688 OFFCURVE",
"236 502 OFFCURVE",
"80 318 CURVE",
"137 271 LINE",
"298 457 OFFCURVE",
"416 638 OFFCURVE",
"544 911 CURVE"
);
},
{
closed = 1;
nodes = (
"671 280 LINE",
"584 126 OFFCURVE",
"471 -23 OFFCURVE",
"339 -153 CURVE",
"389 -203 LINE",
"532 -57 OFFCURVE",
"643 80 OFFCURVE",
"737 243 CURVE"
);
},
{
closed = 1;
nodes = (
"558 568 LINE",
"518 496 OFFCURVE",
"476 429 OFFCURVE",
"431 363 CURVE",
"397 321 LINE",
"338 238 OFFCURVE",
"274 159 OFFCURVE",
"204 82 CURVE",
"258 33 LINE",
"318 99 OFFCURVE",
"374 167 OFFCURVE",
"427 239 CURVE",
"462 279 LINE",
"518 358 OFFCURVE",
"572 442 OFFCURVE",
"623 532 CURVE"
);
}
);
vertOrigin = 25;
vertWidth = 1362;
width = 817;
}
);
leftMetricsKey = u1B197;
rightMetricsKey = u1B197;
unicode = 1B1A7;
},
{
glyphname = u1B1A8;
lastChange = "2020-04-13 08:31:10 +0000";
layers = (
{
layerId = "CFFEBDE4-599A-46B2-9328-D96E42CD9C81";
paths = (
{
closed = 1;
nodes = (
"334 -74 OFFCURVE",
"357 -57 OFFCURVE",
"357 -18 CURVE SMOOTH",
"357 21 OFFCURVE",
"334 38 OFFCURVE",
"306 38 CURVE SMOOTH",
"277 38 OFFCURVE",
"254 21 OFFCURVE",
"254 -18 CURVE SMOOTH",
"254 -57 OFFCURVE",
"277 -74 OFFCURVE",
"306 -74 CURVE SMOOTH"
);
},
{
closed = 1;
nodes = (
"712 229 OFFCURVE",
"735 246 OFFCURVE",
"735 285 CURVE SMOOTH",
"735 324 OFFCURVE",
"712 341 OFFCURVE",
"684 341 CURVE SMOOTH",
"655 341 OFFCURVE",
"632 324 OFFCURVE",
"632 285 CURVE SMOOTH",
"632 246 OFFCURVE",
"655 229 OFFCURVE",
"684 229 CURVE SMOOTH"
);
},
{
closed = 1;
nodes = (
"594 -194 LINE",
"550 179 OFFCURVE",
"483 409 OFFCURVE",
"355 692 CURVE",
"303 624 LINE",
"421 363 OFFCURVE",
"479 110 OFFCURVE",
"519 -203 CURVE"
);
},
{
closed = 1;
nodes = (
"477 939 LINE",
"363 743 OFFCURVE",
"232 578 OFFCURVE",
"60 426 CURVE",
"113 372 LINE",
"285 524 OFFCURVE",
"427 698 OFFCURVE",
"543 902 CURVE"
);
},
{
closed = 1;
nodes = (
"634 671 LINE",
"574 580 OFFCURVE",
"512 498 OFFCURVE",
"446 423 CURVE",
"415 392 LINE",
"338 306 OFFCURVE",
"255 229 OFFCURVE",
"163 156 CURVE",
"211 97 LINE",
"292 162 OFFCURVE",
"369 231 OFFCURVE",
"442 309 CURVE",
"477 343 LINE",
"554 428 OFFCURVE",
"627 522 OFFCURVE",
"698 629 CURVE"
);
}
);
vertOrigin = 25;
vertWidth = 1362;
width = 855;
}
);
leftMetricsKey = u1B187;
unicode = 1B1A8;
},
{
glyphname = u1B1A9;
lastChange = "2020-04-13 08:31:12 +0000";
layers = (
{
layerId = "CFFEBDE4-599A-46B2-9328-D96E42CD9C81";
paths = (
{
closed = 1;
nodes = (
"482 246 LINE",
"463 344 OFFCURVE",
"442 406 OFFCURVE",
"401 492 CURVE",
"343 447 LINE",
"382 356 OFFCURVE",
"398 306 OFFCURVE",
"420 204 CURVE"
);
},
{
closed = 1;
nodes = (
"661 415 LINE",
"505 298 OFFCURVE",
"343 199 OFFCURVE",
"169 115 CURVE",
"203 49 LINE",
"382 136 OFFCURVE",
"540 233 OFFCURVE",
"707 357 CURVE"
);
},
{
closed = 1;
nodes = (
"628 254 OFFCURVE",
"642 216 OFFCURVE",
"642 170 CURVE SMOOTH",
"642 80 OFFCURVE",
"549 3 OFFCURVE",
"241 -135 CURVE",
"271 -203 LINE",
"582 -63 OFFCURVE",
"718 29 OFFCURVE",
"718 174 CURVE SMOOTH",
"718 234 OFFCURVE",
"695 289 OFFCURVE",
"633 363 CURVE",
"586 313 LINE"
);
},
{
closed = 1;
nodes = (
"541 939 LINE",
"374 812 OFFCURVE",
"253 737 OFFCURVE",
"60 634 CURVE",
"94 569 LINE",
"287 672 OFFCURVE",
"420 752 OFFCURVE",
"588 882 CURVE"
);
},
{
closed = 1;
nodes = (
"517 782 OFFCURVE",
"535 736 OFFCURVE",
"535 686 CURVE SMOOTH",
"535 602 OFFCURVE",
"457 536 OFFCURVE",
"115 365 CURVE",
"148 299 LINE",
"554 494 OFFCURVE",
"611 584 OFFCURVE",
"611 686 CURVE SMOOTH",
"611 762 OFFCURVE",
"580 817 OFFCURVE",
"519 888 CURVE",
"466 842 LINE"
);
}
);
vertOrigin = 25;
vertWidth = 1362;
width = 848;
}
);
leftMetricsKey = u1B179;
rightMetricsKey = u1B179;
unicode = 1B1A9;
},
{
glyphname = u1B1AA;
lastChange = "2020-04-13 08:31:15 +0000";
layers = (
{
layerId = "CFFEBDE4-599A-46B2-9328-D96E42CD9C81";
paths = (
{
closed = 1;
nodes = (
"534 754 OFFCURVE",
"547 711 OFFCURVE",
"547 667 CURVE SMOOTH",
"547 571 OFFCURVE",
"462 504 OFFCURVE",
"156 332 CURVE",
"192 265 LINE",
"527 453 OFFCURVE",
"623 536 OFFCURVE",
"623 667 CURVE SMOOTH",
"623 738 OFFCURVE",
"597 795 OFFCURVE",
"514 884 CURVE",
"481 813 LINE"
);
},
{
closed = 1;
nodes = (
"529 -33 LINE",
"520 121 OFFCURVE",
"500 278 OFFCURVE",
"467 438 CURVE",
"399 393 LINE",
"430 229 OFFCURVE",
"444 111 OFFCURVE",
"453 -41 CURVE"
);
},
{
closed = 1;
nodes = (
"567 939 LINE",
"414 796 OFFCURVE",
"268 701 OFFCURVE",
"80 584 CURVE",
"120 522 LINE",
"308 638 OFFCURVE",
"452 731 OFFCURVE",
"619 886 CURVE"
);
},
{
closed = 1;
nodes = (
"80 -95 OFFCURVE",
"109 -143 OFFCURVE",
"177 -183 CURVE",
"248 -174 LINE",
"316 -95 OFFCURVE",
"334 -30 OFFCURVE",
"334 31 CURVE SMOOTH",
"334 91 OFFCURVE",
"300 132 OFFCURVE",
"232 170 CURVE",
"158 160 LINE",
"100 78 OFFCURVE",
"80 11 OFFCURVE",
"80 -38 CURVE SMOOTH"
);
},
{
closed = 1;
nodes = (
"204 116 LINE",
"244 84 OFFCURVE",
"259 49 OFFCURVE",
"259 20 CURVE SMOOTH",
"259 -23 OFFCURVE",
"249 -68 OFFCURVE",
"209 -132 CURVE",
"204 -133 LINE",
"169 -98 OFFCURVE",
"154 -67 OFFCURVE",
"154 -34 CURVE SMOOTH",
"154 8 OFFCURVE",
"167 52 OFFCURVE",
"199 115 CURVE"
);
}
);
vertOrigin = 25;
vertWidth = 1362;
width = 753;
}
);
rightMetricsKey = u1B179;
unicode = 1B1AA;
},
{
glyphname = u1B1AB;
lastChange = "2020-04-13 08:31:18 +0000";
layers = (
{
layerId = "CFFEBDE4-599A-46B2-9328-D96E42CD9C81";
paths = (
{
closed = 1;
nodes = (
"360 939 LINE",
"360 396 OFFCURVE",
"338 246 OFFCURVE",
"289 65 CURVE",
"363 49 LINE",
"411 239 OFFCURVE",
"417 382 OFFCURVE",
"411 522 CURVE",
"424 615 LINE",
"435 713 OFFCURVE",
"436 815 OFFCURVE",
"436 937 CURVE"
);
},
{
closed = 1;
nodes = (
"384 507 LINE",
"416 522 LINE",
"456 447 OFFCURVE",
"491 383 OFFCURVE",
"538 284 CURVE",
"605 315 LINE",
"553 429 OFFCURVE",
"493 520 OFFCURVE",
"412 629 CURVE"
);
},
{
closed = 1;
nodes = (
"446 693 OFFCURVE",
"280 566 OFFCURVE",
"120 471 CURVE",
"149 295 OFFCURVE",
"160 195 OFFCURVE",
"160 45 CURVE SMOOTH",
"160 -55 OFFCURVE",
"158 -106 OFFCURVE",
"146 -194 CURVE",
"220 -203 LINE",
"231 -112 OFFCURVE",
"234 -49 OFFCURVE",
"234 47 CURVE SMOOTH",
"234 203 OFFCURVE",
"224 308 OFFCURVE",
"190 485 CURVE",
"173 413 LINE",
"269 472 OFFCURVE",
"371 545 OFFCURVE",
"469 625 CURVE SMOOTH",
"526 672 OFFCURVE",
"573 716 OFFCURVE",
"619 771 CURVE",
"623 770 LINE",
"638 674 OFFCURVE",
"652 589 OFFCURVE",
"659 497 CURVE SMOOTH",
"663 445 OFFCURVE",
"665 392 OFFCURVE",
"665 338 CURVE SMOOTH",
"665 268 OFFCURVE",
"662 197 OFFCURVE",
"656 131 CURVE",
"730 125 LINE",
"737 209 OFFCURVE",
"739 278 OFFCURVE",
"739 344 CURVE SMOOTH",
"739 482 OFFCURVE",
"726 643 OFFCURVE",
"679 827 CURVE",
"595 842 LINE"
);
}
);
vertOrigin = 25;
vertWidth = 1362;
width = 879;
}
);
leftMetricsKey = u1B17E;
unicode = 1B1AB;
},
{
glyphname = u1B1AC;
lastChange = "2020-04-12 10:00:52 +0000";
layers = (
{
layerId = "CFFEBDE4-599A-46B2-9328-D96E42CD9C81";
paths = (
{
closed = 1;
nodes = (
"192 376 LINE",
"174 258 OFFCURVE",
"147 156 OFFCURVE",
"106 51 CURVE",
"174 26 LINE",
"216 137 OFFCURVE",
"245 239 OFFCURVE",
"266 365 CURVE"
);
},
{
closed = 1;
nodes = (
"50 216 LINE",
"135 195 OFFCURVE",
"233 161 OFFCURVE",
"313 125 CURVE",
"342 192 LINE",
"252 230 OFFCURVE",
"152 261 OFFCURVE",
"66 285 CURVE"
);
},
{
closed = 1;
nodes = (
"232 495 LINE",
"371 303 OFFCURVE",
"483 116 OFFCURVE",
"597 -107 CURVE",
"663 -74 LINE",
"608 36 OFFCURVE",
"554 129 OFFCURVE",
"475 260 CURVE",
"458 260 LINE",
"421 354 OFFCURVE",
"369 438 OFFCURVE",
"271 576 CURVE",
"283 499 LINE",
"359 625 OFFCURVE",
"397 704 OFFCURVE",
"427 798 CURVE",
"450 839 LINE",
"459 864 OFFCURVE",
"468 892 OFFCURVE",
"477 918 CURVE",
"404 939 LINE",
"353 786 OFFCURVE",
"302 678 OFFCURVE",
"232 566 CURVE"
);
},
{
closed = 1;
nodes = (
"431 798 LINE",
"483 718 OFFCURVE",
"512 628 OFFCURVE",
"512 536 CURVE SMOOTH",
"512 451 OFFCURVE",
"495 357 OFFCURVE",
"462 260 CURVE",
"450 260 LINE",
"394 127 OFFCURVE",
"325 16 OFFCURVE",
"179 -155 CURVE",
"235 -203 LINE",
"512 122 OFFCURVE",
"588 342 OFFCURVE",
"588 536 CURVE SMOOTH",
"588 662 OFFCURVE",
"548 766 OFFCURVE",
"443 889 CURVE",
"400 798 LINE"
);
}
);
vertOrigin = 25;
vertWidth = 1362;
width = 773;
}
);
rightMetricsKey = u1B17C;
unicode = 1B1AC;
},
{
glyphname = u1B1AD;
lastChange = "2020-04-13 08:32:21 +0000";
layers = (
{
layerId = "CFFEBDE4-599A-46B2-9328-D96E42CD9C81";
paths = (
{
closed = 1;
nodes = (
"415 523 LINE",
"353 407 OFFCURVE",
"257 289 OFFCURVE",
"170 205 CURVE",
"222 154 LINE",
"313 240 OFFCURVE",
"409 359 OFFCURVE",
"479 487 CURVE"
);
},
{
closed = 1;
nodes = (
"494 335 LINE",
"414 208 OFFCURVE",
"332 119 OFFCURVE",
"234 35 CURVE",
"284 -22 LINE",
"380 58 OFFCURVE",
"469 153 OFFCURVE",
"557 295 CURVE"
);
},
{
closed = 1;
nodes = (
"597 178 LINE",
"507 39 OFFCURVE",
"421 -55 OFFCURVE",
"296 -146 CURVE",
"343 -203 LINE",
"471 -108 OFFCURVE",
"564 -13 OFFCURVE",
"657 135 CURVE"
);
},
{
closed = 1;
nodes = (
"365 939 LINE",
"294 694 OFFCURVE",
"222 562 OFFCURVE",
"80 398 CURVE",
"137 348 LINE",
"286 526 OFFCURVE",
"362 655 OFFCURVE",
"441 923 CURVE"
);
},
{
closed = 1;
nodes = (
"364 784 LINE",
"488 642 OFFCURVE",
"575 526 OFFCURVE",
"645 383 CURVE",
"712 420 LINE",
"623 586 OFFCURVE",
"541 694 OFFCURVE",
"413 838 CURVE"
);
}
);
vertOrigin = 25;
vertWidth = 1362;
width = 802;
}
);
leftMetricsKey = u1B185;
rightMetricsKey = u1B185;
unicode = 1B1AD;
},
{
glyphname = u1B1AE;
lastChange = "2020-04-13 08:32:19 +0000";
layers = (
{
layerId = "CFFEBDE4-599A-46B2-9328-D96E42CD9C81";
paths = (
{
closed = 1;
nodes = (
"507 468 LINE",
"444 327 OFFCURVE",
"366 210 OFFCURVE",
"262 97 CURVE",
"317 48 LINE",
"427 167 OFFCURVE",
"510 293 OFFCURVE",
"575 438 CURVE"
);
},
{
closed = 1;
nodes = (
"639 261 LINE",
"568 111 OFFCURVE",
"474 -27 OFFCURVE",
"338 -148 CURVE",
"390 -203 LINE",
"525 -82 OFFCURVE",
"626 56 OFFCURVE",
"708 229 CURVE"
);
},
{
closed = 1;
nodes = (
"249 314 LINE",
"359 474 OFFCURVE",
"446 647 OFFCURVE",
"532 921 CURVE",
"458 939 LINE",
"419 813 OFFCURVE",
"380 710 OFFCURVE",
"338 622 CURVE SMOOTH",
"295 530 OFFCURVE",
"262 463 OFFCURVE",
"221 378 CURVE",
"216 379 LINE",
"192 474 OFFCURVE",
"154 580 OFFCURVE",
"107 681 CURVE",
"40 649 LINE",
"94 536 OFFCURVE",
"133 438 OFFCURVE",
"168 324 CURVE"
);
},
{
closed = 1;
nodes = (
"453 791 LINE",
"567 655 OFFCURVE",
"654 522 OFFCURVE",
"741 345 CURVE",
"809 377 LINE",
"707 579 OFFCURVE",
"622 699 OFFCURVE",
"497 854 CURVE"
);
}
);
vertOrigin = 25;
vertWidth = 1362;
width = 899;
}
);
rightMetricsKey = u1B185;
unicode = 1B1AE;
},
{
glyphname = u1B1AF;
lastChange = "2020-04-13 08:32:16 +0000";
layers = (
{
layerId = "CFFEBDE4-599A-46B2-9328-D96E42CD9C81";
paths = (
{
closed = 1;
nodes = (
"160 296 OFFCURVE",
"183 313 OFFCURVE",
"183 352 CURVE SMOOTH",
"183 391 OFFCURVE",
"160 408 OFFCURVE",
"132 408 CURVE SMOOTH",
"103 408 OFFCURVE",
"80 391 OFFCURVE",
"80 352 CURVE SMOOTH",
"80 313 OFFCURVE",
"103 296 OFFCURVE",
"132 296 CURVE SMOOTH"
);
},
{
closed = 1;
nodes = (
"452 755 OFFCURVE",
"475 772 OFFCURVE",
"475 811 CURVE SMOOTH",
"475 850 OFFCURVE",
"452 867 OFFCURVE",
"424 867 CURVE SMOOTH",
"395 867 OFFCURVE",
"372 850 OFFCURVE",
"372 811 CURVE SMOOTH",
"372 772 OFFCURVE",
"395 755 OFFCURVE",
"424 755 CURVE SMOOTH"
);
},
{
closed = 1;
nodes = (
"270 570 OFFCURVE",
"303 425 OFFCURVE",
"303 266 CURVE SMOOTH",
"303 89 OFFCURVE",
"281 -41 OFFCURVE",
"233 -181 CURVE",
"304 -203 LINE",
"355 -62 OFFCURVE",
"377 75 OFFCURVE",
"377 266 CURVE SMOOTH",
"377 289 OFFCURVE",
"376 311 OFFCURVE",
"375 363 CURVE",
"361 384 LINE",
"356 501 OFFCURVE",
"330 612 OFFCURVE",
"252 784 CURVE",
"183 754 LINE"
);
},
{
closed = 1;
nodes = (
"580 654 OFFCURVE",
"467 489 OFFCURVE",
"365 383 CURVE",
"337 390 LINE",
"348 271 LINE",
"523 441 OFFCURVE",
"632 589 OFFCURVE",
"711 924 CURVE",
"636 939 LINE"
);
},
{
closed = 1;
nodes = (
"513 530 LINE",
"588 394 OFFCURVE",
"628 279 OFFCURVE",
"654 135 CURVE",
"730 149 LINE",
"700 318 OFFCURVE",
"650 439 OFFCURVE",
"557 593 CURVE"
);
}
);
vertOrigin = 25;
vertWidth = 1362;
width = 830;
}
);
leftMetricsKey = u1B192;
rightMetricsKey = u1B186;
unicode = 1B1AF;
},
{
glyphname = u1B1B0;
lastChange = "2020-04-12 10:01:00 +0000";
layers = (
{
layerId = "CFFEBDE4-599A-46B2-9328-D96E42CD9C81";
paths = (
{
closed = 1;
nodes = (
"654 591 OFFCURVE",
"677 608 OFFCURVE",
"677 647 CURVE SMOOTH",
"677 686 OFFCURVE",
"654 703 OFFCURVE",
"626 703 CURVE SMOOTH",
"597 703 OFFCURVE",
"574 686 OFFCURVE",
"574 647 CURVE SMOOTH",
"574 608 OFFCURVE",
"597 591 OFFCURVE",
"626 591 CURVE SMOOTH"
);
},
{
closed = 1;
nodes = (
"157 420 OFFCURVE",
"180 437 OFFCURVE",
"180 476 CURVE SMOOTH",
"180 515 OFFCURVE",
"157 532 OFFCURVE",
"129 532 CURVE SMOOTH",
"100 532 OFFCURVE",
"77 515 OFFCURVE",
"77 476 CURVE SMOOTH",
"77 437 OFFCURVE",
"100 420 OFFCURVE",
"129 420 CURVE SMOOTH"
);
},
{
closed = 1;
nodes = (
"381 340 LINE",
"395 237 OFFCURVE",
"398 153 OFFCURVE",
"398 55 CURVE SMOOTH",
"398 -33 OFFCURVE",
"393 -114 OFFCURVE",
"382 -194 CURVE",
"456 -203 LINE",
"469 -119 OFFCURVE",
"474 -39 OFFCURVE",
"474 56 CURVE SMOOTH",
"474 155 OFFCURVE",
"467 249 OFFCURVE",
"452 349 CURVE"
);
},
{
closed = 1;
nodes = (
"462 939 LINE",
"395 675 OFFCURVE",
"302 467 OFFCURVE",
"127 223 CURVE",
"187 178 LINE",
"361 422 OFFCURVE",
"464 636 OFFCURVE",
"536 921 CURVE"
);
},
{
closed = 1;
nodes = (
"293 582 OFFCURVE",
"456 462 OFFCURVE",
"625 303 CURVE",
"677 358 LINE",
"493 530 OFFCURVE",
"341 639 OFFCURVE",
"101 757 CURVE",
"70 688 LINE"
);
}
);
vertOrigin = 25;
vertWidth = 1362;
width = 767;
}
);
leftMetricsKey = u1B17A;
rightMetricsKey = u1B17A;
unicode = 1B1B0;
},
{
glyphname = u1B1B1;
lastChange = "2020-04-13 08:32:12 +0000";
layers = (
{
layerId = "CFFEBDE4-599A-46B2-9328-D96E42CD9C81";
paths = (
{
closed = 1;
nodes = (
"149 204 LINE",
"190 67 OFFCURVE",
"214 -63 OFFCURVE",
"228 -203 CURVE",
"301 -194 LINE",
"287 -43 OFFCURVE",
"262 86 OFFCURVE",
"219 225 CURVE"
);
},
{
closed = 1;
nodes = (
"675 572 LINE",
"650 502 OFFCURVE",
"625 441 OFFCURVE",
"595 382 CURVE SMOOTH",
"550 294 OFFCURVE",
"508 224 OFFCURVE",
"451 140 CURVE",
"446 141 LINE",
"435 234 OFFCURVE",
"417 312 OFFCURVE",
"391 410 CURVE SMOOTH",
"351 559 OFFCURVE",
"299 699 OFFCURVE",
"229 845 CURVE",
"160 812 LINE",
"275 579 OFFCURVE",
"338 364 OFFCURVE",
"386 88 CURVE",
"479 70 LINE",
"601 230 OFFCURVE",
"670 350 OFFCURVE",
"747 545 CURVE"
);
},
{
closed = 1;
nodes = (
"454 518 LINE",
"532 373 OFFCURVE",
"611 196 OFFCURVE",
"658 56 CURVE",
"726 80 LINE",
"668 255 OFFCURVE",
"597 408 OFFCURVE",
"517 552 CURVE"
);
},
{
closed = 1;
nodes = (
"465 939 LINE",
"366 726 OFFCURVE",
"248 560 OFFCURVE",
"80 372 CURVE",
"134 324 LINE",
"309 514 OFFCURVE",
"413 669 OFFCURVE",
"533 907 CURVE"
);
}
);
vertOrigin = 25;
vertWidth = 1362;
width = 847;
}
);
leftMetricsKey = u1B180;
unicode = 1B1B1;
},
{
glyphname = u1B1B2;
lastChange = "2020-04-13 08:32:10 +0000";
layers = (
{
layerId = "CFFEBDE4-599A-46B2-9328-D96E42CD9C81";
paths = (
{
closed = 1;
nodes = (
"449 939 LINE",
"392 688 OFFCURVE",
"314 518 OFFCURVE",
"164 324 CURVE",
"223 280 LINE",
"372 474 OFFCURVE",
"462 654 OFFCURVE",
"524 926 CURVE"
);
},
{
closed = 1;
nodes = (
"298 612 OFFCURVE",
"454 523 OFFCURVE",
"621 390 CURVE",
"666 452 LINE",
"481 590 OFFCURVE",
"335 668 OFFCURVE",
"130 759 CURVE",
"103 690 LINE"
);
},
{
closed = 1;
nodes = (
"536 -36 LINE",
"527 118 OFFCURVE",
"509 259 OFFCURVE",
"466 435 CURVE",
"400 419 LINE",
"438 230 OFFCURVE",
"453 112 OFFCURVE",
"462 -40 CURVE"
);
},
{
closed = 1;
nodes = (
"80 -95 OFFCURVE",
"109 -143 OFFCURVE",
"177 -183 CURVE",
"248 -174 LINE",
"316 -95 OFFCURVE",
"334 -30 OFFCURVE",
"334 31 CURVE SMOOTH",
"334 91 OFFCURVE",
"300 132 OFFCURVE",
"232 170 CURVE",
"158 160 LINE",
"100 78 OFFCURVE",
"80 11 OFFCURVE",
"80 -38 CURVE SMOOTH"
);
},
{
closed = 1;
nodes = (
"204 116 LINE",
"244 84 OFFCURVE",
"259 49 OFFCURVE",
"259 20 CURVE SMOOTH",
"259 -23 OFFCURVE",
"249 -68 OFFCURVE",
"209 -132 CURVE",
"204 -133 LINE",
"169 -98 OFFCURVE",
"154 -67 OFFCURVE",
"154 -34 CURVE SMOOTH",
"154 8 OFFCURVE",
"167 52 OFFCURVE",
"199 115 CURVE"
);
}
);
vertOrigin = 25;
vertWidth = 1362;
width = 756;
}
);
leftMetricsKey = u1B1AA;
rightMetricsKey = u1B17A;
unicode = 1B1B2;
},
{
glyphname = u1B1B3;
lastChange = "2020-04-11 15:25:38 +0000";
layers = (
{
layerId = "CFFEBDE4-599A-46B2-9328-D96E42CD9C81";
paths = (
{
closed = 1;
nodes = (
"694 162 OFFCURVE",
"717 179 OFFCURVE",
"717 218 CURVE SMOOTH",
"717 257 OFFCURVE",
"694 274 OFFCURVE",
"666 274 CURVE SMOOTH",
"637 274 OFFCURVE",
"614 257 OFFCURVE",
"614 218 CURVE SMOOTH",
"614 179 OFFCURVE",
"637 162 OFFCURVE",
"666 162 CURVE SMOOTH"
);
},
{
closed = 1;
nodes = (
"250 -55 OFFCURVE",
"273 -38 OFFCURVE",
"273 1 CURVE SMOOTH",
"273 40 OFFCURVE",
"250 57 OFFCURVE",
"222 57 CURVE SMOOTH",
"193 57 OFFCURVE",
"170 40 OFFCURVE",
"170 1 CURVE SMOOTH",
"170 -38 OFFCURVE",
"193 -55 OFFCURVE",
"222 -55 CURVE SMOOTH"
);
},
{
closed = 1;
nodes = (
"523 939 LINE",
"371 765 OFFCURVE",
"235 646 OFFCURVE",
"60 520 CURVE",
"105 460 LINE",
"281 587 OFFCURVE",
"415 701 OFFCURVE",
"581 888 CURVE"
);
},
{
closed = 1;
nodes = (
"525 740 OFFCURVE",
"549 692 OFFCURVE",
"549 634 CURVE SMOOTH",
"549 528 OFFCURVE",
"456 441 OFFCURVE",
"140 229 CURVE",
"183 167 LINE",
"528 395 OFFCURVE",
"625 499 OFFCURVE",
"625 634 CURVE SMOOTH",
"625 719 OFFCURVE",
"594 781 OFFCURVE",
"511 864 CURVE",
"472 793 LINE"
);
},
{
closed = 1;
nodes = (
"392 363 LINE",
"408 247 OFFCURVE",
"413 170 OFFCURVE",
"413 42 CURVE SMOOTH",
"413 -51 OFFCURVE",
"409 -113 OFFCURVE",
"401 -196 CURVE",
"476 -203 LINE",
"485 -122 OFFCURVE",
"489 -53 OFFCURVE",
"489 40 CURVE SMOOTH",
"489 170 OFFCURVE",
"480 281 OFFCURVE",
"457 408 CURVE"
);
}
);
vertOrigin = 25;
vertWidth = 1362;
width = 837;
}
);
leftMetricsKey = u1B179;
rightMetricsKey = u1B1A8;
unicode = 1B1B3;
},
{
glyphname = u1B1B4;
lastChange = "2020-04-13 08:32:06 +0000";
layers = (
{
layerId = "CFFEBDE4-599A-46B2-9328-D96E42CD9C81";
paths = (
{
closed = 1;
nodes = (
"394 380 OFFCURVE",
"330 258 OFFCURVE",
"236 114 CURVE",
"283 47 LINE",
"346 144 OFFCURVE",
"383 207 OFFCURVE",
"418 272 CURVE SMOOTH",
"455 341 OFFCURVE",
"486 410 OFFCURVE",
"519 506 CURVE",
"523 506 LINE",
"553 418 OFFCURVE",
"586 346 OFFCURVE",
"623 248 CURVE",
"636 325 LINE",
"600 248 OFFCURVE",
"559 173 OFFCURVE",
"513 100 CURVE SMOOTH",
"468 28 OFFCURVE",
"423 -42 OFFCURVE",
"376 -114 CURVE",
"371 -113 LINE",
"350 -42 OFFCURVE",
"321 33 OFFCURVE",
"285 110 CURVE SMOOTH",
"246 194 OFFCURVE",
"202 281 OFFCURVE",
"152 376 CURVE",
"145 272 LINE",
"276 496 OFFCURVE",
"370 665 OFFCURVE",
"459 914 CURVE",
"388 939 LINE",
"301 698 OFFCURVE",
"210 532 OFFCURVE",
"90 330 CURVE",
"188 145 OFFCURVE",
"263 -13 OFFCURVE",
"321 -173 CURVE",
"408 -183 LINE",
"510 -53 OFFCURVE",
"608 91 OFFCURVE",
"694 271 CURVE",
"655 379 OFFCURVE",
"618 473 OFFCURVE",
"563 583 CURVE",
"481 583 LINE"
);
}
);
vertOrigin = 45;
vertWidth = 1362;
width = 784;
}
);
unicode = 1B1B4;
},
{
glyphname = u1B1B5;
lastChange = "2020-04-13 08:32:03 +0000";
layers = (
{
layerId = "CFFEBDE4-599A-46B2-9328-D96E42CD9C81";
paths = (
{
closed = 1;
nodes = (
"566 194 OFFCURVE",
"589 211 OFFCURVE",
"589 250 CURVE SMOOTH",
"589 289 OFFCURVE",
"566 306 OFFCURVE",
"538 306 CURVE SMOOTH",
"509 306 OFFCURVE",
"486 289 OFFCURVE",
"486 250 CURVE SMOOTH",
"486 211 OFFCURVE",
"509 194 OFFCURVE",
"538 194 CURVE SMOOTH"
);
},
{
closed = 1;
nodes = (
"552 495 OFFCURVE",
"575 512 OFFCURVE",
"575 551 CURVE SMOOTH",
"575 590 OFFCURVE",
"552 607 OFFCURVE",
"524 607 CURVE SMOOTH",
"495 607 OFFCURVE",
"472 590 OFFCURVE",
"472 551 CURVE SMOOTH",
"472 512 OFFCURVE",
"495 495 OFFCURVE",
"524 495 CURVE SMOOTH"
);
},
{
closed = 1;
nodes = (
"216 -203 LINE",
"357 23 OFFCURVE",
"405 157 OFFCURVE",
"405 352 CURVE SMOOTH",
"405 536 OFFCURVE",
"335 673 OFFCURVE",
"153 884 CURVE",
"97 835 LINE",
"287 635 OFFCURVE",
"329 504 OFFCURVE",
"329 349 CURVE SMOOTH",
"329 181 OFFCURVE",
"294 48 OFFCURVE",
"153 -163 CURVE"
);
},
{
closed = 1;
nodes = (
"391 939 LINE",
"302 768 OFFCURVE",
"208 641 OFFCURVE",
"70 519 CURVE",
"120 462 LINE",
"271 602 OFFCURVE",
"367 730 OFFCURVE",
"458 910 CURVE"
);
},
{
closed = 1;
nodes = (
"82 130 LINE",
"224 63 OFFCURVE",
"370 -27 OFFCURVE",
"482 -126 CURVE",
"531 -70 LINE",
"405 38 OFFCURVE",
"266 126 OFFCURVE",
"115 200 CURVE"
);
}
);
vertOrigin = 25;
vertWidth = 1362;
width = 709;
}
);
unicode = 1B1B5;
},
{
glyphname = u1B1B6;
lastChange = "2020-04-13 08:31:59 +0000";
layers = (
{
background = {
paths = (
{
closed = 1;
nodes = (
"414 -44 LINE",
"583 189 OFFCURVE",
"674 336 OFFCURVE",
"776 655 CURVE",
"694 680 LINE",
"608 398 OFFCURVE",
"505 218 OFFCURVE",
"386 61 CURVE"
);
},
{
closed = 1;
nodes = (
"490 899 LINE",
"425 628 OFFCURVE",
"360 463 OFFCURVE",
"274 300 CURVE",
"331 242 LINE",
"437 440 OFFCURVE",
"502 604 OFFCURVE",
"574 879 CURVE"
);
},
{
closed = 1;
nodes = (
"176 736 LINE",
"333 532 OFFCURVE",
"442 380 OFFCURVE",
"526 221 CURVE",
"586 285 LINE",
"506 431 OFFCURVE",
"395 595 OFFCURVE",
"244 789 CURVE"
);
},
{
closed = 1;
nodes = (
"353 -67 OFFCURVE",
"335 -98 OFFCURVE",
"280 -98 CURVE SMOOTH",
"231 -98 OFFCURVE",
"205 -72 OFFCURVE",
"205 -19 CURVE SMOOTH",
"205 9 OFFCURVE",
"211 29 OFFCURVE",
"228 59 CURVE",
"163 93 LINE",
"136 55 OFFCURVE",
"123 17 OFFCURVE",
"123 -27 CURVE SMOOTH",
"123 -117 OFFCURVE",
"181 -184 OFFCURVE",
"272 -184 CURVE SMOOTH",
"384 -184 OFFCURVE",
"437 -110 OFFCURVE",
"437 12 CURVE SMOOTH",
"437 88 OFFCURVE",
"405 181 OFFCURVE",
"145 504 CURVE",
"80 451 LINE",
"323 157 OFFCURVE",
"353 78 OFFCURVE",
"353 0 CURVE SMOOTH"
);
}
);
};
layerId = "CFFEBDE4-599A-46B2-9328-D96E42CD9C81";
paths = (
{
closed = 1;
nodes = (
"414 -44 LINE",
"583 189 OFFCURVE",
"674 336 OFFCURVE",
"776 655 CURVE",
"704 676 LINE",
"618 394 OFFCURVE",
"515 205 OFFCURVE",
"396 48 CURVE"
);
},
{
closed = 1;
nodes = (
"494 899 LINE",
"461 761 OFFCURVE",
"428 651 OFFCURVE",
"392 555 CURVE",
"373 515 LINE",
"343 438 OFFCURVE",
"310 369 OFFCURVE",
"274 300 CURVE",
"321 244 LINE",
"358 313 OFFCURVE",
"390 379 OFFCURVE",
"420 447 CURVE",
"442 490 LINE",
"488 602 OFFCURVE",
"527 723 OFFCURVE",
"568 881 CURVE"
);
},
{
closed = 1;
nodes = (
"184 736 LINE",
"341 532 OFFCURVE",
"450 380 OFFCURVE",
"534 221 CURVE",
"584 278 LINE",
"504 424 OFFCURVE",
"393 588 OFFCURVE",
"242 782 CURVE"
);
},
{
closed = 1;
nodes = (
"363 -76 OFFCURVE",
"335 -108 OFFCURVE",
"280 -108 CURVE SMOOTH",
"224 -108 OFFCURVE",
"195 -79 OFFCURVE",
"195 -27 CURVE SMOOTH",
"195 9 OFFCURVE",
"202 31 OFFCURVE",
"224 61 CURVE",
"163 93 LINE",
"136 55 OFFCURVE",
"123 17 OFFCURVE",
"123 -27 CURVE SMOOTH",
"123 -117 OFFCURVE",
"181 -184 OFFCURVE",
"272 -184 CURVE SMOOTH",
"384 -184 OFFCURVE",
"437 -110 OFFCURVE",
"437 0 CURVE SMOOTH",
"437 88 OFFCURVE",
"398 175 OFFCURVE",
"138 498 CURVE",
"80 451 LINE",
"335 152 OFFCURVE",
"363 78 OFFCURVE",
"363 0 CURVE SMOOTH"
);
}
);
vertOrigin = 30;
vertWidth = 1362;
width = 866;
}
);
leftMetricsKey = u1B19D;
rightMetricsKey = u1B19D;
unicode = 1B1B6;
},
{
glyphname = u1B1B7;
lastChange = "2020-04-13 08:31:44 +0000";
layers = (
{
layerId = "CFFEBDE4-599A-46B2-9328-D96E42CD9C81";
paths = (
{
closed = 1;
nodes = (
"564 939 LINE",
"498 848 OFFCURVE",
"434 762 OFFCURVE",
"373 696 CURVE SMOOTH",
"310 629 OFFCURVE",
"259 580 OFFCURVE",
"206 530 CURVE",
"201 531 LINE",
"191 603 OFFCURVE",
"174 670 OFFCURVE",
"140 770 CURVE",
"70 744 LINE",
"105 654 OFFCURVE",
"127 579 OFFCURVE",
"148 492 CURVE",
"226 465 LINE",
"384 589 OFFCURVE",
"485 702 OFFCURVE",
"626 898 CURVE"
);
},
{
closed = 1;
nodes = (
"206 255 LINE",
"383 366 OFFCURVE",
"497 457 OFFCURVE",
"650 626 CURVE",
"593 677 LINE",
"461 528 OFFCURVE",
"338 427 OFFCURVE",
"164 318 CURVE"
);
},
{
closed = 1;
nodes = (
"526 -201 LINE",
"526 -57 OFFCURVE",
"519 59 OFFCURVE",
"492 205 CURVE",
"435 170 LINE",
"446 17 OFFCURVE",
"450 -65 OFFCURVE",
"450 -203 CURVE"
);
},
{
closed = 1;
nodes = (
"581 338 OFFCURVE",
"514 277 OFFCURVE",
"223 109 CURVE",
"262 46 LINE",
"574 228 OFFCURVE",
"657 307 OFFCURVE",
"657 432 CURVE SMOOTH",
"657 496 OFFCURVE",
"635 543 OFFCURVE",
"579 614 CURVE",
"535 558 LINE",
"568 514 OFFCURVE",
"583 481 OFFCURVE",
"581 432 CURVE"
);
}
);
vertOrigin = 25;
vertWidth = 1362;
width = 787;
}
);
rightMetricsKey = u1B179;
unicode = 1B1B7;
},
{
glyphname = u1B1B8;
lastChange = "2020-04-13 08:31:41 +0000";
layers = (
{
layerId = "CFFEBDE4-599A-46B2-9328-D96E42CD9C81";
paths = (
{
closed = 1;
nodes = (
"150 271 OFFCURVE",
"173 288 OFFCURVE",
"173 327 CURVE SMOOTH",
"173 366 OFFCURVE",
"150 383 OFFCURVE",
"122 383 CURVE SMOOTH",
"93 383 OFFCURVE",
"70 366 OFFCURVE",
"70 327 CURVE SMOOTH",
"70 288 OFFCURVE",
"93 271 OFFCURVE",
"122 271 CURVE SMOOTH"
);
},
{
closed = 1;
nodes = (
"216 7 OFFCURVE",
"239 24 OFFCURVE",
"239 63 CURVE SMOOTH",
"239 102 OFFCURVE",
"216 119 OFFCURVE",
"188 119 CURVE SMOOTH",
"161 119 OFFCURVE",
"136 102 OFFCURVE",
"136 63 CURVE SMOOTH",
"136 24 OFFCURVE",
"159 7 OFFCURVE",
"188 7 CURVE SMOOTH"
);
},
{
closed = 1;
nodes = (
"580 939 LINE",
"524 840 OFFCURVE",
"467 755 OFFCURVE",
"404 675 CURVE",
"379 649 LINE",
"325 584 OFFCURVE",
"267 522 OFFCURVE",
"200 458 CURVE",
"252 405 LINE",
"313 466 OFFCURVE",
"366 520 OFFCURVE",
"413 574 CURVE",
"445 608 LINE",
"515 694 OFFCURVE",
"576 783 OFFCURVE",
"645 903 CURVE"
);
},
{
closed = 1;
nodes = (
"700 657 LINE",
"637 562 OFFCURVE",
"579 484 OFFCURVE",
"517 411 CURVE",
"482 376 LINE",
"420 307 OFFCURVE",
"353 242 OFFCURVE",
"273 172 CURVE",
"323 117 LINE",
"390 176 OFFCURVE",
"449 232 OFFCURVE",
"506 291 CURVE",
"541 324 LINE",
"618 409 OFFCURVE",
"689 502 OFFCURVE",
"764 617 CURVE"
);
},
{
closed = 1;
nodes = (
"613 -200 LINE",
"597 301 OFFCURVE",
"516 557 OFFCURVE",
"299 901 CURVE",
"236 861 LINE",
"458 520 OFFCURVE",
"533 215 OFFCURVE",
"537 -203 CURVE"
);
}
);
vertOrigin = 25;
vertWidth = 1362;
width = 854;
}
);
rightMetricsKey = u1B187;
unicode = 1B1B8;
},
{
glyphname = u1B1B9;
lastChange = "2020-04-13 08:31:38 +0000";
layers = (
{
layerId = "CFFEBDE4-599A-46B2-9328-D96E42CD9C81";
paths = (
{
closed = 1;
nodes = (
"557 939 LINE",
"498 834 OFFCURVE",
"437 741 OFFCURVE",
"370 652 CURVE",
"342 620 LINE",
"284 547 OFFCURVE",
"221 476 OFFCURVE",
"150 401 CURVE",
"203 348 LINE",
"266 413 OFFCURVE",
"324 479 OFFCURVE",
"378 547 CURVE",
"408 580 LINE",
"486 681 OFFCURVE",
"557 787 OFFCURVE",
"623 905 CURVE"
);
},
{
closed = 1;
nodes = (
"656 499 LINE",
"558 354 OFFCURVE",
"467 245 OFFCURVE",
"323 121 CURVE",
"371 64 LINE",
"500 175 OFFCURVE",
"604 289 OFFCURVE",
"718 459 CURVE"
);
},
{
closed = 1;
nodes = (
"533 268 LINE",
"477 475 OFFCURVE",
"400 657 OFFCURVE",
"275 864 CURVE",
"212 827 LINE",
"337 617 OFFCURVE",
"415 426 OFFCURVE",
"471 235 CURVE"
);
},
{
closed = 1;
nodes = (
"189 126 LINE",
"206 45 LINE",
"238 -17 OFFCURVE",
"259 -64 OFFCURVE",
"297 -165 CURVE",
"368 -138 LINE",
"322 -20 OFFCURVE",
"277 60 OFFCURVE",
"203 161 CURVE"
);
},
{
closed = 1;
nodes = (
"162 226 LINE",
"145 60 OFFCURVE",
"119 -53 OFFCURVE",
"70 -183 CURVE",
"142 -203 LINE",
"177 -102 OFFCURVE",
"191 -28 OFFCURVE",
"201 44 CURVE",
"220 49 LINE",
"226 82 OFFCURVE",
"232 186 OFFCURVE",
"235 218 CURVE"
);
}
);
vertOrigin = 25;
vertWidth = 1362;
width = 788;
}
);
rightMetricsKey = u1B180;
unicode = 1B1B9;
},
{
glyphname = u1B1BA;
lastChange = "2020-04-13 08:31:34 +0000";
layers = (
{
layerId = "CFFEBDE4-599A-46B2-9328-D96E42CD9C81";
paths = (
{
closed = 1;
nodes = (
"281 622 OFFCURVE",
"346 731 OFFCURVE",
"429 908 CURVE",
"361 939 LINE",
"279 767 OFFCURVE",
"213 649 OFFCURVE",
"100 494 CURVE",
"157 376 OFFCURVE",
"195 286 OFFCURVE",
"232 184 CURVE",
"316 175 LINE",
"360 228 OFFCURVE",
"397 285 OFFCURVE",
"427 334 CURVE SMOOTH",
"468 402 OFFCURVE",
"491 448 OFFCURVE",
"517 504 CURVE",
"521 504 LINE",
"561 398 OFFCURVE",
"600 293 OFFCURVE",
"634 173 CURVE",
"629 242 LINE",
"546 88 OFFCURVE",
"467 -31 OFFCURVE",
"368 -158 CURVE",
"427 -203 LINE",
"543 -53 OFFCURVE",
"612 54 OFFCURVE",
"698 219 CURVE",
"659 349 OFFCURVE",
"622 450 OFFCURVE",
"572 566 CURVE",
"480 573 LINE",
"447 516 OFFCURVE",
"422 471 OFFCURVE",
"387 408 CURVE SMOOTH",
"354 349 OFFCURVE",
"326 297 OFFCURVE",
"286 240 CURVE",
"281 241 LINE",
"250 333 OFFCURVE",
"221 412 OFFCURVE",
"164 532 CURVE",
"167 461 LINE"
);
}
);
vertOrigin = 25;
vertWidth = 1362;
width = 798;
}
);
unicode = 1B1BA;
},
{
glyphname = u1B1BB;
lastChange = "2020-04-13 08:31:31 +0000";
layers = (
{
layerId = "CFFEBDE4-599A-46B2-9328-D96E42CD9C81";
paths = (
{
closed = 1;
nodes = (
"387 855 LINE",
"412 779 OFFCURVE",
"431 723 OFFCURVE",
"453 651 CURVE SMOOTH",
"476 576 OFFCURVE",
"497 501 OFFCURVE",
"513 432 CURVE",
"529 519 LINE",
"430 406 OFFCURVE",
"357 330 OFFCURVE",
"260 244 CURVE",
"298 175 LINE",
"406 272 OFFCURVE",
"487 355 OFFCURVE",
"583 462 CURVE",
"545 621 OFFCURVE",
"497 781 OFFCURVE",
"437 920 CURVE",
"353 929 LINE",
"273 822 OFFCURVE",
"199 736 OFFCURVE",
"110 642 CURVE",
"214 404 OFFCURVE",
"241 188 OFFCURVE",
"241 -11 CURVE SMOOTH",
"241 -78 OFFCURVE",
"237 -146 OFFCURVE",
"231 -196 CURVE",
"303 -203 LINE",
"311 -150 OFFCURVE",
"315 -81 OFFCURVE",
"315 -12 CURVE SMOOTH",
"315 211 OFFCURVE",
"286 413 OFFCURVE",
"186 656 CURVE",
"173 598 LINE",
"275 706 OFFCURVE",
"330 777 OFFCURVE",
"382 856 CURVE"
);
},
{
closed = 1;
nodes = (
"463 744 LINE",
"376 634 OFFCURVE",
"304 558 OFFCURVE",
"210 466 CURVE",
"249 403 LINE",
"348 497 OFFCURVE",
"428 583 OFFCURVE",
"507 679 CURVE"
);
}
);
vertOrigin = 25;
vertWidth = 1362;
width = 703;
}
);
unicode = 1B1BB;
},
{
glyphname = u1B1BC;
lastChange = "2020-04-13 08:31:29 +0000";
layers = (
{
layerId = "CFFEBDE4-599A-46B2-9328-D96E42CD9C81";
paths = (
{
closed = 1;
nodes = (
"461 -183 LINE",
"549 -118 OFFCURVE",
"654 -22 OFFCURVE",
"733 58 CURVE",
"706 159 OFFCURVE",
"682 244 OFFCURVE",
"647 337 CURVE",
"569 351 LINE",
"486 257 OFFCURVE",
"400 174 OFFCURVE",
"301 91 CURVE",
"341 -2 OFFCURVE",
"364 -77 OFFCURVE",
"393 -165 CURVE"
);
},
{
closed = 1;
nodes = (
"441 -109 LINE",
"424 -34 OFFCURVE",
"405 33 OFFCURVE",
"372 117 CURVE",
"355 36 LINE",
"402 78 OFFCURVE",
"430 101 OFFCURVE",
"467 137 CURVE SMOOTH",
"514 182 OFFCURVE",
"553 225 OFFCURVE",
"593 279 CURVE",
"598 278 LINE",
"614 211 OFFCURVE",
"630 154 OFFCURVE",
"661 42 CURVE",
"682 116 LINE",
"636 69 OFFCURVE",
"595 29 OFFCURVE",
"566 3 CURVE SMOOTH",
"529 -31 OFFCURVE",
"490 -67 OFFCURVE",
"446 -110 CURVE"
);
},
{
closed = 1;
nodes = (
"515 939 LINE",
"433 831 OFFCURVE",
"364 747 OFFCURVE",
"293 670 CURVE",
"268 647 LINE",
"210 585 OFFCURVE",
"150 527 OFFCURVE",
"80 463 CURVE",
"130 409 LINE",
"191 466 OFFCURVE",
"248 519 OFFCURVE",
"302 576 CURVE",
"331 602 LINE",
"410 685 OFFCURVE",
"488 777 OFFCURVE",
"576 894 CURVE"
);
},
{
closed = 1;
nodes = (
"572 616 LINE",
"462 486 OFFCURVE",
"353 376 OFFCURVE",
"215 255 CURVE",
"262 201 LINE",
"396 316 OFFCURVE",
"509 426 OFFCURVE",
"628 568 CURVE"
);
},
{
closed = 1;
nodes = (
"436 375 LINE",
"387 517 OFFCURVE",
"324 671 OFFCURVE",
"219 873 CURVE",
"151 837 LINE",
"263 626 OFFCURVE",
"326 475 OFFCURVE",
"379 315 CURVE"
);
}
);
vertOrigin = 25;
vertWidth = 1362;
width = 823;
}
);
leftMetricsKey = u1B180;
unicode = 1B1BC;
},
{
glyphname = u1B1BD;
lastChange = "2020-04-13 08:31:25 +0000";
layers = (
{
layerId = "CFFEBDE4-599A-46B2-9328-D96E42CD9C81";
paths = (
{
closed = 1;
nodes = (
"168 667 OFFCURVE",
"221 609 OFFCURVE",
"259 556 CURVE",
"278 524 LINE",
"315 455 OFFCURVE",
"328 391 OFFCURVE",
"328 321 CURVE SMOOTH",
"328 166 OFFCURVE",
"270 72 OFFCURVE",
"151 -70 CURVE",
"204 -115 LINE",
"331 33 OFFCURVE",
"400 160 OFFCURVE",
"400 323 CURVE SMOOTH",
"400 413 OFFCURVE",
"380 491 OFFCURVE",
"331 576 CURVE",
"304 610 LINE",
"265 665 OFFCURVE",
"218 720 OFFCURVE",
"156 775 CURVE",
"108 721 LINE"
);
},
{
closed = 1;
nodes = (
"406 939 LINE",
"357 725 OFFCURVE",
"291 605 OFFCURVE",
"124 429 CURVE",
"178 381 LINE",
"287 500 OFFCURVE",
"369 621 OFFCURVE",
"411 731 CURVE",
"434 776 LINE",
"450 821 OFFCURVE",
"465 870 OFFCURVE",
"477 924 CURVE"
);
},
{
closed = 1;
nodes = (
"377 -78 OFFCURVE",
"360 14 OFFCURVE",
"322 95 CURVE",
"293 141 LINE",
"265 190 OFFCURVE",
"229 236 OFFCURVE",
"185 283 CURVE",
"135 236 LINE",
"191 177 OFFCURVE",
"232 118 OFFCURVE",
"259 62 CURVE",
"285 11 LINE",
"305 -49 OFFCURVE",
"315 -116 OFFCURVE",
"319 -203 CURVE",
"388 -198 LINE"
);
},
{
closed = 1;
nodes = (
"384 731 LINE",
"415 731 LINE",
"474 607 OFFCURVE",
"557 503 OFFCURVE",
"688 388 CURVE",
"736 442 LINE",
"607 557 OFFCURVE",
"532 651 OFFCURVE",
"435 808 CURVE"
);
},
{
closed = 1;
nodes = (
"546 432 OFFCURVE",
"549 482 OFFCURVE",
"568 523 CURVE",
"581 554 LINE",
"614 623 OFFCURVE",
"658 691 OFFCURVE",
"721 760 CURVE",
"669 807 LINE",
"612 744 OFFCURVE",
"569 686 OFFCURVE",
"534 620 CURVE",
"519 587 LINE",
"487 517 OFFCURVE",
"474 451 OFFCURVE",
"474 387 CURVE SMOOTH",
"474 227 OFFCURVE",
"529 108 OFFCURVE",
"660 2 CURVE",
"709 52 LINE",
"590 158 OFFCURVE",
"546 246 OFFCURVE",
"546 389 CURVE SMOOTH"
);
}
);
vertOrigin = 25;
vertWidth = 1362;
width = 836;
}
);
unicode = 1B1BD;
},
{
glyphname = u1B1BE;
lastChange = "2020-04-13 08:31:22 +0000";
layers = (
{
layerId = "CFFEBDE4-599A-46B2-9328-D96E42CD9C81";
paths = (
{
closed = 1;
nodes = (
"489 939 LINE",
"489 559 OFFCURVE",
"428 321 OFFCURVE",
"307 142 CURVE",
"369 101 LINE",
"491 280 OFFCURVE",
"565 536 OFFCURVE",
"565 936 CURVE"
);
},
{
closed = 1;
nodes = (
"261 607 LINE",
"242 470 OFFCURVE",
"212 404 OFFCURVE",
"145 330 CURVE",
"196 283 LINE",
"268 360 OFFCURVE",
"310 450 OFFCURVE",
"334 596 CURVE"
);
},
{
closed = 1;
nodes = (
"579 258 OFFCURVE",
"595 333 OFFCURVE",
"645 425 CURVE",
"708 395 LINE",
"665 315 OFFCURVE",
"653 249 OFFCURVE",
"653 177 CURVE SMOOTH",
"653 89 OFFCURVE",
"671 28 OFFCURVE",
"714 -47 CURVE",
"653 -80 LINE",
"601 -3 OFFCURVE",
"579 76 OFFCURVE",
"579 177 CURVE SMOOTH"
);
},
{
closed = 1;
nodes = (
"189 126 LINE",
"206 45 LINE",
"238 -17 OFFCURVE",
"259 -64 OFFCURVE",
"297 -165 CURVE",
"368 -138 LINE",
"322 -20 OFFCURVE",
"277 60 OFFCURVE",
"203 161 CURVE"
);
},
{
closed = 1;
nodes = (
"162 226 LINE",
"145 60 OFFCURVE",
"119 -53 OFFCURVE",
"70 -183 CURVE",
"142 -203 LINE",
"177 -102 OFFCURVE",
"191 -28 OFFCURVE",
"201 44 CURVE",
"220 49 LINE",
"226 82 OFFCURVE",
"232 186 OFFCURVE",
"235 218 CURVE"
);
}
);
vertOrigin = 25;
vertWidth = 1362;
width = 824;
}
);
leftMetricsKey = u1B1B9;
rightMetricsKey = u1B178;
unicode = 1B1BE;
},
{
glyphname = u1B1BF;
lastChange = "2020-04-11 15:37:52 +0000";
layers = (
{
layerId = "CFFEBDE4-599A-46B2-9328-D96E42CD9C81";
paths = (
{
closed = 1;
nodes = (
"725 398 LINE",
"631 176 OFFCURVE",
"531 28 OFFCURVE",
"387 -133 CURVE",
"444 -183 LINE",
"585 -24 OFFCURVE",
"697 137 OFFCURVE",
"796 368 CURVE"
);
},
{
closed = 1;
nodes = (
"140 223 OFFCURVE",
"163 240 OFFCURVE",
"163 279 CURVE SMOOTH",
"163 318 OFFCURVE",
"140 335 OFFCURVE",
"112 335 CURVE SMOOTH",
"83 335 OFFCURVE",
"60 318 OFFCURVE",
"60 279 CURVE SMOOTH",
"60 240 OFFCURVE",
"83 223 OFFCURVE",
"112 223 CURVE SMOOTH"
);
},
{
closed = 1;
nodes = (
"438 635 OFFCURVE",
"461 652 OFFCURVE",
"461 691 CURVE SMOOTH",
"461 730 OFFCURVE",
"438 747 OFFCURVE",
"410 747 CURVE SMOOTH",
"381 747 OFFCURVE",
"358 730 OFFCURVE",
"358 691 CURVE SMOOTH",
"358 652 OFFCURVE",
"381 635 OFFCURVE",
"410 635 CURVE SMOOTH"
);
},
{
closed = 1;
nodes = (
"650 909 LINE",
"586 685 OFFCURVE",
"524 526 OFFCURVE",
"474 424 CURVE SMOOTH",
"446 366 OFFCURVE",
"423 319 OFFCURVE",
"393 259 CURVE",
"389 259 LINE",
"376 308 OFFCURVE",
"364 348 OFFCURVE",
"351 381 CURVE SMOOTH",
"332 429 OFFCURVE",
"291 516 OFFCURVE",
"241 598 CURVE",
"174 559 LINE",
"248 433 OFFCURVE",
"297 327 OFFCURVE",
"341 189 CURVE",
"424 177 LINE",
"573 406 OFFCURVE",
"650 632 OFFCURVE",
"725 889 CURVE"
);
}
);
vertOrigin = 45;
vertWidth = 1362;
width = 896;
}
);
leftMetricsKey = u1B193;
unicode = 1B1BF;
},
{
glyphname = u1B1C0;
lastChange = "2020-04-13 08:32:28 +0000";
layers = (
{
layerId = "CFFEBDE4-599A-46B2-9328-D96E42CD9C81";
paths = (
{
closed = 1;
nodes = (
"495 -203 LINE",
"505 -103 OFFCURVE",
"508 -37 OFFCURVE",
"508 81 CURVE SMOOTH",
"508 351 OFFCURVE",
"453 623 OFFCURVE",
"328 939 CURVE",
"259 913 LINE",
"390 579 OFFCURVE",
"432 333 OFFCURVE",
"432 83 CURVE SMOOTH",
"432 -31 OFFCURVE",
"429 -111 OFFCURVE",
"421 -196 CURVE"
);
},
{
closed = 1;
nodes = (
"559 909 LINE",
"407 777 OFFCURVE",
"252 662 OFFCURVE",
"90 559 CURVE",
"126 410 OFFCURVE",
"145 303 OFFCURVE",
"161 179 CURVE",
"239 157 LINE",
"406 263 OFFCURVE",
"573 375 OFFCURVE",
"736 506 CURVE",
"708 650 OFFCURVE",
"680 754 OFFCURVE",
"643 885 CURVE"
);
},
{
closed = 1;
nodes = (
"583 835 LINE",
"605 751 OFFCURVE",
"623 677 OFFCURVE",
"641 591 CURVE SMOOTH",
"647 562 OFFCURVE",
"654 533 OFFCURVE",
"660 502 CURVE",
"682 561 LINE",
"604 498 OFFCURVE",
"520 435 OFFCURVE",
"436 377 CURVE SMOOTH",
"357 323 OFFCURVE",
"291 277 OFFCURVE",
"228 232 CURVE",
"223 233 LINE",
"219 302 OFFCURVE",
"208 378 OFFCURVE",
"196 435 CURVE SMOOTH",
"187 479 OFFCURVE",
"177 524 OFFCURVE",
"166 569 CURVE",
"143 500 LINE",
"224 553 OFFCURVE",
"305 611 OFFCURVE",
"385 671 CURVE SMOOTH",
"459 727 OFFCURVE",
"514 774 OFFCURVE",
"578 836 CURVE"
);
}
);
vertOrigin = 25;
vertWidth = 1362;
width = 826;
}
);
unicode = 1B1C0;
},
{
glyphname = u1B1C1;
lastChange = "2020-04-11 15:36:40 +0000";
layers = (
{
layerId = "CFFEBDE4-599A-46B2-9328-D96E42CD9C81";
paths = (
{
closed = 1;
nodes = (
"810 525 OFFCURVE",
"833 542 OFFCURVE",
"833 581 CURVE SMOOTH",
"833 620 OFFCURVE",
"810 637 OFFCURVE",
"782 637 CURVE SMOOTH",
"753 637 OFFCURVE",
"730 620 OFFCURVE",
"730 581 CURVE SMOOTH",
"730 542 OFFCURVE",
"753 525 OFFCURVE",
"782 525 CURVE SMOOTH"
);
},
{
closed = 1;
nodes = (
"160 296 OFFCURVE",
"183 313 OFFCURVE",
"183 352 CURVE SMOOTH",
"183 391 OFFCURVE",
"160 408 OFFCURVE",
"132 408 CURVE SMOOTH",
"103 408 OFFCURVE",
"80 391 OFFCURVE",
"80 352 CURVE SMOOTH",
"80 313 OFFCURVE",
"103 296 OFFCURVE",
"132 296 CURVE SMOOTH"
);
},
{
closed = 1;
nodes = (
"270 570 OFFCURVE",
"303 425 OFFCURVE",
"303 266 CURVE SMOOTH",
"303 89 OFFCURVE",
"281 -41 OFFCURVE",
"233 -181 CURVE",
"304 -203 LINE",
"355 -62 OFFCURVE",
"377 75 OFFCURVE",
"377 266 CURVE SMOOTH",
"377 289 OFFCURVE",
"376 311 OFFCURVE",
"375 363 CURVE",
"361 384 LINE",
"356 501 OFFCURVE",
"330 612 OFFCURVE",
"252 784 CURVE",
"183 754 LINE"
);
},
{
closed = 1;
nodes = (
"580 654 OFFCURVE",
"467 489 OFFCURVE",
"365 383 CURVE",
"337 390 LINE",
"348 271 LINE",
"523 441 OFFCURVE",
"632 589 OFFCURVE",
"711 924 CURVE",
"636 939 LINE"
);
},
{
closed = 1;
nodes = (
"513 530 LINE",
"588 394 OFFCURVE",
"628 279 OFFCURVE",
"654 135 CURVE",
"730 149 LINE",
"700 318 OFFCURVE",
"650 439 OFFCURVE",
"557 593 CURVE"
);
}
);
vertOrigin = 25;
vertWidth = 1362;
width = 913;
}
);
leftMetricsKey = u1B176;
rightMetricsKey = u1B177;
unicode = 1B1C1;
},
{
glyphname = u1B1C2;
lastChange = "2020-04-13 08:32:32 +0000";
layers = (
{
layerId = "CFFEBDE4-599A-46B2-9328-D96E42CD9C81";
paths = (
{
closed = 1;
nodes = (
"530 268 LINE",
"601 141 OFFCURVE",
"666 -3 OFFCURVE",
"710 -155 CURVE",
"779 -131 LINE",
"723 35 OFFCURVE",
"662 178 OFFCURVE",
"591 302 CURVE"
);
},
{
closed = 1;
nodes = (
"477 50 OFFCURVE",
"468 141 OFFCURVE",
"444 264 CURVE SMOOTH",
"415 415 OFFCURVE",
"374 561 OFFCURVE",
"324 670 CURVE",
"274 602 LINE",
"348 420 OFFCURVE",
"398 159 OFFCURVE",
"414 -112 CURVE",
"509 -148 LINE",
"629 -26 OFFCURVE",
"734 107 OFFCURVE",
"826 251 CURVE",
"763 290 LINE",
"730 236 OFFCURVE",
"695 185 OFFCURVE",
"657 134 CURVE SMOOTH",
"602 60 OFFCURVE",
"551 4 OFFCURVE",
"484 -71 CURVE",
"479 -70 LINE"
);
},
{
closed = 1;
nodes = (
"476 939 LINE",
"362 743 OFFCURVE",
"232 580 OFFCURVE",
"60 428 CURVE",
"110 370 LINE",
"279 522 OFFCURVE",
"427 700 OFFCURVE",
"543 902 CURVE"
);
},
{
closed = 1;
nodes = (
"602 672 LINE",
"468 472 OFFCURVE",
"346 332 OFFCURVE",
"178 186 CURVE",
"228 129 LINE",
"392 272 OFFCURVE",
"522 416 OFFCURVE",
"665 630 CURVE"
);
}
);
vertOrigin = 25;
vertWidth = 1362;
width = 906;
}
);
leftMetricsKey = u1B187;
rightMetricsKey = u1B19E;
unicode = 1B1C2;
},
{
glyphname = u1B1C3;
lastChange = "2020-04-13 08:32:51 +0000";
layers = (
{
layerId = "CFFEBDE4-599A-46B2-9328-D96E42CD9C81";
paths = (
{
closed = 1;
nodes = (
"616 842 LINE",
"637 731 OFFCURVE",
"644 643 OFFCURVE",
"649 546 CURVE SMOOTH",
"651 509 OFFCURVE",
"652 471 OFFCURVE",
"652 431 CURVE SMOOTH",
"652 296 OFFCURVE",
"649 207 OFFCURVE",
"642 111 CURVE",
"718 106 LINE",
"726 208 OFFCURVE",
"728 299 OFFCURVE",
"728 431 CURVE SMOOTH",
"728 584 OFFCURVE",
"714 730 OFFCURVE",
"678 906 CURVE",
"593 925 LINE",
"422 769 OFFCURVE",
"275 655 OFFCURVE",
"120 548 CURVE",
"142 374 OFFCURVE",
"150 260 OFFCURVE",
"150 113 CURVE SMOOTH",
"150 -8 OFFCURVE",
"147 -96 OFFCURVE",
"135 -194 CURVE",
"209 -203 LINE",
"221 -108 OFFCURVE",
"224 0 OFFCURVE",
"224 113 CURVE SMOOTH",
"224 277 OFFCURVE",
"214 404 OFFCURVE",
"195 555 CURVE",
"183 499 LINE",
"256 550 OFFCURVE",
"334 607 OFFCURVE",
"416 672 CURVE SMOOTH",
"491 732 OFFCURVE",
"539 777 OFFCURVE",
"611 843 CURVE"
);
},
{
closed = 1;
nodes = (
"253 444 LINE",
"360 360 OFFCURVE",
"473 250 OFFCURVE",
"556 144 CURVE",
"613 195 LINE",
"519 313 OFFCURVE",
"409 421 OFFCURVE",
"299 506 CURVE"
);
},
{
closed = 1;
nodes = (
"506 666 LINE",
"482 567 OFFCURVE",
"456 469 OFFCURVE",
"423 377 CURVE",
"401 334 LINE",
"365 238 OFFCURVE",
"321 143 OFFCURVE",
"268 46 CURVE",
"334 11 LINE",
"385 106 OFFCURVE",
"426 198 OFFCURVE",
"461 285 CURVE",
"483 323 LINE",
"521 425 OFFCURVE",
"552 529 OFFCURVE",
"581 649 CURVE"
);
}
);
vertOrigin = 25;
vertWidth = 1362;
width = 868;
}
);
leftMetricsKey = u1B1AB;
rightMetricsKey = u1B1AB;
unicode = 1B1C3;
},
{
glyphname = u1B1C4;
lastChange = "2020-04-13 08:33:50 +0000";
layers = (
{
layerId = "CFFEBDE4-599A-46B2-9328-D96E42CD9C81";
paths = (
{
closed = 1;
nodes = (
"472 305 OFFCURVE",
"499 246 OFFCURVE",
"594 198 CURVE",
"675 219 LINE",
"728 319 OFFCURVE",
"747 382 OFFCURVE",
"747 458 CURVE SMOOTH",
"747 534 OFFCURVE",
"718 594 OFFCURVE",
"619 655 CURVE",
"541 640 LINE",
"489 524 OFFCURVE",
"472 456 OFFCURVE",
"472 387 CURVE SMOOTH"
);
},
{
closed = 1;
nodes = (
"593 597 LINE",
"648 556 OFFCURVE",
"675 510 OFFCURVE",
"675 458 CURVE SMOOTH",
"675 401 OFFCURVE",
"663 340 OFFCURVE",
"623 253 CURVE",
"618 252 LINE",
"563 291 OFFCURVE",
"544 334 OFFCURVE",
"544 387 CURVE SMOOTH",
"544 443 OFFCURVE",
"557 511 OFFCURVE",
"588 596 CURVE"
);
},
{
closed = 1;
nodes = (
"135 344 LINE",
"274 158 OFFCURVE",
"360 -2 OFFCURVE",
"435 -203 CURVE",
"505 -177 LINE",
"456 -55 OFFCURVE",
"406 50 OFFCURVE",
"332 182 CURVE",
"320 182 LINE",
"286 254 OFFCURVE",
"240 329 OFFCURVE",
"187 401 CURVE",
"176 343 LINE",
"227 419 OFFCURVE",
"277 502 OFFCURVE",
"305 574 CURVE",
"319 574 LINE",
"388 703 OFFCURVE",
"420 802 OFFCURVE",
"457 918 CURVE",
"387 939 LINE",
"358 844 OFFCURVE",
"327 761 OFFCURVE",
"292 683 CURVE",
"270 643 LINE",
"232 565 OFFCURVE",
"188 492 OFFCURVE",
"135 415 CURVE"
);
},
{
closed = 1;
nodes = (
"180 726 OFFCURVE",
"234 665 OFFCURVE",
"295 574 CURVE",
"309 574 LINE",
"348 499 OFFCURVE",
"359 437 OFFCURVE",
"359 380 CURVE SMOOTH",
"359 323 OFFCURVE",
"348 252 OFFCURVE",
"324 182 CURVE",
"314 182 LINE",
"256 71 OFFCURVE",
"213 0 OFFCURVE",
"126 -105 CURVE",
"186 -149 LINE",
"245 -72 OFFCURVE",
"289 -1 OFFCURVE",
"329 69 CURVE",
"355 106 LINE",
"404 199 OFFCURVE",
"429 284 OFFCURVE",
"429 380 CURVE SMOOTH",
"429 529 OFFCURVE",
"361 638 OFFCURVE",
"164 854 CURVE",
"110 802 LINE"
);
}
);
vertOrigin = 25;
vertWidth = 1362;
width = 837;
}
);
leftMetricsKey = u1B181;
unicode = 1B1C4;
},
{
glyphname = u1B1C5;
lastChange = "2020-04-13 08:34:04 +0000";
layers = (
{
layerId = "CFFEBDE4-599A-46B2-9328-D96E42CD9C81";
paths = (
{
closed = 1;
nodes = (
"320 11 OFFCURVE",
"343 28 OFFCURVE",
"343 67 CURVE SMOOTH",
"343 106 OFFCURVE",
"320 123 OFFCURVE",
"292 123 CURVE SMOOTH",
"263 123 OFFCURVE",
"240 106 OFFCURVE",
"240 67 CURVE SMOOTH",
"240 28 OFFCURVE",
"263 11 OFFCURVE",
"292 11 CURVE SMOOTH"
);
},
{
closed = 1;
nodes = (
"579 385 OFFCURVE",
"602 402 OFFCURVE",
"602 441 CURVE SMOOTH",
"602 480 OFFCURVE",
"579 497 OFFCURVE",
"551 497 CURVE SMOOTH",
"522 497 OFFCURVE",
"499 480 OFFCURVE",
"499 441 CURVE SMOOTH",
"499 402 OFFCURVE",
"522 385 OFFCURVE",
"551 385 CURVE SMOOTH"
);
},
{
closed = 1;
nodes = (
"547 68 LINE",
"422 328 OFFCURVE",
"315 527 OFFCURVE",
"144 776 CURVE",
"80 731 LINE",
"248 490 OFFCURVE",
"363 278 OFFCURVE",
"480 30 CURVE"
);
},
{
closed = 1;
nodes = (
"572 939 LINE",
"492 765 OFFCURVE",
"409 614 OFFCURVE",
"319 474 CURVE",
"290 437 LINE",
"226 340 OFFCURVE",
"158 248 OFFCURVE",
"84 157 CURVE",
"145 111 LINE",
"213 195 OFFCURVE",
"277 280 OFFCURVE",
"339 373 CURVE",
"362 401 LINE",
"461 550 OFFCURVE",
"553 716 OFFCURVE",
"642 909 CURVE"
);
},
{
closed = 1;
nodes = (
"675 367 LINE",
"572 177 OFFCURVE",
"449 -2 OFFCURVE",
"313 -155 CURVE",
"372 -203 LINE",
"520 -33 OFFCURVE",
"631 128 OFFCURVE",
"743 331 CURVE"
);
}
);
vertOrigin = 25;
vertWidth = 1362;
width = 813;
}
);
leftMetricsKey = u1B180;
rightMetricsKey = u1B180;
unicode = 1B1C5;
},
{
glyphname = u1B1C6;
lastChange = "2020-04-11 15:32:52 +0000";
layers = (
{
layerId = "CFFEBDE4-599A-46B2-9328-D96E42CD9C81";
paths = (
{
closed = 1;
nodes = (
"308 17 OFFCURVE",
"331 34 OFFCURVE",
"331 73 CURVE SMOOTH",
"331 112 OFFCURVE",
"308 129 OFFCURVE",
"280 129 CURVE SMOOTH",
"251 129 OFFCURVE",
"228 112 OFFCURVE",
"228 73 CURVE SMOOTH",
"228 34 OFFCURVE",
"251 17 OFFCURVE",
"280 17 CURVE SMOOTH"
);
},
{
closed = 1;
nodes = (
"584 405 OFFCURVE",
"607 422 OFFCURVE",
"607 461 CURVE SMOOTH",
"607 500 OFFCURVE",
"584 517 OFFCURVE",
"556 517 CURVE SMOOTH",
"527 517 OFFCURVE",
"504 500 OFFCURVE",
"504 461 CURVE SMOOTH",
"504 422 OFFCURVE",
"527 405 OFFCURVE",
"556 405 CURVE SMOOTH"
);
},
{
closed = 1;
nodes = (
"274 432 LINE",
"362 290 OFFCURVE",
"433 170 OFFCURVE",
"501 22 CURVE",
"566 62 LINE",
"493 217 OFFCURVE",
"416 352 OFFCURVE",
"316 505 CURVE"
);
},
{
closed = 1;
nodes = (
"552 939 LINE",
"412 658 OFFCURVE",
"213 362 OFFCURVE",
"60 165 CURVE",
"118 120 LINE",
"269 310 OFFCURVE",
"479 629 OFFCURVE",
"621 910 CURVE"
);
},
{
closed = 1;
nodes = (
"690 367 LINE",
"583 180 OFFCURVE",
"449 -11 OFFCURVE",
"322 -155 CURVE",
"378 -203 LINE",
"524 -34 OFFCURVE",
"636 129 OFFCURVE",
"756 331 CURVE"
);
}
);
vertOrigin = 25;
vertWidth = 1362;
width = 826;
}
);
leftMetricsKey = u1B183;
rightMetricsKey = u1B183;
unicode = 1B1C6;
},
{
glyphname = u1B1C7;
lastChange = "2020-04-13 08:40:29 +0000";
layers = (
{
layerId = "CFFEBDE4-599A-46B2-9328-D96E42CD9C81";
paths = (
{
closed = 1;
nodes = (
"271 895 LINE",
"376 581 OFFCURVE",
"416 361 OFFCURVE",
"416 76 CURVE SMOOTH",
"416 -26 OFFCURVE",
"412 -107 OFFCURVE",
"403 -194 CURVE",
"477 -203 LINE",
"484 -110 OFFCURVE",
"492 -22 OFFCURVE",
"492 83 CURVE SMOOTH",
"492 355 OFFCURVE",
"453 602 OFFCURVE",
"342 922 CURVE"
);
},
{
closed = 1;
nodes = (
"705 162 OFFCURVE",
"728 179 OFFCURVE",
"728 218 CURVE SMOOTH",
"728 257 OFFCURVE",
"705 274 OFFCURVE",
"677 274 CURVE SMOOTH",
"648 274 OFFCURVE",
"625 257 OFFCURVE",
"625 218 CURVE SMOOTH",
"625 179 OFFCURVE",
"648 162 OFFCURVE",
"677 162 CURVE SMOOTH"
);
},
{
closed = 1;
nodes = (
"251 -35 OFFCURVE",
"274 -18 OFFCURVE",
"274 21 CURVE SMOOTH",
"274 60 OFFCURVE",
"251 77 OFFCURVE",
"223 77 CURVE SMOOTH",
"194 77 OFFCURVE",
"171 60 OFFCURVE",
"171 21 CURVE SMOOTH",
"171 -18 OFFCURVE",
"194 -35 OFFCURVE",
"223 -35 CURVE SMOOTH"
);
},
{
closed = 1;
nodes = (
"654 926 LINE",
"562 851 OFFCURVE",
"473 784 OFFCURVE",
"381 724 CURVE",
"356 711 LINE",
"262 650 OFFCURVE",
"165 595 OFFCURVE",
"60 542 CURVE",
"94 474 LINE",
"192 523 OFFCURVE",
"284 576 OFFCURVE",
"375 633 CURVE",
"400 645 LINE",
"502 712 OFFCURVE",
"602 786 OFFCURVE",
"704 869 CURVE"
);
},
{
closed = 1;
nodes = (
"631 725 OFFCURVE",
"647 684 OFFCURVE",
"647 632 CURVE SMOOTH",
"647 561 OFFCURVE",
"606 502 OFFCURVE",
"444 408 CURVE",
"419 398 LINE",
"348 359 OFFCURVE",
"258 314 OFFCURVE",
"142 261 CURVE",
"174 192 LINE",
"280 241 OFFCURVE",
"366 284 OFFCURVE",
"436 322 CURVE",
"453 327 LINE",
"677 453 OFFCURVE",
"723 531 OFFCURVE",
"723 632 CURVE SMOOTH",
"723 711 OFFCURVE",
"700 766 OFFCURVE",
"621 864 CURVE",
"582 793 LINE"
);
}
);
vertOrigin = 25;
vertWidth = 1362;
width = 848;
}
);
leftMetricsKey = u1B1B3;
rightMetricsKey = u1B1B3;
unicode = 1B1C7;
},
{
glyphname = u1B1C8;
lastChange = "2020-04-13 08:34:29 +0000";
layers = (
{
layerId = "CFFEBDE4-599A-46B2-9328-D96E42CD9C81";
paths = (
{
closed = 1;
nodes = (
"502 649 LINE",
"420 464 OFFCURVE",
"339 307 OFFCURVE",
"232 136 CURVE",
"285 91 LINE",
"397 267 OFFCURVE",
"470 401 OFFCURVE",
"544 563 CURVE"
);
},
{
closed = 1;
nodes = (
"364 887 LINE",
"275 693 OFFCURVE",
"183 514 OFFCURVE",
"90 360 CURVE",
"188 179 OFFCURVE",
"263 17 OFFCURVE",
"321 -143 CURVE",
"412 -151 LINE",
"526 23 OFFCURVE",
"610 166 OFFCURVE",
"704 351 CURVE",
"628 526 OFFCURVE",
"552 692 OFFCURVE",
"453 882 CURVE"
);
},
{
closed = 1;
nodes = (
"409 817 LINE",
"450 721 OFFCURVE",
"485 656 OFFCURVE",
"525 570 CURVE SMOOTH",
"565 483 OFFCURVE",
"605 392 OFFCURVE",
"648 290 CURVE",
"652 418 LINE",
"612 334 OFFCURVE",
"571 254 OFFCURVE",
"528 178 CURVE SMOOTH",
"476 85 OFFCURVE",
"423 0 OFFCURVE",
"374 -86 CURVE",
"370 -86 LINE",
"343 -1 OFFCURVE",
"312 83 OFFCURVE",
"271 170 CURVE SMOOTH",
"235 246 OFFCURVE",
"194 323 OFFCURVE",
"150 403 CURVE",
"157 325 LINE",
"212 421 OFFCURVE",
"259 507 OFFCURVE",
"301 589 CURVE SMOOTH",
"346 678 OFFCURVE",
"371 730 OFFCURVE",
"405 817 CURVE"
);
}
);
vertOrigin = 30;
vertWidth = 1362;
width = 794;
}
);
leftMetricsKey = u1B1B4;
rightMetricsKey = u1B1B4;
unicode = 1B1C8;
},
{
glyphname = u1B1C9;
lastChange = "2020-04-13 08:34:48 +0000";
layers = (
{
layerId = "CFFEBDE4-599A-46B2-9328-D96E42CD9C81";
paths = (
{
closed = 1;
nodes = (
"276 157 LINE",
"249 104 OFFCURVE",
"224 59 OFFCURVE",
"199 19 CURVE",
"176 -10 LINE",
"142 -59 OFFCURVE",
"106 -104 OFFCURVE",
"60 -154 CURVE",
"112 -203 LINE",
"158 -150 OFFCURVE",
"192 -107 OFFCURVE",
"222 -64 CURVE",
"248 -31 LINE",
"278 15 OFFCURVE",
"305 63 OFFCURVE",
"340 126 CURVE"
);
},
{
closed = 1;
nodes = (
"66 88 LINE",
"158 -5 OFFCURVE",
"219 -83 OFFCURVE",
"282 -182 CURVE",
"341 -143 LINE",
"268 -34 OFFCURVE",
"200 49 OFFCURVE",
"116 138 CURVE"
);
},
{
closed = 1;
nodes = (
"521 754 OFFCURVE",
"540 711 OFFCURVE",
"540 667 CURVE SMOOTH",
"540 571 OFFCURVE",
"470 506 OFFCURVE",
"149 332 CURVE",
"186 266 LINE",
"521 454 OFFCURVE",
"616 536 OFFCURVE",
"616 667 CURVE SMOOTH",
"616 738 OFFCURVE",
"590 795 OFFCURVE",
"507 884 CURVE",
"468 813 LINE"
);
},
{
closed = 1;
nodes = (
"527 -33 LINE",
"518 121 OFFCURVE",
"498 278 OFFCURVE",
"459 458 CURVE",
"391 413 LINE",
"428 229 OFFCURVE",
"442 111 OFFCURVE",
"451 -41 CURVE"
);
},
{
closed = 1;
nodes = (
"560 939 LINE",
"407 796 OFFCURVE",
"261 701 OFFCURVE",
"73 584 CURVE",
"112 521 LINE",
"300 637 OFFCURVE",
"446 733 OFFCURVE",
"613 888 CURVE"
);
}
);
vertOrigin = 25;
vertWidth = 1362;
width = 746;
}
);
rightMetricsKey = u1B179;
unicode = 1B1C9;
},
{
glyphname = u1B1CA;
lastChange = "2020-04-13 08:35:02 +0000";
layers = (
{
layerId = "CFFEBDE4-599A-46B2-9328-D96E42CD9C81";
paths = (
{
closed = 1;
nodes = (
"472 168 LINE",
"513 207 OFFCURVE",
"548 244 OFFCURVE",
"581 282 CURVE SMOOTH",
"615 321 OFFCURVE",
"648 370 OFFCURVE",
"678 431 CURVE",
"683 430 LINE",
"689 330 OFFCURVE",
"698 256 OFFCURVE",
"694 139 CURVE",
"768 139 LINE",
"769 266 OFFCURVE",
"761 352 OFFCURVE",
"736 484 CURVE",
"649 499 LINE",
"579 387 OFFCURVE",
"520 314 OFFCURVE",
"439 233 CURVE"
);
},
{
closed = 1;
nodes = (
"516 -200 LINE",
"516 240 OFFCURVE",
"458 454 OFFCURVE",
"339 704 CURVE",
"294 626 LINE",
"401 399 OFFCURVE",
"445 202 OFFCURVE",
"440 -203 CURVE"
);
},
{
closed = 1;
nodes = (
"477 939 LINE",
"363 743 OFFCURVE",
"232 578 OFFCURVE",
"60 426 CURVE",
"109 369 LINE",
"278 521 OFFCURVE",
"427 702 OFFCURVE",
"543 904 CURVE"
);
},
{
closed = 1;
nodes = (
"582 727 LINE",
"525 634 OFFCURVE",
"469 558 OFFCURVE",
"408 489 CURVE",
"380 461 LINE",
"311 383 OFFCURVE",
"235 312 OFFCURVE",
"145 231 CURVE",
"193 175 LINE",
"274 248 OFFCURVE",
"346 315 OFFCURVE",
"414 388 CURVE",
"438 410 LINE",
"510 490 OFFCURVE",
"577 578 OFFCURVE",
"646 689 CURVE"
);
}
);
vertOrigin = 25;
vertWidth = 1362;
width = 888;
}
);
leftMetricsKey = u1B187;
unicode = 1B1CA;
},
{
glyphname = u1B1CB;
lastChange = "2020-04-13 08:35:18 +0000";
layers = (
{
layerId = "CFFEBDE4-599A-46B2-9328-D96E42CD9C81";
paths = (
{
closed = 1;
nodes = (
"233 177 OFFCURVE",
"256 194 OFFCURVE",
"256 233 CURVE SMOOTH",
"256 272 OFFCURVE",
"233 289 OFFCURVE",
"205 289 CURVE SMOOTH",
"176 289 OFFCURVE",
"153 272 OFFCURVE",
"153 233 CURVE SMOOTH",
"153 194 OFFCURVE",
"176 177 OFFCURVE",
"205 177 CURVE SMOOTH"
);
},
{
closed = 1;
nodes = (
"150 -18 OFFCURVE",
"173 -1 OFFCURVE",
"173 38 CURVE SMOOTH",
"173 77 OFFCURVE",
"150 94 OFFCURVE",
"122 94 CURVE SMOOTH",
"93 94 OFFCURVE",
"70 77 OFFCURVE",
"70 38 CURVE SMOOTH",
"70 -1 OFFCURVE",
"93 -18 OFFCURVE",
"122 -18 CURVE SMOOTH"
);
},
{
closed = 1;
nodes = (
"197 495 LINE",
"336 303 OFFCURVE",
"448 116 OFFCURVE",
"562 -107 CURVE",
"628 -74 LINE",
"573 36 OFFCURVE",
"519 129 OFFCURVE",
"440 260 CURVE",
"423 260 LINE",
"386 354 OFFCURVE",
"334 438 OFFCURVE",
"236 576 CURVE",
"248 499 LINE",
"324 625 OFFCURVE",
"362 704 OFFCURVE",
"392 798 CURVE",
"415 839 LINE",
"424 864 OFFCURVE",
"433 892 OFFCURVE",
"442 918 CURVE",
"369 939 LINE",
"318 786 OFFCURVE",
"267 678 OFFCURVE",
"197 566 CURVE"
);
},
{
closed = 1;
nodes = (
"396 798 LINE",
"448 718 OFFCURVE",
"477 628 OFFCURVE",
"477 536 CURVE SMOOTH",
"477 451 OFFCURVE",
"460 357 OFFCURVE",
"427 260 CURVE",
"415 260 LINE",
"359 127 OFFCURVE",
"290 16 OFFCURVE",
"144 -155 CURVE",
"200 -203 LINE",
"477 122 OFFCURVE",
"553 342 OFFCURVE",
"553 536 CURVE SMOOTH",
"553 662 OFFCURVE",
"513 766 OFFCURVE",
"408 889 CURVE",
"365 798 LINE"
);
}
);
vertOrigin = 25;
vertWidth = 1362;
width = 738;
}
);
leftMetricsKey = u1B1B8;
rightMetricsKey = u1B17C;
unicode = 1B1CB;
},
{
glyphname = u1B1CC;
lastChange = "2020-04-13 08:35:22 +0000";
layers = (
{
layerId = "CFFEBDE4-599A-46B2-9328-D96E42CD9C81";
paths = (
{
closed = 1;
nodes = (
"558 650 LINE",
"431 512 OFFCURVE",
"343 433 OFFCURVE",
"201 335 CURVE",
"239 275 LINE",
"385 377 OFFCURVE",
"486 457 OFFCURVE",
"615 602 CURVE"
);
},
{
closed = 1;
nodes = (
"447 939 LINE",
"356 789 OFFCURVE",
"247 669 OFFCURVE",
"120 550 CURVE",
"162 417 OFFCURVE",
"175 311 OFFCURVE",
"175 187 CURVE SMOOTH",
"175 51 OFFCURVE",
"158 -64 OFFCURVE",
"120 -182 CURVE",
"191 -203 LINE",
"235 -77 OFFCURVE",
"251 46 OFFCURVE",
"251 187 CURVE SMOOTH",
"251 315 OFFCURVE",
"234 431 OFFCURVE",
"196 568 CURVE",
"190 512 LINE",
"310 626 OFFCURVE",
"420 745 OFFCURVE",
"515 903 CURVE"
);
},
{
closed = 1;
nodes = (
"369 -38 OFFCURVE",
"396 -97 OFFCURVE",
"491 -145 CURVE",
"572 -124 LINE",
"625 -24 OFFCURVE",
"644 39 OFFCURVE",
"644 115 CURVE SMOOTH",
"644 191 OFFCURVE",
"615 251 OFFCURVE",
"516 312 CURVE",
"438 297 LINE",
"386 181 OFFCURVE",
"369 113 OFFCURVE",
"369 44 CURVE SMOOTH"
);
},
{
closed = 1;
nodes = (
"490 254 LINE",
"545 213 OFFCURVE",
"572 167 OFFCURVE",
"572 115 CURVE SMOOTH",
"572 58 OFFCURVE",
"560 -3 OFFCURVE",
"520 -90 CURVE",
"515 -91 LINE",
"460 -52 OFFCURVE",
"441 -9 OFFCURVE",
"441 44 CURVE SMOOTH",
"441 100 OFFCURVE",
"454 168 OFFCURVE",
"485 253 CURVE"
);
}
);
vertOrigin = 25;
vertWidth = 1362;
width = 744;
}
);
leftMetricsKey = u1B17E;
unicode = 1B1CC;
},
{
glyphname = u1B1CD;
lastChange = "2020-04-13 08:35:51 +0000";
layers = (
{
layerId = "CFFEBDE4-599A-46B2-9328-D96E42CD9C81";
paths = (
{
closed = 1;
nodes = (
"553 939 LINE",
"420 710 OFFCURVE",
"317 577 OFFCURVE",
"159 416 CURVE",
"213 363 LINE",
"358 509 OFFCURVE",
"482 664 OFFCURVE",
"620 902 CURVE"
);
},
{
closed = 1;
nodes = (
"669 425 LINE",
"574 275 OFFCURVE",
"478 162 OFFCURVE",
"356 56 CURVE",
"404 2 LINE",
"537 119 OFFCURVE",
"638 237 OFFCURVE",
"733 387 CURVE"
);
},
{
closed = 1;
nodes = (
"340 570 LINE",
"416 419 OFFCURVE",
"458 305 OFFCURVE",
"502 149 CURVE",
"564 191 LINE",
"518 356 OFFCURVE",
"470 472 OFFCURVE",
"385 655 CURVE"
);
},
{
closed = 1;
nodes = (
"276 157 LINE",
"249 104 OFFCURVE",
"224 59 OFFCURVE",
"199 19 CURVE",
"176 -10 LINE",
"142 -59 OFFCURVE",
"106 -104 OFFCURVE",
"60 -154 CURVE",
"112 -203 LINE",
"158 -150 OFFCURVE",
"192 -107 OFFCURVE",
"222 -64 CURVE",
"248 -31 LINE",
"278 15 OFFCURVE",
"305 63 OFFCURVE",
"340 126 CURVE"
);
},
{
closed = 1;
nodes = (
"66 88 LINE",
"158 -5 OFFCURVE",
"219 -83 OFFCURVE",
"282 -182 CURVE",
"341 -143 LINE",
"268 -34 OFFCURVE",
"200 49 OFFCURVE",
"116 138 CURVE"
);
}
);
vertOrigin = 25;
vertWidth = 1362;
width = 803;
}
);
leftMetricsKey = u1B1C9;
rightMetricsKey = u1B180;
unicode = 1B1CD;
},
{
glyphname = u1B1CE;
lastChange = "2020-04-11 15:47:27 +0000";
layers = (
{
background = {
paths = (
{
closed = 1;
nodes = (
"547 237 OFFCURVE",
"513 277 OFFCURVE",
"461 328 CURVE SMOOTH",
"407 382 OFFCURVE",
"351 435 OFFCURVE",
"290 492 CURVE",
"303 443 LINE",
"386 584 OFFCURVE",
"446 711 OFFCURVE",
"513 891 CURVE",
"431 919 LINE",
"374 755 OFFCURVE",
"301 606 OFFCURVE",
"209 447 CURVE",
"349 322 OFFCURVE",
"457 216 OFFCURVE",
"557 101 CURVE",
"646 105 LINE",
"741 259 OFFCURVE",
"802 380 OFFCURVE",
"883 563 CURVE",
"804 597 LINE",
"765 509 OFFCURVE",
"731 436 OFFCURVE",
"697 370 CURVE SMOOTH",
"659 297 OFFCURVE",
"634 245 OFFCURVE",
"599 176 CURVE",
"595 176 LINE"
);
},
{
closed = 1;
nodes = (
"298 -8 LINE",
"364 82 OFFCURVE",
"413 166 OFFCURVE",
"465 280 CURVE",
"398 325 LINE",
"347 214 OFFCURVE",
"305 143 OFFCURVE",
"240 50 CURVE"
);
},
{
closed = 1;
nodes = (
"479 -147 LINE",
"361 -13 OFFCURVE",
"251 103 OFFCURVE",
"117 228 CURVE",
"60 163 LINE",
"181 51 OFFCURVE",
"307 -80 OFFCURVE",
"414 -203 CURVE"
);
}
);
};
layerId = "CFFEBDE4-599A-46B2-9328-D96E42CD9C81";
paths = (
{
closed = 1;
nodes = (
"547 223 OFFCURVE",
"509 266 OFFCURVE",
"457 318 CURVE SMOOTH",
"403 372 OFFCURVE",
"347 425 OFFCURVE",
"286 482 CURVE",
"292 447 LINE",
"375 588 OFFCURVE",
"435 715 OFFCURVE",
"502 895 CURVE",
"431 919 LINE",
"374 755 OFFCURVE",
"301 606 OFFCURVE",
"209 447 CURVE",
"349 322 OFFCURVE",
"457 216 OFFCURVE",
"557 101 CURVE",
"646 105 LINE",
"741 259 OFFCURVE",
"802 380 OFFCURVE",
"883 563 CURVE",
"813 593 LINE",
"774 505 OFFCURVE",
"740 432 OFFCURVE",
"706 366 CURVE SMOOTH",
"668 293 OFFCURVE",
"634 231 OFFCURVE",
"599 162 CURVE",
"595 162 LINE"
);
},
{
closed = 1;
nodes = (
"288 -3 LINE",
"354 87 OFFCURVE",
"403 171 OFFCURVE",
"455 285 CURVE",
"398 325 LINE",
"347 214 OFFCURVE",
"305 143 OFFCURVE",
"240 50 CURVE"
);
},
{
closed = 1;
nodes = (
"469 -155 LINE",
"351 -21 OFFCURVE",
"245 93 OFFCURVE",
"111 218 CURVE",
"60 163 LINE",
"181 51 OFFCURVE",
"307 -80 OFFCURVE",
"414 -203 CURVE"
);
}
);
vertOrigin = 25;
vertWidth = 1362;
width = 923;
}
);
unicode = 1B1CE;
},
{
glyphname = u1B1CF;
lastChange = "2020-04-13 08:36:16 +0000";
layers = (
{
layerId = "CFFEBDE4-599A-46B2-9328-D96E42CD9C81";
paths = (
{
closed = 1;
nodes = (
"245 333 LINE",
"222 433 OFFCURVE",
"186 515 OFFCURVE",
"126 634 CURVE",
"60 601 LINE",
"119 488 OFFCURVE",
"153 410 OFFCURVE",
"192 286 CURVE",
"286 270 LINE",
"342 334 OFFCURVE",
"392 399 OFFCURVE",
"439 468 CURVE",
"463 498 LINE",
"539 615 OFFCURVE",
"609 744 OFFCURVE",
"693 908 CURVE",
"623 939 LINE",
"547 785 OFFCURVE",
"486 671 OFFCURVE",
"436 592 CURVE",
"420 573 LINE",
"403 549 OFFCURVE",
"400 545 OFFCURVE",
"397 541 CURVE SMOOTH",
"346 468 OFFCURVE",
"295 396 OFFCURVE",
"250 332 CURVE"
);
},
{
closed = 1;
nodes = (
"482 -203 LINE",
"508 -74 OFFCURVE",
"517 33 OFFCURVE",
"517 193 CURVE SMOOTH",
"517 422 OFFCURVE",
"453 634 OFFCURVE",
"301 886 CURVE",
"236 849 LINE",
"389 594 OFFCURVE",
"441 414 OFFCURVE",
"441 193 CURVE SMOOTH",
"441 44 OFFCURVE",
"434 -64 OFFCURVE",
"409 -190 CURVE"
);
},
{
closed = 1;
nodes = (
"688 408 OFFCURVE",
"711 425 OFFCURVE",
"711 464 CURVE SMOOTH",
"711 503 OFFCURVE",
"688 520 OFFCURVE",
"660 520 CURVE SMOOTH",
"631 520 OFFCURVE",
"608 503 OFFCURVE",
"608 464 CURVE SMOOTH",
"608 425 OFFCURVE",
"631 408 OFFCURVE",
"660 408 CURVE SMOOTH"
);
},
{
closed = 1;
nodes = (
"714 163 OFFCURVE",
"737 180 OFFCURVE",
"737 219 CURVE SMOOTH",
"737 258 OFFCURVE",
"714 275 OFFCURVE",
"686 275 CURVE SMOOTH",
"657 275 OFFCURVE",
"634 258 OFFCURVE",
"634 219 CURVE SMOOTH",
"634 180 OFFCURVE",
"657 163 OFFCURVE",
"686 163 CURVE SMOOTH"
);
}
);
vertOrigin = 25;
vertWidth = 1362;
width = 857;
}
);
rightMetricsKey = u1B1B5;
unicode = 1B1CF;
},
{
glyphname = u1B1D0;
lastChange = "2020-04-13 08:36:21 +0000";
layers = (
{
layerId = "CFFEBDE4-599A-46B2-9328-D96E42CD9C81";
paths = (
{
closed = 1;
nodes = (
"229 145 OFFCURVE",
"207 90 OFFCURVE",
"207 32 CURVE SMOOTH",
"207 -105 OFFCURVE",
"294 -203 OFFCURVE",
"482 -203 CURVE",
"485 -131 LINE",
"336 -131 OFFCURVE",
"281 -68 OFFCURVE",
"281 37 CURVE SMOOTH",
"281 98 OFFCURVE",
"304 141 OFFCURVE",
"360 169 CURVE",
"340 257 LINE",
"206 257 OFFCURVE",
"144 318 OFFCURVE",
"144 432 CURVE SMOOTH",
"144 502 OFFCURVE",
"169 548 OFFCURVE",
"229 593 CURVE",
"186 648 LINE",
"106 593 OFFCURVE",
"70 515 OFFCURVE",
"70 429 CURVE SMOOTH",
"70 297 OFFCURVE",
"149 200 OFFCURVE",
"290 199 CURVE",
"291 194 LINE"
);
},
{
closed = 1;
nodes = (
"643 939 LINE",
"510 710 OFFCURVE",
"407 577 OFFCURVE",
"249 416 CURVE",
"303 363 LINE",
"448 509 OFFCURVE",
"572 664 OFFCURVE",
"710 902 CURVE"
);
},
{
closed = 1;
nodes = (
"759 425 LINE",
"664 275 OFFCURVE",
"568 162 OFFCURVE",
"446 56 CURVE",
"494 2 LINE",
"627 119 OFFCURVE",
"728 237 OFFCURVE",
"823 387 CURVE"
);
},
{
closed = 1;
nodes = (
"430 570 LINE",
"506 419 OFFCURVE",
"548 305 OFFCURVE",
"592 149 CURVE",
"654 191 LINE",
"608 356 OFFCURVE",
"560 472 OFFCURVE",
"475 655 CURVE"
);
}
);
vertOrigin = 25;
vertWidth = 1362;
width = 893;
}
);
rightMetricsKey = u1B180;
unicode = 1B1D0;
},
{
glyphname = u1B1D1;
lastChange = "2020-04-13 08:36:30 +0000";
layers = (
{
layerId = "CFFEBDE4-599A-46B2-9328-D96E42CD9C81";
paths = (
{
closed = 1;
nodes = (
"322 383 LINE",
"410 282 OFFCURVE",
"499 163 OFFCURVE",
"596 10 CURVE",
"657 49 LINE",
"621 105 OFFCURVE",
"593 144 OFFCURVE",
"537 224 CURVE",
"520 224 LINE",
"480 300 OFFCURVE",
"438 364 OFFCURVE",
"371 441 CURVE",
"365 392 LINE",
"441 472 OFFCURVE",
"489 529 OFFCURVE",
"528 590 CURVE",
"552 606 LINE",
"568 627 OFFCURVE",
"584 650 OFFCURVE",
"600 674 CURVE",
"537 714 LINE",
"465 607 OFFCURVE",
"403 536 OFFCURVE",
"322 454 CURVE"
);
},
{
closed = 1;
nodes = (
"551 530 OFFCURVE",
"562 483 OFFCURVE",
"562 425 CURVE SMOOTH",
"562 366 OFFCURVE",
"550 293 OFFCURVE",
"524 224 CURVE",
"508 224 LINE",
"454 114 OFFCURVE",
"403 33 OFFCURVE",
"327 -79 CURVE",
"386 -119 LINE",
"452 -24 OFFCURVE",
"497 56 OFFCURVE",
"535 126 CURVE",
"562 165 LINE",
"613 267 OFFCURVE",
"634 347 OFFCURVE",
"634 425 CURVE SMOOTH",
"634 497 OFFCURVE",
"618 554 OFFCURVE",
"543 663 CURVE",
"511 588 LINE",
"533 589 LINE"
);
},
{
closed = 1;
nodes = (
"447 939 LINE",
"356 789 OFFCURVE",
"247 669 OFFCURVE",
"120 550 CURVE",
"162 417 OFFCURVE",
"175 311 OFFCURVE",
"175 187 CURVE SMOOTH",
"175 51 OFFCURVE",
"158 -64 OFFCURVE",
"120 -182 CURVE",
"191 -203 LINE",
"235 -77 OFFCURVE",
"251 46 OFFCURVE",
"251 187 CURVE SMOOTH",
"251 315 OFFCURVE",
"234 431 OFFCURVE",
"196 568 CURVE",
"190 512 LINE",
"310 626 OFFCURVE",
"420 745 OFFCURVE",
"515 903 CURVE"
);
}
);
vertOrigin = 25;
vertWidth = 1362;
width = 767;
}
);
leftMetricsKey = u1B17E;
rightMetricsKey = u1B17C;
unicode = 1B1D1;
},
{
glyphname = u1B1D2;
lastChange = "2020-04-13 08:40:42 +0000";
layers = (
{
layerId = "CFFEBDE4-599A-46B2-9328-D96E42CD9C81";
paths = (
{
closed = 1;
nodes = (
"583 -4 OFFCURVE",
"621 -82 OFFCURVE",
"732 -141 CURVE",
"770 -83 LINE",
"684 -29 OFFCURVE",
"657 20 OFFCURVE",
"657 112 CURVE SMOOTH",
"657 180 OFFCURVE",
"682 238 OFFCURVE",
"740 290 CURVE",
"692 341 LINE",
"611 265 OFFCURVE",
"583 191 OFFCURVE",
"583 111 CURVE SMOOTH"
);
},
{
closed = 1;
nodes = (
"819 56 OFFCURVE",
"842 73 OFFCURVE",
"842 112 CURVE SMOOTH",
"842 151 OFFCURVE",
"819 168 OFFCURVE",
"791 168 CURVE SMOOTH",
"762 168 OFFCURVE",
"739 151 OFFCURVE",
"739 112 CURVE SMOOTH",
"739 73 OFFCURVE",
"762 56 OFFCURVE",
"791 56 CURVE SMOOTH"
);
},
{
closed = 1;
nodes = (
"271 895 LINE",
"376 581 OFFCURVE",
"416 361 OFFCURVE",
"416 76 CURVE SMOOTH",
"416 -26 OFFCURVE",
"412 -107 OFFCURVE",
"403 -194 CURVE",
"477 -203 LINE",
"484 -110 OFFCURVE",
"492 -22 OFFCURVE",
"492 83 CURVE SMOOTH",
"492 355 OFFCURVE",
"453 602 OFFCURVE",
"342 922 CURVE"
);
},
{
closed = 1;
nodes = (
"654 926 LINE",
"562 851 OFFCURVE",
"473 784 OFFCURVE",
"381 724 CURVE",
"356 711 LINE",
"262 650 OFFCURVE",
"165 595 OFFCURVE",
"60 542 CURVE",
"94 474 LINE",
"192 523 OFFCURVE",
"284 576 OFFCURVE",
"375 633 CURVE",
"400 645 LINE",
"502 712 OFFCURVE",
"602 786 OFFCURVE",
"704 869 CURVE"
);
},
{
closed = 1;
nodes = (
"631 725 OFFCURVE",
"647 684 OFFCURVE",
"647 632 CURVE SMOOTH",
"647 561 OFFCURVE",
"606 502 OFFCURVE",
"444 408 CURVE",
"419 398 LINE",
"348 359 OFFCURVE",
"258 314 OFFCURVE",
"142 261 CURVE",
"174 192 LINE",
"280 241 OFFCURVE",
"366 284 OFFCURVE",
"436 322 CURVE",
"453 327 LINE",
"677 453 OFFCURVE",
"723 531 OFFCURVE",
"723 632 CURVE SMOOTH",
"723 711 OFFCURVE",
"700 766 OFFCURVE",
"621 864 CURVE",
"582 793 LINE"
);
}
);
vertOrigin = 25;
vertWidth = 1362;
width = 922;
}
);
leftMetricsKey = u1B1B3;
rightMetricsKey = u1B177;
unicode = 1B1D2;
},
{
glyphname = u1B1D3;
lastChange = "2020-04-13 08:40:20 +0000";
layers = (
{
layerId = "CFFEBDE4-599A-46B2-9328-D96E42CD9C81";
paths = (
{
closed = 1;
nodes = (
"547 222 OFFCURVE",
"510 267 OFFCURVE",
"462 315 CURVE SMOOTH",
"408 369 OFFCURVE",
"354 420 OFFCURVE",
"290 479 CURVE",
"293 447 LINE",
"371 581 OFFCURVE",
"433 701 OFFCURVE",
"503 895 CURVE",
"431 919 LINE",
"374 755 OFFCURVE",
"302 610 OFFCURVE",
"209 447 CURVE",
"352 320 OFFCURVE",
"447 231 OFFCURVE",
"556 101 CURVE",
"645 106 LINE",
"741 263 OFFCURVE",
"812 396 OFFCURVE",
"883 563 CURVE",
"812 592 LINE",
"781 519 OFFCURVE",
"751 453 OFFCURVE",
"719 391 CURVE SMOOTH",
"677 310 OFFCURVE",
"644 241 OFFCURVE",
"596 161 CURVE",
"592 161 LINE"
);
},
{
closed = 1;
nodes = (
"293 -7 LINE",
"345 63 OFFCURVE",
"396 144 OFFCURVE",
"451 243 CURVE",
"474 278 LINE",
"544 394 OFFCURVE",
"603 517 OFFCURVE",
"681 699 CURVE",
"613 728 LINE",
"541 559 OFFCURVE",
"486 447 OFFCURVE",
"419 336 CURVE",
"402 301 LINE",
"349 202 OFFCURVE",
"295 122 OFFCURVE",
"242 47 CURVE"
);
},
{
closed = 1;
nodes = (
"468 -152 LINE",
"350 -18 OFFCURVE",
"242 93 OFFCURVE",
"108 218 CURVE",
"60 163 LINE",
"181 51 OFFCURVE",
"307 -80 OFFCURVE",
"414 -203 CURVE"
);
}
);
vertOrigin = 25;
vertWidth = 1362;
width = 923;
}
);
leftMetricsKey = u1B1CE;
rightMetricsKey = u1B1CE;
unicode = 1B1D3;
},
{
glyphname = u1B1D4;
lastChange = "2020-04-13 09:44:38 +0000";
layers = (
{
layerId = "CFFEBDE4-599A-46B2-9328-D96E42CD9C81";
paths = (
{
closed = 1;
nodes = (
"593 -33 LINE",
"560 363 OFFCURVE",
"488 586 OFFCURVE",
"291 901 CURVE",
"227 864 LINE",
"403 575 OFFCURVE",
"491 363 OFFCURVE",
"517 -41 CURVE"
);
},
{
closed = 1;
nodes = (
"575 939 LINE",
"519 840 OFFCURVE",
"463 756 OFFCURVE",
"400 677 CURVE",
"368 644 LINE",
"315 580 OFFCURVE",
"257 518 OFFCURVE",
"190 453 CURVE",
"243 398 LINE",
"309 464 OFFCURVE",
"363 521 OFFCURVE",
"412 579 CURVE",
"438 602 LINE",
"511 691 OFFCURVE",
"573 782 OFFCURVE",
"644 905 CURVE"
);
},
{
closed = 1;
nodes = (
"696 657 LINE",
"638 566 OFFCURVE",
"576 486 OFFCURVE",
"504 407 CURVE",
"480 388 LINE",
"426 331 OFFCURVE",
"366 273 OFFCURVE",
"297 213 CURVE",
"345 157 LINE",
"401 207 OFFCURVE",
"454 255 OFFCURVE",
"503 305 CURVE",
"529 325 LINE",
"616 415 OFFCURVE",
"692 508 OFFCURVE",
"760 616 CURVE"
);
},
{
closed = 1;
nodes = (
"80 -95 OFFCURVE",
"109 -143 OFFCURVE",
"177 -183 CURVE",
"248 -174 LINE",
"316 -95 OFFCURVE",
"334 -30 OFFCURVE",
"334 31 CURVE SMOOTH",
"334 91 OFFCURVE",
"300 132 OFFCURVE",
"232 170 CURVE",
"158 160 LINE",
"100 78 OFFCURVE",
"80 11 OFFCURVE",
"80 -38 CURVE SMOOTH"
);
},
{
closed = 1;
nodes = (
"204 116 LINE",
"244 84 OFFCURVE",
"259 49 OFFCURVE",
"259 20 CURVE SMOOTH",
"259 -23 OFFCURVE",
"249 -68 OFFCURVE",
"209 -132 CURVE",
"204 -133 LINE",
"169 -98 OFFCURVE",
"154 -67 OFFCURVE",
"154 -34 CURVE SMOOTH",
"154 8 OFFCURVE",
"167 52 OFFCURVE",
"199 115 CURVE"
);
}
);
vertOrigin = 25;
vertWidth = 1362;
width = 850;
}
);
leftMetricsKey = u1B1AA;
rightMetricsKey = u1B187;
unicode = 1B1D4;
},
{
glyphname = u1B1D5;
lastChange = "2020-04-13 08:39:56 +0000";
layers = (
{
layerId = "CFFEBDE4-599A-46B2-9328-D96E42CD9C81";
paths = (
{
closed = 1;
nodes = (
"150 493 OFFCURVE",
"173 510 OFFCURVE",
"173 549 CURVE SMOOTH",
"173 588 OFFCURVE",
"150 605 OFFCURVE",
"122 605 CURVE SMOOTH",
"93 605 OFFCURVE",
"70 588 OFFCURVE",
"70 549 CURVE SMOOTH",
"70 510 OFFCURVE",
"93 493 OFFCURVE",
"122 493 CURVE SMOOTH"
);
},
{
closed = 1;
nodes = (
"438 820 OFFCURVE",
"461 837 OFFCURVE",
"461 876 CURVE SMOOTH",
"461 915 OFFCURVE",
"438 932 OFFCURVE",
"410 932 CURVE SMOOTH",
"381 932 OFFCURVE",
"358 915 OFFCURVE",
"358 876 CURVE SMOOTH",
"358 837 OFFCURVE",
"381 820 OFFCURVE",
"410 820 CURVE SMOOTH"
);
},
{
closed = 1;
nodes = (
"620 939 LINE",
"533 786 OFFCURVE",
"454 662 OFFCURVE",
"370 547 CURVE",
"352 530 LINE",
"287 442 OFFCURVE",
"220 358 OFFCURVE",
"146 271 CURVE",
"204 222 LINE",
"271 300 OFFCURVE",
"332 375 OFFCURVE",
"392 455 CURVE",
"414 477 LINE",
"505 602 OFFCURVE",
"593 737 OFFCURVE",
"687 904 CURVE"
);
},
{
closed = 1;
nodes = (
"157 836 LINE",
"368 472 OFFCURVE",
"503 146 OFFCURVE",
"618 -203 CURVE",
"689 -178 LINE",
"576 178 OFFCURVE",
"434 498 OFFCURVE",
"222 875 CURVE"
);
},
{
closed = 1;
nodes = (
"457 257 LINE",
"372 118 OFFCURVE",
"295 14 OFFCURVE",
"194 -101 CURVE",
"251 -150 LINE",
"353 -33 OFFCURVE",
"435 75 OFFCURVE",
"517 210 CURVE"
);
}
);
vertOrigin = 25;
vertWidth = 1362;
width = 779;
}
);
leftMetricsKey = u1B18E;
rightMetricsKey = u1B194;
unicode = 1B1D5;
},
{
glyphname = u1B1D6;
lastChange = "2020-04-13 08:39:39 +0000";
layers = (
{
layerId = "CFFEBDE4-599A-46B2-9328-D96E42CD9C81";
paths = (
{
closed = 1;
nodes = (
"522 939 LINE",
"459 840 OFFCURVE",
"398 754 OFFCURVE",
"333 671 CURVE",
"303 640 LINE",
"233 554 OFFCURVE",
"158 472 OFFCURVE",
"70 384 CURVE",
"124 330 LINE",
"209 415 OFFCURVE",
"284 497 OFFCURVE",
"355 584 CURVE",
"375 603 LINE",
"447 691 OFFCURVE",
"515 787 OFFCURVE",
"588 901 CURVE"
);
},
{
closed = 1;
nodes = (
"160 831 LINE",
"389 496 OFFCURVE",
"539 199 OFFCURVE",
"685 -129 CURVE",
"754 -98 LINE",
"600 255 OFFCURVE",
"448 536 OFFCURVE",
"223 874 CURVE"
);
},
{
closed = 1;
nodes = (
"432 466 LINE",
"341 339 OFFCURVE",
"257 232 OFFCURVE",
"125 99 CURVE",
"179 45 LINE",
"301 172 OFFCURVE",
"390 278 OFFCURVE",
"486 420 CURVE"
);
},
{
closed = 1;
nodes = (
"280 -115 OFFCURVE",
"309 -163 OFFCURVE",
"377 -203 CURVE",
"448 -194 LINE",
"516 -115 OFFCURVE",
"534 -50 OFFCURVE",
"534 11 CURVE SMOOTH",
"534 71 OFFCURVE",
"500 112 OFFCURVE",
"432 150 CURVE",
"358 140 LINE",
"300 58 OFFCURVE",
"280 -9 OFFCURVE",
"280 -58 CURVE SMOOTH"
);
},
{
closed = 1;
nodes = (
"404 96 LINE",
"444 64 OFFCURVE",
"459 29 OFFCURVE",
"459 0 CURVE SMOOTH",
"459 -43 OFFCURVE",
"449 -88 OFFCURVE",
"409 -152 CURVE",
"404 -153 LINE",
"369 -118 OFFCURVE",
"354 -87 OFFCURVE",
"354 -54 CURVE SMOOTH",
"354 -12 OFFCURVE",
"367 32 OFFCURVE",
"399 95 CURVE"
);
}
);
vertOrigin = 25;
vertWidth = 1362;
width = 844;
}
);
leftMetricsKey = u1B194;
rightMetricsKey = u1B194;
unicode = 1B1D6;
},
{
glyphname = u1B1D7;
lastChange = "2020-04-13 08:39:25 +0000";
layers = (
{
layerId = "CFFEBDE4-599A-46B2-9328-D96E42CD9C81";
paths = (
{
closed = 1;
nodes = (
"156 229 LINE",
"219 169 OFFCURVE",
"242 112 OFFCURVE",
"242 34 CURVE SMOOTH",
"242 -46 OFFCURVE",
"221 -101 OFFCURVE",
"169 -160 CURVE",
"222 -203 LINE",
"285 -130 OFFCURVE",
"316 -62 OFFCURVE",
"316 32 CURVE SMOOTH",
"316 131 OFFCURVE",
"282 203 OFFCURVE",
"206 278 CURVE"
);
},
{
closed = 1;
nodes = (
"130 -18 OFFCURVE",
"153 -1 OFFCURVE",
"153 38 CURVE SMOOTH",
"153 77 OFFCURVE",
"130 94 OFFCURVE",
"102 94 CURVE SMOOTH",
"73 94 OFFCURVE",
"50 77 OFFCURVE",
"50 38 CURVE SMOOTH",
"50 -1 OFFCURVE",
"73 -18 OFFCURVE",
"102 -18 CURVE SMOOTH"
);
},
{
closed = 1;
nodes = (
"563 939 LINE",
"430 710 OFFCURVE",
"327 577 OFFCURVE",
"169 416 CURVE",
"223 363 LINE",
"368 509 OFFCURVE",
"492 664 OFFCURVE",
"630 902 CURVE"
);
},
{
closed = 1;
nodes = (
"679 425 LINE",
"584 275 OFFCURVE",
"488 162 OFFCURVE",
"366 56 CURVE",
"414 2 LINE",
"547 119 OFFCURVE",
"648 237 OFFCURVE",
"743 387 CURVE"
);
},
{
closed = 1;
nodes = (
"350 570 LINE",
"426 419 OFFCURVE",
"468 305 OFFCURVE",
"512 149 CURVE",
"574 191 LINE",
"528 356 OFFCURVE",
"480 472 OFFCURVE",
"395 655 CURVE"
);
}
);
vertOrigin = 25;
vertWidth = 1362;
width = 813;
}
);
rightMetricsKey = u1B180;
unicode = 1B1D7;
},
{
glyphname = u1B1D8;
lastChange = "2020-04-13 08:39:22 +0000";
layers = (
{
layerId = "CFFEBDE4-599A-46B2-9328-D96E42CD9C81";
paths = (
{
closed = 1;
nodes = (
"592 495 OFFCURVE",
"615 512 OFFCURVE",
"615 551 CURVE SMOOTH",
"615 590 OFFCURVE",
"592 607 OFFCURVE",
"564 607 CURVE SMOOTH",
"535 607 OFFCURVE",
"512 590 OFFCURVE",
"512 551 CURVE SMOOTH",
"512 512 OFFCURVE",
"535 495 OFFCURVE",
"564 495 CURVE SMOOTH"
);
},
{
closed = 1;
nodes = (
"592 157 OFFCURVE",
"615 174 OFFCURVE",
"615 213 CURVE SMOOTH",
"615 252 OFFCURVE",
"592 269 OFFCURVE",
"564 269 CURVE SMOOTH",
"535 269 OFFCURVE",
"512 252 OFFCURVE",
"512 213 CURVE SMOOTH",
"512 174 OFFCURVE",
"535 157 OFFCURVE",
"564 157 CURVE SMOOTH"
);
},
{
closed = 1;
nodes = (
"135 344 LINE",
"274 158 OFFCURVE",
"360 -2 OFFCURVE",
"435 -203 CURVE",
"505 -177 LINE",
"456 -55 OFFCURVE",
"406 50 OFFCURVE",
"332 182 CURVE",
"320 182 LINE",
"286 254 OFFCURVE",
"240 329 OFFCURVE",
"187 401 CURVE",
"176 343 LINE",
"227 419 OFFCURVE",
"277 502 OFFCURVE",
"305 574 CURVE",
"319 574 LINE",
"388 703 OFFCURVE",
"420 802 OFFCURVE",
"457 918 CURVE",
"384 939 LINE",
"355 843 OFFCURVE",
"326 759 OFFCURVE",
"292 681 CURVE",
"270 644 LINE",
"232 566 OFFCURVE",
"188 492 OFFCURVE",
"135 415 CURVE"
);
},
{
closed = 1;
nodes = (
"180 726 OFFCURVE",
"234 665 OFFCURVE",
"295 574 CURVE",
"309 574 LINE",
"348 499 OFFCURVE",
"359 437 OFFCURVE",
"359 380 CURVE SMOOTH",
"359 323 OFFCURVE",
"348 252 OFFCURVE",
"324 182 CURVE",
"314 182 LINE",
"256 71 OFFCURVE",
"213 0 OFFCURVE",
"126 -105 CURVE",
"186 -149 LINE",
"248 -66 OFFCURVE",
"295 6 OFFCURVE",
"333 73 CURVE",
"357 110 LINE",
"405 201 OFFCURVE",
"429 286 OFFCURVE",
"429 380 CURVE SMOOTH",
"429 529 OFFCURVE",
"361 638 OFFCURVE",
"164 854 CURVE",
"110 802 LINE"
);
}
);
vertOrigin = 25;
vertWidth = 1362;
width = 735;
}
);
leftMetricsKey = u1B181;
rightMetricsKey = u1B1B5;
unicode = 1B1D8;
},
{
glyphname = u1B1D9;
lastChange = "2020-04-13 08:38:46 +0000";
layers = (
{
layerId = "CFFEBDE4-599A-46B2-9328-D96E42CD9C81";
paths = (
{
closed = 1;
nodes = (
"434 244 OFFCURVE",
"456 162 OFFCURVE",
"456 42 CURVE SMOOTH",
"456 -37 OFFCURVE",
"446 -106 OFFCURVE",
"428 -188 CURVE",
"498 -203 LINE",
"523 -119 OFFCURVE",
"532 -45 OFFCURVE",
"532 42 CURVE SMOOTH",
"532 171 OFFCURVE",
"491 296 OFFCURVE",
"374 435 CURVE SMOOTH",
"258 573 OFFCURVE",
"237 620 OFFCURVE",
"237 723 CURVE SMOOTH",
"237 771 OFFCURVE",
"248 820 OFFCURVE",
"270 878 CURVE",
"203 899 LINE",
"174 829 OFFCURVE",
"163 774 OFFCURVE",
"163 714 CURVE SMOOTH",
"163 625 OFFCURVE",
"185 545 OFFCURVE",
"319 383 CURVE SMOOTH"
);
},
{
closed = 1;
nodes = (
"146 -42 LINE",
"158 129 OFFCURVE",
"188 215 OFFCURVE",
"349 391 CURVE",
"373 403 LINE",
"511 543 OFFCURVE",
"580 650 OFFCURVE",
"610 795 CURVE",
"628 849 LINE",
"633 873 OFFCURVE",
"639 902 OFFCURVE",
"643 930 CURVE",
"577 939 LINE",
"540 721 OFFCURVE",
"478 600 OFFCURVE",
"328 457 CURVE",
"303 443 LINE",
"139 258 OFFCURVE",
"88 171 OFFCURVE",
"70 -37 CURVE"
);
},
{
closed = 1;
nodes = (
"589 794 LINE",
"615 795 LINE",
"671 718 OFFCURVE",
"694 650 OFFCURVE",
"694 566 CURVE SMOOTH",
"694 511 OFFCURVE",
"681 458 OFFCURVE",
"660 409 CURVE",
"725 388 LINE",
"754 444 OFFCURVE",
"766 495 OFFCURVE",
"766 564 CURVE SMOOTH",
"766 680 OFFCURVE",
"724 772 OFFCURVE",
"615 893 CURVE"
);
}
);
vertOrigin = 25;
vertWidth = 1362;
width = 836;
}
);
unicode = 1B1D9;
},
{
glyphname = u1B1DA;
lastChange = "2020-04-13 08:38:43 +0000";
layers = (
{
layerId = "CFFEBDE4-599A-46B2-9328-D96E42CD9C81";
paths = (
{
closed = 1;
nodes = (
"409 10 OFFCURVE",
"432 27 OFFCURVE",
"432 66 CURVE SMOOTH",
"432 105 OFFCURVE",
"409 122 OFFCURVE",
"381 122 CURVE SMOOTH",
"352 122 OFFCURVE",
"329 105 OFFCURVE",
"329 66 CURVE SMOOTH",
"329 27 OFFCURVE",
"352 10 OFFCURVE",
"381 10 CURVE SMOOTH"
);
},
{
closed = 1;
nodes = (
"577 653 LINE",
"536 601 OFFCURVE",
"495 556 OFFCURVE",
"454 515 CURVE",
"437 503 LINE",
"368 437 OFFCURVE",
"294 380 OFFCURVE",
"201 319 CURVE",
"238 257 LINE",
"323 310 OFFCURVE",
"397 364 OFFCURVE",
"466 426 CURVE",
"484 438 LINE",
"536 488 OFFCURVE",
"586 543 OFFCURVE",
"636 606 CURVE"
);
},
{
closed = 1;
nodes = (
"321 716 LINE",
"434 476 OFFCURVE",
"477 297 OFFCURVE",
"511 87 CURVE",
"584 98 LINE",
"545 332 OFFCURVE",
"498 514 OFFCURVE",
"374 778 CURVE"
);
},
{
closed = 1;
nodes = (
"447 939 LINE",
"356 789 OFFCURVE",
"247 669 OFFCURVE",
"120 550 CURVE",
"162 417 OFFCURVE",
"175 311 OFFCURVE",
"175 187 CURVE SMOOTH",
"175 51 OFFCURVE",
"158 -64 OFFCURVE",
"120 -182 CURVE",
"191 -203 LINE",
"235 -77 OFFCURVE",
"251 46 OFFCURVE",
"251 187 CURVE SMOOTH",
"251 315 OFFCURVE",
"234 431 OFFCURVE",
"196 568 CURVE",
"190 512 LINE",
"310 626 OFFCURVE",
"420 745 OFFCURVE",
"515 903 CURVE"
);
}
);
vertOrigin = 25;
vertWidth = 1362;
width = 726;
}
);
leftMetricsKey = u1B1A5;
rightMetricsKey = u1B1A5;
unicode = 1B1DA;
},
{
glyphname = u1B1DB;
lastChange = "2020-04-13 08:38:31 +0000";
layers = (
{
layerId = "CFFEBDE4-599A-46B2-9328-D96E42CD9C81";
paths = (
{
closed = 1;
nodes = (
"278 268 OFFCURVE",
"301 285 OFFCURVE",
"301 324 CURVE SMOOTH",
"301 363 OFFCURVE",
"278 380 OFFCURVE",
"250 380 CURVE SMOOTH",
"221 380 OFFCURVE",
"198 363 OFFCURVE",
"198 324 CURVE SMOOTH",
"198 285 OFFCURVE",
"221 268 OFFCURVE",
"250 268 CURVE SMOOTH"
);
},
{
closed = 1;
nodes = (
"565 583 OFFCURVE",
"588 600 OFFCURVE",
"588 639 CURVE SMOOTH",
"588 678 OFFCURVE",
"565 695 OFFCURVE",
"537 695 CURVE SMOOTH",
"508 695 OFFCURVE",
"485 678 OFFCURVE",
"485 639 CURVE SMOOTH",
"485 600 OFFCURVE",
"508 583 OFFCURVE",
"537 583 CURVE SMOOTH"
);
},
{
closed = 1;
nodes = (
"563 -198 LINE",
"539 195 OFFCURVE",
"477 409 OFFCURVE",
"349 692 CURVE",
"297 624 LINE",
"415 363 OFFCURVE",
"467 130 OFFCURVE",
"487 -203 CURVE"
);
},
{
closed = 1;
nodes = (
"477 939 LINE",
"363 743 OFFCURVE",
"232 578 OFFCURVE",
"60 426 CURVE",
"111 370 LINE",
"283 522 OFFCURVE",
"427 698 OFFCURVE",
"543 902 CURVE"
);
},
{
closed = 1;
nodes = (
"683 608 LINE",
"608 505 OFFCURVE",
"530 415 OFFCURVE",
"447 332 CURVE",
"428 318 LINE",
"353 246 OFFCURVE",
"273 179 OFFCURVE",
"187 117 CURVE",
"232 58 LINE",
"307 112 OFFCURVE",
"379 171 OFFCURVE",
"449 235 CURVE",
"472 252 LINE",
"566 342 OFFCURVE",
"656 444 OFFCURVE",
"744 563 CURVE"
);
}
);
vertOrigin = 25;
vertWidth = 1362;
width = 834;
}
);
leftMetricsKey = u1B189;
rightMetricsKey = u1B189;
unicode = 1B1DB;
},
{
glyphname = u1B1DC;
lastChange = "2020-04-13 08:38:18 +0000";
layers = (
{
layerId = "CFFEBDE4-599A-46B2-9328-D96E42CD9C81";
paths = (
{
closed = 1;
nodes = (
"643 939 LINE",
"552 789 OFFCURVE",
"453 669 OFFCURVE",
"326 550 CURVE",
"396 392 OFFCURVE",
"417 299 OFFCURVE",
"417 167 CURVE SMOOTH",
"417 37 OFFCURVE",
"390 -60 OFFCURVE",
"341 -177 CURVE",
"410 -203 LINE",
"463 -84 OFFCURVE",
"491 32 OFFCURVE",
"491 167 CURVE SMOOTH",
"491 299 OFFCURVE",
"465 414 OFFCURVE",
"399 568 CURVE",
"385 511 LINE",
"505 623 OFFCURVE",
"614 743 OFFCURVE",
"710 902 CURVE"
);
},
{
closed = 1;
nodes = (
"758 315 LINE",
"736 497 OFFCURVE",
"696 614 OFFCURVE",
"599 777 CURVE",
"557 705 LINE",
"635 563 OFFCURVE",
"665 469 OFFCURVE",
"683 307 CURVE"
);
},
{
closed = 1;
nodes = (
"80 55 OFFCURVE",
"109 7 OFFCURVE",
"177 -33 CURVE",
"248 -24 LINE",
"316 55 OFFCURVE",
"334 120 OFFCURVE",
"334 181 CURVE SMOOTH",
"334 241 OFFCURVE",
"300 282 OFFCURVE",
"232 320 CURVE",
"158 310 LINE",
"100 228 OFFCURVE",
"80 161 OFFCURVE",
"80 112 CURVE SMOOTH"
);
},
{
closed = 1;
nodes = (
"204 266 LINE",
"244 234 OFFCURVE",
"259 199 OFFCURVE",
"259 170 CURVE SMOOTH",
"259 127 OFFCURVE",
"249 82 OFFCURVE",
"209 18 CURVE",
"204 17 LINE",
"169 52 OFFCURVE",
"154 83 OFFCURVE",
"154 116 CURVE SMOOTH",
"154 158 OFFCURVE",
"167 202 OFFCURVE",
"199 265 CURVE"
);
}
);
vertOrigin = 25;
vertWidth = 1362;
width = 858;
}
);
leftMetricsKey = u1B1AA;
rightMetricsKey = u1B17E;
unicode = 1B1DC;
},
{
glyphname = u1B1DD;
lastChange = "2020-04-13 08:38:15 +0000";
layers = (
{
layerId = "CFFEBDE4-599A-46B2-9328-D96E42CD9C81";
paths = (
{
closed = 1;
nodes = (
"438 713 LINE",
"381 606 OFFCURVE",
"328 529 OFFCURVE",
"248 422 CURVE",
"290 353 LINE",
"365 454 OFFCURVE",
"431 548 OFFCURVE",
"489 649 CURVE"
);
},
{
closed = 1;
nodes = (
"353 842 LINE",
"396 765 OFFCURVE",
"423 719 OFFCURVE",
"465 647 CURVE SMOOTH",
"486 611 OFFCURVE",
"527 533 OFFCURVE",
"573 440 CURVE",
"578 544 LINE",
"513 434 OFFCURVE",
"443 327 OFFCURVE",
"368 216 CURVE",
"337 179 LINE",
"263 72 OFFCURVE",
"183 -39 OFFCURVE",
"94 -158 CURVE",
"153 -203 LINE",
"234 -96 OFFCURVE",
"309 7 OFFCURVE",
"379 108 CURVE",
"406 139 LINE",
"488 258 OFFCURVE",
"564 374 OFFCURVE",
"635 489 CURVE",
"553 649 OFFCURVE",
"478 779 OFFCURVE",
"391 910 CURVE",
"304 908 LINE",
"244 791 OFFCURVE",
"180 688 OFFCURVE",
"90 559 CURVE",
"271 274 OFFCURVE",
"366 102 OFFCURVE",
"488 -161 CURVE",
"557 -130 LINE",
"433 138 OFFCURVE",
"326 329 OFFCURVE",
"150 607 CURVE",
"156 520 LINE",
"192 573 OFFCURVE",
"215 606 OFFCURVE",
"245 653 CURVE SMOOTH",
"286 717 OFFCURVE",
"319 774 OFFCURVE",
"349 842 CURVE"
);
}
);
vertOrigin = 25;
vertWidth = 1362;
width = 745;
}
);
unicode = 1B1DD;
},
{
glyphname = u1B1DE;
lastChange = "2020-04-13 08:37:59 +0000";
layers = (
{
layerId = "CFFEBDE4-599A-46B2-9328-D96E42CD9C81";
paths = (
{
closed = 1;
nodes = (
"417 809 OFFCURVE",
"440 826 OFFCURVE",
"440 865 CURVE SMOOTH",
"440 904 OFFCURVE",
"417 921 OFFCURVE",
"389 921 CURVE SMOOTH",
"360 921 OFFCURVE",
"337 904 OFFCURVE",
"337 865 CURVE SMOOTH",
"337 826 OFFCURVE",
"360 809 OFFCURVE",
"389 809 CURVE SMOOTH"
);
},
{
closed = 1;
nodes = (
"160 477 OFFCURVE",
"183 494 OFFCURVE",
"183 533 CURVE SMOOTH",
"183 572 OFFCURVE",
"160 589 OFFCURVE",
"132 589 CURVE SMOOTH",
"103 589 OFFCURVE",
"80 572 OFFCURVE",
"80 533 CURVE SMOOTH",
"80 494 OFFCURVE",
"103 477 OFFCURVE",
"132 477 CURVE SMOOTH"
);
},
{
closed = 1;
nodes = (
"594 939 LINE",
"510 797 OFFCURVE",
"431 676 OFFCURVE",
"350 564 CURVE",
"332 546 LINE",
"273 467 OFFCURVE",
"214 392 OFFCURVE",
"151 318 CURVE",
"207 270 LINE",
"264 337 OFFCURVE",
"317 402 OFFCURVE",
"369 472 CURVE",
"390 493 LINE",
"476 611 OFFCURVE",
"561 740 OFFCURVE",
"660 904 CURVE"
);
},
{
closed = 1;
nodes = (
"745 270 LINE",
"643 110 OFFCURVE",
"542 -18 OFFCURVE",
"410 -148 CURVE",
"460 -203 LINE",
"603 -57 OFFCURVE",
"701 61 OFFCURVE",
"810 230 CURVE"
);
},
{
closed = 1;
nodes = (
"628 43 LINE",
"510 312 OFFCURVE",
"404 524 OFFCURVE",
"209 857 CURVE",
"146 818 LINE",
"347 481 OFFCURVE",
"451 260 OFFCURVE",
"568 0 CURVE"
);
},
{
closed = 1;
nodes = (
"656 571 LINE",
"596 482 OFFCURVE",
"536 397 OFFCURVE",
"474 316 CURVE",
"453 296 LINE",
"395 223 OFFCURVE",
"336 153 OFFCURVE",
"274 85 CURVE",
"329 35 LINE",
"385 97 OFFCURVE",
"439 160 OFFCURVE",
"492 226 CURVE",
"515 249 LINE",
"584 337 OFFCURVE",
"651 430 OFFCURVE",
"719 532 CURVE"
);
}
);
vertOrigin = 25;
vertWidth = 1362;
width = 890;
}
);
rightMetricsKey = u1B197;
unicode = 1B1DE;
},
{
glyphname = u1B1DF;
lastChange = "2020-04-13 08:37:40 +0000";
layers = (
{
layerId = "CFFEBDE4-599A-46B2-9328-D96E42CD9C81";
paths = (
{
closed = 1;
nodes = (
"369 913 LINE",
"277 714 OFFCURVE",
"209 599 OFFCURVE",
"99 443 CURVE",
"158 397 LINE",
"274 558 OFFCURVE",
"347 683 OFFCURVE",
"440 887 CURVE"
);
},
{
closed = 1;
nodes = (
"596 504 LINE",
"522 361 OFFCURVE",
"442 245 OFFCURVE",
"355 135 CURVE",
"414 86 LINE",
"507 204 OFFCURVE",
"585 321 OFFCURVE",
"665 470 CURVE"
);
},
{
closed = 1;
nodes = (
"478 494 OFFCURVE",
"501 511 OFFCURVE",
"501 550 CURVE SMOOTH",
"501 589 OFFCURVE",
"478 606 OFFCURVE",
"450 606 CURVE SMOOTH",
"421 606 OFFCURVE",
"398 589 OFFCURVE",
"398 550 CURVE SMOOTH",
"398 511 OFFCURVE",
"421 494 OFFCURVE",
"450 494 CURVE SMOOTH"
);
},
{
closed = 1;
nodes = (
"354 292 OFFCURVE",
"377 309 OFFCURVE",
"377 348 CURVE SMOOTH",
"377 387 OFFCURVE",
"354 404 OFFCURVE",
"326 404 CURVE SMOOTH",
"297 404 OFFCURVE",
"274 387 OFFCURVE",
"274 348 CURVE SMOOTH",
"274 309 OFFCURVE",
"297 292 OFFCURVE",
"326 292 CURVE SMOOTH"
);
},
{
closed = 1;
nodes = (
"189 126 LINE",
"206 45 LINE",
"238 -17 OFFCURVE",
"259 -64 OFFCURVE",
"297 -165 CURVE",
"368 -138 LINE",
"322 -20 OFFCURVE",
"277 60 OFFCURVE",
"203 161 CURVE"
);
},
{
closed = 1;
nodes = (
"162 226 LINE",
"145 60 OFFCURVE",
"118 -53 OFFCURVE",
"70 -183 CURVE",
"142 -203 LINE",
"177 -102 OFFCURVE",
"191 -28 OFFCURVE",
"201 44 CURVE",
"220 49 LINE",
"226 82 OFFCURVE",
"232 186 OFFCURVE",
"235 218 CURVE"
);
}
);
vertOrigin = 25;
vertWidth = 1362;
width = 743;
}
);
leftMetricsKey = u1B1B9;
unicode = 1B1DF;
},
{
glyphname = u1B1E0;
lastChange = "2020-04-13 08:37:36 +0000";
layers = (
{
layerId = "CFFEBDE4-599A-46B2-9328-D96E42CD9C81";
paths = (
{
closed = 1;
nodes = (
"490 939 LINE",
"441 760 OFFCURVE",
"395 670 OFFCURVE",
"310 551 CURVE",
"347 487 LINE",
"446 612 OFFCURVE",
"512 740 OFFCURVE",
"562 920 CURVE"
);
},
{
closed = 1;
nodes = (
"641 700 LINE",
"548 512 OFFCURVE",
"466 411 OFFCURVE",
"360 326 CURVE",
"388 253 LINE",
"505 347 OFFCURVE",
"613 475 OFFCURVE",
"707 669 CURVE"
);
},
{
closed = 1;
nodes = (
"160 211 OFFCURVE",
"183 228 OFFCURVE",
"183 267 CURVE SMOOTH",
"183 306 OFFCURVE",
"160 323 OFFCURVE",
"132 323 CURVE SMOOTH",
"103 323 OFFCURVE",
"80 306 OFFCURVE",
"80 267 CURVE SMOOTH",
"80 228 OFFCURVE",
"103 211 OFFCURVE",
"132 211 CURVE SMOOTH"
);
},
{
closed = 1;
nodes = (
"613 129 OFFCURVE",
"636 146 OFFCURVE",
"636 185 CURVE SMOOTH",
"636 224 OFFCURVE",
"613 241 OFFCURVE",
"585 241 CURVE SMOOTH",
"556 241 OFFCURVE",
"533 224 OFFCURVE",
"533 185 CURVE SMOOTH",
"533 146 OFFCURVE",
"556 129 OFFCURVE",
"585 129 CURVE SMOOTH"
);
},
{
closed = 1;
nodes = (
"595 -101 OFFCURVE",
"618 -84 OFFCURVE",
"618 -45 CURVE SMOOTH",
"618 -6 OFFCURVE",
"595 11 OFFCURVE",
"567 11 CURVE SMOOTH",
"538 11 OFFCURVE",
"515 -6 OFFCURVE",
"515 -45 CURVE SMOOTH",
"515 -84 OFFCURVE",
"538 -101 OFFCURVE",
"567 -101 CURVE SMOOTH"
);
},
{
closed = 1;
nodes = (
"379 -203 LINE",
"399 -102 OFFCURVE",
"409 0 OFFCURVE",
"409 126 CURVE SMOOTH",
"409 379 OFFCURVE",
"355 594 OFFCURVE",
"203 846 CURVE",
"140 807 LINE",
"294 552 OFFCURVE",
"333 371 OFFCURVE",
"333 126 CURVE SMOOTH",
"333 11 OFFCURVE",
"322 -83 OFFCURVE",
"304 -191 CURVE"
);
}
);
vertOrigin = 25;
vertWidth = 1362;
width = 797;
}
);
leftMetricsKey = u1B176;
unicode = 1B1E0;
},
{
glyphname = u1B1E1;
lastChange = "2020-04-13 08:37:33 +0000";
layers = (
{
layerId = "CFFEBDE4-599A-46B2-9328-D96E42CD9C81";
paths = (
{
closed = 1;
nodes = (
"741 698 OFFCURVE",
"764 715 OFFCURVE",
"764 754 CURVE SMOOTH",
"764 793 OFFCURVE",
"741 810 OFFCURVE",
"713 810 CURVE SMOOTH",
"684 810 OFFCURVE",
"661 793 OFFCURVE",
"661 754 CURVE SMOOTH",
"661 715 OFFCURVE",
"684 698 OFFCURVE",
"713 698 CURVE SMOOTH"
);
},
{
closed = 1;
nodes = (
"160 603 OFFCURVE",
"183 620 OFFCURVE",
"183 659 CURVE SMOOTH",
"183 698 OFFCURVE",
"160 715 OFFCURVE",
"132 715 CURVE SMOOTH",
"103 715 OFFCURVE",
"80 698 OFFCURVE",
"80 659 CURVE SMOOTH",
"80 620 OFFCURVE",
"103 603 OFFCURVE",
"132 603 CURVE SMOOTH"
);
},
{
closed = 1;
nodes = (
"553 559 LINE",
"524 454 OFFCURVE",
"494 364 OFFCURVE",
"458 278 CURVE",
"437 238 LINE",
"378 108 OFFCURVE",
"304 -14 OFFCURVE",
"200 -161 CURVE",
"260 -203 LINE",
"360 -59 OFFCURVE",
"430 55 OFFCURVE",
"486 174 CURVE",
"503 203 LINE",
"545 296 OFFCURVE",
"580 395 OFFCURVE",
"614 515 CURVE"
);
},
{
closed = 1;
nodes = (
"273 448 LINE",
"428 233 OFFCURVE",
"522 84 OFFCURVE",
"618 -119 CURVE",
"687 -86 LINE",
"573 144 OFFCURVE",
"472 298 OFFCURVE",
"314 512 CURVE"
);
},
{
closed = 1;
nodes = (
"387 939 LINE",
"330 640 OFFCURVE",
"254 479 OFFCURVE",
"98 260 CURVE",
"157 216 LINE",
"321 444 OFFCURVE",
"401 612 OFFCURVE",
"463 927 CURVE"
);
},
{
closed = 1;
nodes = (
"384 732 LINE",
"519 594 OFFCURVE",
"637 445 OFFCURVE",
"749 273 CURVE",
"811 315 LINE",
"694 490 OFFCURVE",
"579 637 OFFCURVE",
"421 796 CURVE"
);
}
);
vertOrigin = 25;
vertWidth = 1362;
width = 901;
}
);
leftMetricsKey = u1B185;
rightMetricsKey = u1B185;
unicode = 1B1E1;
},
{
glyphname = u1B1E2;
lastChange = "2020-04-13 08:37:19 +0000";
layers = (
{
layerId = "CFFEBDE4-599A-46B2-9328-D96E42CD9C81";
paths = (
{
closed = 1;
nodes = (
"437 -64 LINE",
"430 17 OFFCURVE",
"421 83 OFFCURVE",
"405 175 CURVE SMOOTH",
"392 249 OFFCURVE",
"376 326 OFFCURVE",
"355 410 CURVE",
"282 391 LINE",
"332 202 OFFCURVE",
"356 62 OFFCURVE",
"376 -106 CURVE",
"468 -136 LINE",
"517 -86 OFFCURVE",
"563 -36 OFFCURVE",
"606 18 CURVE",
"632 45 LINE",
"671 96 OFFCURVE",
"709 151 OFFCURVE",
"747 210 CURVE",
"684 250 LINE",
"657 206 OFFCURVE",
"629 164 OFFCURVE",
"600 123 CURVE",
"575 94 LINE",
"531 34 OFFCURVE",
"490 -12 OFFCURVE",
"442 -65 CURVE"
);
},
{
closed = 1;
nodes = (
"486 278 LINE",
"556 129 OFFCURVE",
"598 12 OFFCURVE",
"629 -138 CURVE",
"701 -124 LINE",
"663 30 OFFCURVE",
"619 158 OFFCURVE",
"551 307 CURVE"
);
},
{
closed = 1;
nodes = (
"133 178 LINE",
"162 54 OFFCURVE",
"178 -54 OFFCURVE",
"185 -203 CURVE",
"256 -199 LINE",
"249 -49 OFFCURVE",
"232 63 OFFCURVE",
"201 196 CURVE"
);
},
{
closed = 1;
nodes = (
"365 939 LINE",
"294 694 OFFCURVE",
"222 562 OFFCURVE",
"80 398 CURVE",
"137 348 LINE",
"286 526 OFFCURVE",
"362 655 OFFCURVE",
"441 923 CURVE"
);
},
{
closed = 1;
nodes = (
"364 784 LINE",
"488 642 OFFCURVE",
"575 526 OFFCURVE",
"645 383 CURVE",
"712 420 LINE",
"623 586 OFFCURVE",
"541 694 OFFCURVE",
"413 838 CURVE"
);
}
);
vertOrigin = 25;
vertWidth = 1362;
width = 837;
}
);
leftMetricsKey = u1B185;
rightMetricsKey = u1B185;
unicode = 1B1E2;
},
{
glyphname = u1B1E3;
lastChange = "2020-04-13 08:37:03 +0000";
layers = (
{
layerId = "CFFEBDE4-599A-46B2-9328-D96E42CD9C81";
paths = (
{
closed = 1;
nodes = (
"156 206 OFFCURVE",
"179 223 OFFCURVE",
"179 262 CURVE SMOOTH",
"179 301 OFFCURVE",
"156 318 OFFCURVE",
"128 318 CURVE SMOOTH",
"99 318 OFFCURVE",
"76 301 OFFCURVE",
"76 262 CURVE SMOOTH",
"76 223 OFFCURVE",
"99 206 OFFCURVE",
"128 206 CURVE SMOOTH"
);
},
{
closed = 1;
nodes = (
"150 -4 OFFCURVE",
"173 13 OFFCURVE",
"173 52 CURVE SMOOTH",
"173 91 OFFCURVE",
"150 108 OFFCURVE",
"122 108 CURVE SMOOTH",
"93 108 OFFCURVE",
"70 91 OFFCURVE",
"70 52 CURVE SMOOTH",
"70 13 OFFCURVE",
"93 -4 OFFCURVE",
"122 -4 CURVE SMOOTH"
);
},
{
closed = 1;
nodes = (
"537 939 LINE",
"446 789 OFFCURVE",
"347 669 OFFCURVE",
"220 550 CURVE",
"290 392 OFFCURVE",
"311 299 OFFCURVE",
"311 167 CURVE SMOOTH",
"311 37 OFFCURVE",
"284 -60 OFFCURVE",
"235 -177 CURVE",
"304 -203 LINE",
"357 -84 OFFCURVE",
"385 32 OFFCURVE",
"385 167 CURVE SMOOTH",
"385 299 OFFCURVE",
"359 414 OFFCURVE",
"293 568 CURVE",
"279 511 LINE",
"399 623 OFFCURVE",
"508 743 OFFCURVE",
"604 902 CURVE"
);
},
{
closed = 1;
nodes = (
"677 653 LINE",
"632 597 OFFCURVE",
"589 549 OFFCURVE",
"545 505 CURVE",
"526 492 LINE",
"462 432 OFFCURVE",
"395 380 OFFCURVE",
"316 327 CURVE",
"338 257 LINE",
"415 304 OFFCURVE",
"482 353 OFFCURVE",
"545 408 CURVE",
"563 419 LINE",
"623 474 OFFCURVE",
"680 535 OFFCURVE",
"736 606 CURVE"
);
},
{
closed = 1;
nodes = (
"421 716 LINE",
"516 476 OFFCURVE",
"555 297 OFFCURVE",
"577 87 CURVE",
"651 93 LINE",
"624 327 OFFCURVE",
"580 514 OFFCURVE",
"474 778 CURVE"
);
}
);
vertOrigin = 25;
vertWidth = 1362;
width = 826;
}
);
leftMetricsKey = u1B1B8;
rightMetricsKey = u1B1A5;
unicode = 1B1E3;
},
{
glyphname = u1B1E4;
lastChange = "2020-04-13 08:36:50 +0000";
layers = (
{
layerId = "CFFEBDE4-599A-46B2-9328-D96E42CD9C81";
paths = (
{
closed = 1;
nodes = (
"493 939 LINE",
"353 778 OFFCURVE",
"226 662 OFFCURVE",
"60 541 CURVE",
"104 479 LINE",
"273 603 OFFCURVE",
"397 713 OFFCURVE",
"553 892 CURVE"
);
},
{
closed = 1;
nodes = (
"594 727 LINE",
"529 658 OFFCURVE",
"466 597 OFFCURVE",
"398 540 CURVE",
"368 519 LINE",
"297 461 OFFCURVE",
"221 407 OFFCURVE",
"134 352 CURVE",
"174 290 LINE",
"259 344 OFFCURVE",
"332 395 OFFCURVE",
"402 450 CURVE",
"424 464 LINE",
"500 527 OFFCURVE",
"571 594 OFFCURVE",
"647 677 CURVE"
);
},
{
closed = 1;
nodes = (
"682 512 LINE",
"614 443 OFFCURVE",
"542 382 OFFCURVE",
"463 324 CURVE",
"438 310 LINE",
"363 257 OFFCURVE",
"281 207 OFFCURVE",
"191 158 CURVE",
"228 95 LINE",
"308 138 OFFCURVE",
"386 185 OFFCURVE",
"461 236 CURVE",
"485 248 LINE",
"572 310 OFFCURVE",
"655 380 OFFCURVE",
"735 461 CURVE"
);
},
{
closed = 1;
nodes = (
"339 -105 OFFCURVE",
"362 -88 OFFCURVE",
"362 -49 CURVE SMOOTH",
"362 -10 OFFCURVE",
"339 7 OFFCURVE",
"311 7 CURVE SMOOTH",
"282 7 OFFCURVE",
"259 -10 OFFCURVE",
"259 -49 CURVE SMOOTH",
"259 -88 OFFCURVE",
"282 -105 OFFCURVE",
"311 -105 CURVE SMOOTH"
);
},
{
closed = 1;
nodes = (
"741 101 OFFCURVE",
"764 118 OFFCURVE",
"764 157 CURVE SMOOTH",
"764 196 OFFCURVE",
"741 213 OFFCURVE",
"713 213 CURVE SMOOTH",
"684 213 OFFCURVE",
"661 196 OFFCURVE",
"661 157 CURVE SMOOTH",
"661 118 OFFCURVE",
"684 101 OFFCURVE",
"713 101 CURVE SMOOTH"
);
},
{
closed = 1;
nodes = (
"578 -195 LINE",
"552 195 OFFCURVE",
"450 494 OFFCURVE",
"331 744 CURVE",
"284 676 LINE",
"384 443 OFFCURVE",
"481 170 OFFCURVE",
"502 -203 CURVE"
);
}
);
vertOrigin = 25;
vertWidth = 1362;
width = 884;
}
);
leftMetricsKey = u1B187;
rightMetricsKey = u1B1A8;
unicode = 1B1E4;
},
{
glyphname = u1B1E5;
lastChange = "2020-04-13 08:41:03 +0000";
layers = (
{
layerId = "CFFEBDE4-599A-46B2-9328-D96E42CD9C81";
paths = (
{
closed = 1;
nodes = (
"614 665 LINE",
"567 604 OFFCURVE",
"519 548 OFFCURVE",
"468 495 CURVE",
"434 464 LINE",
"377 406 OFFCURVE",
"318 351 OFFCURVE",
"257 299 CURVE",
"303 243 LINE",
"361 291 OFFCURVE",
"412 338 OFFCURVE",
"460 387 CURVE",
"486 408 LINE",
"548 472 OFFCURVE",
"606 539 OFFCURVE",
"671 619 CURVE"
);
},
{
closed = 1;
nodes = (
"537 939 LINE",
"424 771 OFFCURVE",
"309 645 OFFCURVE",
"155 502 CURVE",
"207 445 LINE",
"353 584 OFFCURVE",
"483 722 OFFCURVE",
"602 898 CURVE"
);
},
{
closed = 1;
nodes = (
"658 377 LINE",
"551 250 OFFCURVE",
"452 153 OFFCURVE",
"330 60 CURVE",
"375 0 LINE",
"514 110 OFFCURVE",
"607 205 OFFCURVE",
"716 332 CURVE"
);
},
{
closed = 1;
nodes = (
"370 634 LINE",
"421 472 OFFCURVE",
"452 318 OFFCURVE",
"470 157 CURVE",
"539 187 LINE",
"520 357 OFFCURVE",
"484 515 OFFCURVE",
"429 709 CURVE"
);
},
{
closed = 1;
nodes = (
"189 126 LINE",
"206 45 LINE",
"238 -17 OFFCURVE",
"259 -64 OFFCURVE",
"297 -165 CURVE",
"368 -138 LINE",
"322 -20 OFFCURVE",
"277 60 OFFCURVE",
"203 161 CURVE"
);
},
{
closed = 1;
nodes = (
"162 226 LINE",
"145 60 OFFCURVE",
"119 -53 OFFCURVE",
"70 -183 CURVE",
"142 -203 LINE",
"177 -102 OFFCURVE",
"191 -28 OFFCURVE",
"201 44 CURVE",
"220 49 LINE",
"226 82 OFFCURVE",
"232 186 OFFCURVE",
"235 218 CURVE"
);
}
);
vertOrigin = 25;
vertWidth = 1362;
width = 796;
}
);
leftMetricsKey = u1B1B9;
rightMetricsKey = u1B197;
unicode = 1B1E5;
},
{
glyphname = u1B1E6;
lastChange = "2020-04-13 08:41:20 +0000";
layers = (
{
layerId = "CFFEBDE4-599A-46B2-9328-D96E42CD9C81";
paths = (
{
closed = 1;
nodes = (
"671 396 LINE",
"628 288 OFFCURVE",
"580 192 OFFCURVE",
"530 106 CURVE SMOOTH",
"475 11 OFFCURVE",
"433 -51 OFFCURVE",
"382 -119 CURVE",
"378 -119 LINE",
"347 -30 OFFCURVE",
"313 33 OFFCURVE",
"279 93 CURVE SMOOTH",
"266 116 OFFCURVE",
"251 141 OFFCURVE",
"235 167 CURVE",
"172 127 LINE",
"242 15 OFFCURVE",
"281 -60 OFFCURVE",
"325 -162 CURVE",
"423 -173 LINE",
"541 -36 OFFCURVE",
"645 137 OFFCURVE",
"741 370 CURVE"
);
},
{
closed = 1;
nodes = (
"466 939 LINE",
"368 662 OFFCURVE",
"281 505 OFFCURVE",
"105 262 CURVE",
"167 218 LINE",
"347 470 OFFCURVE",
"433 617 OFFCURVE",
"538 915 CURVE"
);
},
{
closed = 1;
nodes = (
"74 665 LINE",
"153 628 OFFCURVE",
"231 586 OFFCURVE",
"308 540 CURVE",
"343 523 LINE",
"424 472 OFFCURVE",
"504 417 OFFCURVE",
"582 357 CURVE",
"625 420 LINE",
"540 482 OFFCURVE",
"460 539 OFFCURVE",
"377 591 CURVE",
"346 605 LINE",
"272 650 OFFCURVE",
"194 692 OFFCURVE",
"107 733 CURVE"
);
},
{
closed = 1;
nodes = (
"150 -135 OFFCURVE",
"173 -118 OFFCURVE",
"173 -79 CURVE SMOOTH",
"173 -40 OFFCURVE",
"150 -23 OFFCURVE",
"122 -23 CURVE SMOOTH",
"93 -23 OFFCURVE",
"70 -40 OFFCURVE",
"70 -79 CURVE SMOOTH",
"70 -118 OFFCURVE",
"93 -135 OFFCURVE",
"122 -135 CURVE SMOOTH"
);
},
{
closed = 1;
nodes = (
"429 156 OFFCURVE",
"452 173 OFFCURVE",
"452 212 CURVE SMOOTH",
"452 251 OFFCURVE",
"429 268 OFFCURVE",
"401 268 CURVE SMOOTH",
"372 268 OFFCURVE",
"349 251 OFFCURVE",
"349 212 CURVE SMOOTH",
"349 173 OFFCURVE",
"372 156 OFFCURVE",
"401 156 CURVE SMOOTH"
);
}
);
vertOrigin = 25;
vertWidth = 1362;
width = 821;
}
);
leftMetricsKey = u1B17A;
rightMetricsKey = u1B188;
unicode = 1B1E6;
},
{
glyphname = u1B1E7;
lastChange = "2020-04-13 08:48:33 +0000";
layers = (
{
layerId = "CFFEBDE4-599A-46B2-9328-D96E42CD9C81";
paths = (
{
closed = 1;
nodes = (
"624 665 LINE",
"577 604 OFFCURVE",
"529 548 OFFCURVE",
"478 495 CURVE",
"444 464 LINE",
"387 406 OFFCURVE",
"328 351 OFFCURVE",
"267 299 CURVE",
"313 243 LINE",
"371 291 OFFCURVE",
"422 338 OFFCURVE",
"470 387 CURVE",
"496 408 LINE",
"557 473 OFFCURVE",
"615 540 OFFCURVE",
"681 619 CURVE"
);
},
{
closed = 1;
nodes = (
"547 939 LINE",
"434 771 OFFCURVE",
"319 645 OFFCURVE",
"165 502 CURVE",
"217 445 LINE",
"363 584 OFFCURVE",
"493 722 OFFCURVE",
"612 898 CURVE"
);
},
{
closed = 1;
nodes = (
"668 377 LINE",
"561 250 OFFCURVE",
"462 153 OFFCURVE",
"340 60 CURVE",
"385 0 LINE",
"524 110 OFFCURVE",
"617 205 OFFCURVE",
"726 332 CURVE"
);
},
{
closed = 1;
nodes = (
"380 634 LINE",
"431 472 OFFCURVE",
"462 318 OFFCURVE",
"480 157 CURVE",
"549 187 LINE",
"530 357 OFFCURVE",
"494 515 OFFCURVE",
"439 709 CURVE"
);
},
{
closed = 1;
nodes = (
"276 157 LINE",
"249 104 OFFCURVE",
"224 59 OFFCURVE",
"199 19 CURVE",
"176 -10 LINE",
"142 -59 OFFCURVE",
"106 -104 OFFCURVE",
"60 -154 CURVE",
"112 -203 LINE",
"157 -150 OFFCURVE",
"192 -107 OFFCURVE",
"222 -64 CURVE",
"248 -31 LINE",
"278 15 OFFCURVE",
"305 63 OFFCURVE",
"340 126 CURVE"
);
},
{
closed = 1;
nodes = (
"66 88 LINE",
"158 -5 OFFCURVE",
"219 -83 OFFCURVE",
"282 -182 CURVE",
"341 -143 LINE",
"268 -34 OFFCURVE",
"200 49 OFFCURVE",
"116 138 CURVE"
);
}
);
vertOrigin = 25;
vertWidth = 1362;
width = 806;
}
);
leftMetricsKey = u1B1C9;
rightMetricsKey = u1B197;
unicode = 1B1E7;
},
{
glyphname = u1B1E8;
lastChange = "2020-04-13 08:42:07 +0000";
layers = (
{
layerId = "CFFEBDE4-599A-46B2-9328-D96E42CD9C81";
paths = (
{
closed = 1;
nodes = (
"681 321 OFFCURVE",
"704 338 OFFCURVE",
"704 377 CURVE SMOOTH",
"704 416 OFFCURVE",
"681 433 OFFCURVE",
"653 433 CURVE SMOOTH",
"624 433 OFFCURVE",
"601 416 OFFCURVE",
"601 377 CURVE SMOOTH",
"601 338 OFFCURVE",
"624 321 OFFCURVE",
"653 321 CURVE SMOOTH"
);
},
{
closed = 1;
nodes = (
"566 17 LINE",
"527 308 OFFCURVE",
"470 501 OFFCURVE",
"350 743 CURVE",
"298 682 LINE",
"403 459 OFFCURVE",
"454 296 OFFCURVE",
"493 8 CURVE"
);
},
{
closed = 1;
nodes = (
"440 939 LINE",
"344 785 OFFCURVE",
"239 658 OFFCURVE",
"112 529 CURVE",
"165 477 LINE",
"297 612 OFFCURVE",
"398 728 OFFCURVE",
"503 898 CURVE"
);
},
{
closed = 1;
nodes = (
"603 722 LINE",
"546 641 OFFCURVE",
"491 569 OFFCURVE",
"433 502 CURVE",
"411 482 LINE",
"357 422 OFFCURVE",
"300 365 OFFCURVE",
"238 308 CURVE",
"288 251 LINE",
"343 304 OFFCURVE",
"392 354 OFFCURVE",
"439 404 CURVE",
"463 426 LINE",
"529 499 OFFCURVE",
"593 577 OFFCURVE",
"665 678 CURVE"
);
},
{
closed = 1;
nodes = (
"155 230 LINE",
"218 170 OFFCURVE",
"242 113 OFFCURVE",
"242 34 CURVE SMOOTH",
"242 -46 OFFCURVE",
"221 -101 OFFCURVE",
"167 -160 CURVE",
"222 -203 LINE",
"285 -130 OFFCURVE",
"316 -62 OFFCURVE",
"316 32 CURVE SMOOTH",
"316 131 OFFCURVE",
"282 203 OFFCURVE",
"206 278 CURVE"
);
},
{
closed = 1;
nodes = (
"130 -18 OFFCURVE",
"153 -1 OFFCURVE",
"153 38 CURVE SMOOTH",
"153 77 OFFCURVE",
"130 94 OFFCURVE",
"102 94 CURVE SMOOTH",
"73 94 OFFCURVE",
"50 77 OFFCURVE",
"50 38 CURVE SMOOTH",
"50 -1 OFFCURVE",
"73 -18 OFFCURVE",
"102 -18 CURVE SMOOTH"
);
}
);
vertOrigin = 25;
vertWidth = 1362;
width = 784;
}
);
leftMetricsKey = u1B1D7;
rightMetricsKey = u1B177;
unicode = 1B1E8;
},
{
glyphname = u1B1E9;
lastChange = "2020-04-13 08:42:10 +0000";
layers = (
{
layerId = "CFFEBDE4-599A-46B2-9328-D96E42CD9C81";
paths = (
{
closed = 1;
nodes = (
"251 913 LINE",
"209 706 OFFCURVE",
"149 525 OFFCURVE",
"70 350 CURVE",
"136 319 LINE",
"218 503 OFFCURVE",
"274 665 OFFCURVE",
"324 899 CURVE"
);
},
{
closed = 1;
nodes = (
"241 141 OFFCURVE",
"264 158 OFFCURVE",
"264 197 CURVE SMOOTH",
"264 236 OFFCURVE",
"241 253 OFFCURVE",
"213 253 CURVE SMOOTH",
"184 253 OFFCURVE",
"161 236 OFFCURVE",
"161 197 CURVE SMOOTH",
"161 158 OFFCURVE",
"184 141 OFFCURVE",
"213 141 CURVE SMOOTH"
);
},
{
closed = 1;
nodes = (
"489 735 OFFCURVE",
"512 752 OFFCURVE",
"512 791 CURVE SMOOTH",
"512 830 OFFCURVE",
"489 847 OFFCURVE",
"461 847 CURVE SMOOTH",
"432 847 OFFCURVE",
"409 830 OFFCURVE",
"409 791 CURVE SMOOTH",
"409 752 OFFCURVE",
"432 735 OFFCURVE",
"461 735 CURVE SMOOTH"
);
},
{
closed = 1;
nodes = (
"328 536 OFFCURVE",
"374 397 OFFCURVE",
"374 239 CURVE SMOOTH",
"374 65 OFFCURVE",
"350 -50 OFFCURVE",
"297 -179 CURVE",
"365 -203 LINE",
"419 -73 OFFCURVE",
"448 51 OFFCURVE",
"448 239 CURVE SMOOTH",
"448 271 OFFCURVE",
"446 302 OFFCURVE",
"442 332 CURVE",
"424 384 LINE",
"416 445 OFFCURVE",
"403 490 OFFCURVE",
"376 544 CURVE SMOOTH",
"347 604 OFFCURVE",
"307 660 OFFCURVE",
"259 714 CURVE",
"215 656 LINE"
);
},
{
closed = 1;
nodes = (
"632 785 OFFCURVE",
"592 659 OFFCURVE",
"533 555 CURVE SMOOTH",
"488 474 OFFCURVE",
"459 429 OFFCURVE",
"428 384 CURVE",
"396 384 LINE",
"400 271 LINE",
"582 441 OFFCURVE",
"661 602 OFFCURVE",
"740 921 CURVE",
"666 939 LINE"
);
},
{
closed = 1;
nodes = (
"578 530 LINE",
"639 397 OFFCURVE",
"676 284 OFFCURVE",
"696 138 CURVE",
"772 149 LINE",
"742 318 OFFCURVE",
"698 449 OFFCURVE",
"611 593 CURVE"
);
}
);
vertOrigin = 25;
vertWidth = 1362;
width = 872;
}
);
rightMetricsKey = u1B186;
unicode = 1B1E9;
},
{
glyphname = u1B1EA;
lastChange = "2020-04-13 08:42:50 +0000";
layers = (
{
layerId = "CFFEBDE4-599A-46B2-9328-D96E42CD9C81";
paths = (
{
closed = 1;
nodes = (
"278 407 LINE",
"266 533 OFFCURVE",
"222 648 OFFCURVE",
"140 762 CURVE",
"80 720 LINE",
"177 585 OFFCURVE",
"210 474 OFFCURVE",
"210 355 CURVE SMOOTH",
"210 171 OFFCURVE",
"176 62 OFFCURVE",
"96 -61 CURVE",
"158 -100 LINE",
"242 29 OFFCURVE",
"278 153 OFFCURVE",
"278 346 CURVE"
);
},
{
closed = 1;
nodes = (
"627 640 LINE",
"545 464 OFFCURVE",
"459 315 OFFCURVE",
"374 180 CURVE",
"416 109 LINE",
"512 259 OFFCURVE",
"587 389 OFFCURVE",
"656 534 CURVE"
);
},
{
closed = 1;
nodes = (
"479 848 LINE",
"406 678 OFFCURVE",
"330 536 OFFCURVE",
"240 387 CURVE",
"331 208 OFFCURVE",
"394 72 OFFCURVE",
"454 -101 CURVE",
"547 -105 LINE",
"648 39 OFFCURVE",
"725 172 OFFCURVE",
"812 339 CURVE",
"743 507 OFFCURVE",
"673 662 OFFCURVE",
"578 846 CURVE"
);
},
{
closed = 1;
nodes = (
"530 785 LINE",
"575 690 OFFCURVE",
"602 632 OFFCURVE",
"641 549 CURVE SMOOTH",
"673 480 OFFCURVE",
"713 385 OFFCURVE",
"754 276 CURVE",
"765 409 LINE",
"721 322 OFFCURVE",
"679 246 OFFCURVE",
"639 176 CURVE SMOOTH",
"598 104 OFFCURVE",
"553 40 OFFCURVE",
"507 -36 CURVE",
"503 -36 LINE",
"481 38 OFFCURVE",
"455 106 OFFCURVE",
"422 180 CURVE SMOOTH",
"388 256 OFFCURVE",
"349 337 OFFCURVE",
"302 430 CURVE",
"293 335 LINE",
"342 413 OFFCURVE",
"383 484 OFFCURVE",
"421 556 CURVE SMOOTH",
"461 632 OFFCURVE",
"490 690 OFFCURVE",
"526 785 CURVE"
);
}
);
vertOrigin = 25;
vertWidth = 1362;
width = 902;
}
);
rightMetricsKey = u1B1B4;
unicode = 1B1EA;
},
{
glyphname = u1B1EB;
lastChange = "2020-04-13 08:43:05 +0000";
layers = (
{
layerId = "CFFEBDE4-599A-46B2-9328-D96E42CD9C81";
paths = (
{
closed = 1;
nodes = (
"436 939 LINE",
"382 831 OFFCURVE",
"328 735 OFFCURVE",
"269 641 CURVE",
"246 612 LINE",
"196 534 OFFCURVE",
"141 456 OFFCURVE",
"80 372 CURVE",
"140 326 LINE",
"194 400 OFFCURVE",
"241 467 OFFCURVE",
"282 532 CURVE",
"304 558 LINE",
"376 671 OFFCURVE",
"437 779 OFFCURVE",
"504 907 CURVE"
);
},
{
closed = 1;
nodes = (
"728 500 LINE",
"629 343 OFFCURVE",
"568 261 OFFCURVE",
"466 134 CURVE",
"513 74 LINE",
"612 197 OFFCURVE",
"673 277 OFFCURVE",
"761 411 CURVE"
);
},
{
closed = 1;
nodes = (
"399 301 LINE",
"445 362 OFFCURVE",
"482 414 OFFCURVE",
"517 465 CURVE SMOOTH",
"564 533 OFFCURVE",
"598 583 OFFCURVE",
"638 665 CURVE",
"642 665 LINE",
"674 576 OFFCURVE",
"705 500 OFFCURVE",
"738 418 CURVE SMOOTH",
"773 332 OFFCURVE",
"808 240 OFFCURVE",
"833 167 CURVE",
"843 256 LINE",
"803 193 OFFCURVE",
"767 140 OFFCURVE",
"732 93 CURVE SMOOTH",
"680 23 OFFCURVE",
"636 -32 OFFCURVE",
"588 -98 CURVE",
"584 -98 LINE",
"561 -16 OFFCURVE",
"533 55 OFFCURVE",
"501 137 CURVE SMOOTH",
"412 364 OFFCURVE",
"304 610 OFFCURVE",
"158 897 CURVE",
"93 863 LINE",
"283 489 OFFCURVE",
"411 176 OFFCURVE",
"531 -153 CURVE",
"619 -163 LINE",
"731 -35 OFFCURVE",
"795 44 OFFCURVE",
"902 201 CURVE",
"836 387 OFFCURVE",
"774 540 OFFCURVE",
"691 726 CURVE",
"602 734 LINE",
"512 587 OFFCURVE",
"451 491 OFFCURVE",
"364 380 CURVE"
);
}
);
vertOrigin = 25;
vertWidth = 1362;
width = 992;
}
);
leftMetricsKey = u1B180;
rightMetricsKey = u1B1B4;
unicode = 1B1EB;
},
{
glyphname = u1B1EC;
lastChange = "2020-04-13 08:43:14 +0000";
layers = (
{
layerId = "CFFEBDE4-599A-46B2-9328-D96E42CD9C81";
paths = (
{
closed = 1;
nodes = (
"708 102 OFFCURVE",
"731 119 OFFCURVE",
"731 158 CURVE SMOOTH",
"731 197 OFFCURVE",
"708 214 OFFCURVE",
"680 214 CURVE SMOOTH",
"651 214 OFFCURVE",
"628 197 OFFCURVE",
"628 158 CURVE SMOOTH",
"628 119 OFFCURVE",
"651 102 OFFCURVE",
"680 102 CURVE SMOOTH"
);
},
{
closed = 1;
nodes = (
"663 319 OFFCURVE",
"689 331 OFFCURVE",
"689 375 CURVE SMOOTH",
"689 414 OFFCURVE",
"666 431 OFFCURVE",
"638 431 CURVE SMOOTH",
"609 431 OFFCURVE",
"586 414 OFFCURVE",
"586 375 CURVE SMOOTH",
"586 336 OFFCURVE",
"609 319 OFFCURVE",
"638 319 CURVE SMOOTH"
);
},
{
closed = 1;
nodes = (
"577 653 LINE",
"533 598 OFFCURVE",
"491 551 OFFCURVE",
"448 508 CURVE",
"425 491 LINE",
"359 430 OFFCURVE",
"289 377 OFFCURVE",
"201 319 CURVE",
"238 257 LINE",
"316 305 OFFCURVE",
"385 355 OFFCURVE",
"448 411 CURVE",
"470 425 LINE",
"527 478 OFFCURVE",
"582 537 OFFCURVE",
"636 606 CURVE"
);
},
{
closed = 1;
nodes = (
"321 716 LINE",
"416 476 OFFCURVE",
"455 297 OFFCURVE",
"477 87 CURVE",
"551 93 LINE",
"524 327 OFFCURVE",
"480 514 OFFCURVE",
"374 778 CURVE"
);
},
{
closed = 1;
nodes = (
"447 939 LINE",
"356 789 OFFCURVE",
"247 669 OFFCURVE",
"120 550 CURVE",
"162 417 OFFCURVE",
"175 311 OFFCURVE",
"175 187 CURVE SMOOTH",
"175 51 OFFCURVE",
"158 -64 OFFCURVE",
"120 -182 CURVE",
"191 -203 LINE",
"235 -77 OFFCURVE",
"251 46 OFFCURVE",
"251 187 CURVE SMOOTH",
"251 315 OFFCURVE",
"234 431 OFFCURVE",
"196 568 CURVE",
"190 512 LINE",
"310 626 OFFCURVE",
"420 745 OFFCURVE",
"515 903 CURVE"
);
}
);
vertOrigin = 25;
vertWidth = 1362;
width = 851;
}
);
leftMetricsKey = u1B1A5;
rightMetricsKey = u1B1B5;
unicode = 1B1EC;
},
{
glyphname = u1B1ED;
lastChange = "2020-04-13 08:44:00 +0000";
layers = (
{
layerId = "CFFEBDE4-599A-46B2-9328-D96E42CD9C81";
paths = (
{
closed = 1;
nodes = (
"382 434 LINE",
"339 386 OFFCURVE",
"295 342 OFFCURVE",
"250 301 CURVE",
"225 284 LINE",
"176 240 OFFCURVE",
"125 199 OFFCURVE",
"70 159 CURVE",
"115 105 LINE",
"166 142 OFFCURVE",
"213 180 OFFCURVE",
"258 219 CURVE",
"284 236 LINE",
"337 284 OFFCURVE",
"387 335 OFFCURVE",
"437 389 CURVE"
);
},
{
closed = 1;
nodes = (
"474 219 LINE",
"425 167 OFFCURVE",
"382 125 OFFCURVE",
"336 86 CURVE",
"307 68 LINE",
"260 29 OFFCURVE",
"210 -6 OFFCURVE",
"152 -44 CURVE",
"191 -102 LINE",
"242 -69 OFFCURVE",
"289 -36 OFFCURVE",
"337 2 CURVE",
"359 14 LINE",
"413 59 OFFCURVE",
"467 109 OFFCURVE",
"525 171 CURVE"
);
},
{
closed = 1;
nodes = (
"435 -185 LINE",
"376 78 OFFCURVE",
"305 265 OFFCURVE",
"192 483 CURVE",
"127 446 LINE",
"246 223 OFFCURVE",
"308 46 OFFCURVE",
"363 -203 CURVE"
);
},
{
closed = 1;
nodes = (
"737 101 LINE",
"685 439 OFFCURVE",
"626 616 OFFCURVE",
"470 891 CURVE",
"405 853 LINE",
"560 580 OFFCURVE",
"618 409 OFFCURVE",
"662 92 CURVE"
);
},
{
closed = 1;
nodes = (
"682 939 LINE",
"633 860 OFFCURVE",
"586 793 OFFCURVE",
"534 728 CURVE",
"507 702 LINE",
"458 643 OFFCURVE",
"403 584 OFFCURVE",
"337 517 CURVE",
"390 465 LINE",
"452 528 OFFCURVE",
"503 582 OFFCURVE",
"549 637 CURVE",
"574 660 LINE",
"633 733 OFFCURVE",
"687 808 OFFCURVE",
"748 905 CURVE"
);
},
{
closed = 1;
nodes = (
"798 713 LINE",
"745 634 OFFCURVE",
"693 567 OFFCURVE",
"634 502 CURVE",
"603 474 LINE",
"553 420 OFFCURVE",
"497 367 OFFCURVE",
"430 309 CURVE",
"478 252 LINE",
"533 301 OFFCURVE",
"583 348 OFFCURVE",
"629 395 CURVE",
"657 419 LINE",
"730 496 OFFCURVE",
"795 575 OFFCURVE",
"859 671 CURVE"
);
}
);
vertOrigin = 25;
vertWidth = 1362;
width = 949;
}
);
rightMetricsKey = u1B187;
unicode = 1B1ED;
},
{
glyphname = u1B1EE;
lastChange = "2020-04-13 08:43:58 +0000";
layers = (
{
layerId = "CFFEBDE4-599A-46B2-9328-D96E42CD9C81";
paths = (
{
closed = 1;
nodes = (
"577 837 LINE",
"707 691 OFFCURVE",
"752 614 OFFCURVE",
"752 521 CURVE SMOOTH",
"752 458 OFFCURVE",
"738 415 OFFCURVE",
"709 367 CURVE",
"705 367 LINE",
"672 410 OFFCURVE",
"662 444 OFFCURVE",
"662 493 CURVE SMOOTH",
"662 537 OFFCURVE",
"675 585 OFFCURVE",
"738 652 CURVE",
"706 691 LINE",
"613 604 OFFCURVE",
"590 545 OFFCURVE",
"590 483 CURVE SMOOTH",
"590 422 OFFCURVE",
"609 373 OFFCURVE",
"677 318 CURVE",
"746 319 LINE",
"797 386 OFFCURVE",
"824 439 OFFCURVE",
"824 521 CURVE SMOOTH",
"824 609 OFFCURVE",
"780 721 OFFCURVE",
"615 889 CURVE"
);
},
{
closed = 1;
nodes = (
"434 244 OFFCURVE",
"456 162 OFFCURVE",
"456 42 CURVE SMOOTH",
"456 -37 OFFCURVE",
"446 -106 OFFCURVE",
"428 -188 CURVE",
"498 -203 LINE",
"523 -119 OFFCURVE",
"532 -45 OFFCURVE",
"532 42 CURVE SMOOTH",
"532 171 OFFCURVE",
"491 296 OFFCURVE",
"374 435 CURVE SMOOTH",
"258 573 OFFCURVE",
"237 620 OFFCURVE",
"237 723 CURVE SMOOTH",
"237 771 OFFCURVE",
"248 820 OFFCURVE",
"270 878 CURVE",
"203 899 LINE",
"174 829 OFFCURVE",
"163 774 OFFCURVE",
"163 714 CURVE SMOOTH",
"163 625 OFFCURVE",
"185 545 OFFCURVE",
"319 383 CURVE SMOOTH"
);
},
{
closed = 1;
nodes = (
"146 -42 LINE",
"158 129 OFFCURVE",
"188 215 OFFCURVE",
"349 391 CURVE",
"373 403 LINE",
"511 543 OFFCURVE",
"582 665 OFFCURVE",
"612 810 CURVE",
"628 849 LINE",
"633 873 OFFCURVE",
"639 902 OFFCURVE",
"643 930 CURVE",
"577 939 LINE",
"540 721 OFFCURVE",
"478 600 OFFCURVE",
"328 457 CURVE",
"303 443 LINE",
"139 258 OFFCURVE",
"88 171 OFFCURVE",
"70 -37 CURVE"
);
}
);
vertOrigin = 25;
vertWidth = 1362;
width = 894;
}
);
leftMetricsKey = u1B1D9;
rightMetricsKey = u1B1D9;
unicode = 1B1EE;
},
{
glyphname = u1B1EF;
lastChange = "2020-04-13 08:44:07 +0000";
layers = (
{
layerId = "CFFEBDE4-599A-46B2-9328-D96E42CD9C81";
paths = (
{
closed = 1;
nodes = (
"432 306 LINE",
"514 141 OFFCURVE",
"555 -9 OFFCURVE",
"588 -203 CURVE",
"662 -189 LINE",
"621 41 OFFCURVE",
"573 197 OFFCURVE",
"481 361 CURVE"
);
},
{
closed = 1;
nodes = (
"544 544 LINE",
"456 390 OFFCURVE",
"369 288 OFFCURVE",
"260 179 CURVE",
"314 126 LINE",
"429 245 OFFCURVE",
"515 349 OFFCURVE",
"611 508 CURVE"
);
},
{
closed = 1;
nodes = (
"506 149 LINE",
"418 29 OFFCURVE",
"363 -35 OFFCURVE",
"287 -111 CURVE",
"340 -162 LINE",
"410 -93 OFFCURVE",
"463 -26 OFFCURVE",
"551 94 CURVE"
);
},
{
closed = 1;
nodes = (
"283 296 OFFCURVE",
"306 313 OFFCURVE",
"306 352 CURVE SMOOTH",
"306 391 OFFCURVE",
"283 408 OFFCURVE",
"255 408 CURVE SMOOTH",
"226 408 OFFCURVE",
"203 391 OFFCURVE",
"203 352 CURVE SMOOTH",
"203 313 OFFCURVE",
"226 296 OFFCURVE",
"255 296 CURVE SMOOTH"
);
},
{
closed = 1;
nodes = (
"444 491 OFFCURVE",
"467 508 OFFCURVE",
"467 547 CURVE SMOOTH",
"467 586 OFFCURVE",
"444 603 OFFCURVE",
"416 603 CURVE SMOOTH",
"387 603 OFFCURVE",
"364 586 OFFCURVE",
"364 547 CURVE SMOOTH",
"364 508 OFFCURVE",
"387 491 OFFCURVE",
"416 491 CURVE SMOOTH"
);
},
{
closed = 1;
nodes = (
"390 939 LINE",
"266 700 OFFCURVE",
"169 561 OFFCURVE",
"60 434 CURVE",
"118 386 LINE",
"245 539 OFFCURVE",
"333 665 OFFCURVE",
"459 908 CURVE"
);
}
);
vertOrigin = 25;
vertWidth = 1362;
width = 772;
}
);
unicode = 1B1EF;
},
{
glyphname = u1B1F0;
lastChange = "2020-04-13 08:44:19 +0000";
layers = (
{
layerId = "CFFEBDE4-599A-46B2-9328-D96E42CD9C81";
paths = (
{
closed = 1;
nodes = (
"515 275 LINE",
"449 490 OFFCURVE",
"364 657 OFFCURVE",
"228 886 CURVE",
"164 847 LINE",
"292 625 OFFCURVE",
"383 462 OFFCURVE",
"445 246 CURVE"
);
},
{
closed = 1;
nodes = (
"509 939 LINE",
"445 840 OFFCURVE",
"383 758 OFFCURVE",
"318 682 CURVE",
"293 658 LINE",
"229 585 OFFCURVE",
"160 515 OFFCURVE",
"80 437 CURVE",
"131 383 LINE",
"207 458 OFFCURVE",
"273 524 OFFCURVE",
"335 593 CURVE",
"359 615 LINE",
"433 699 OFFCURVE",
"502 788 OFFCURVE",
"573 900 CURVE"
);
},
{
closed = 1;
nodes = (
"332 -40 OFFCURVE",
"387 -104 OFFCURVE",
"508 -163 CURVE",
"589 -152 LINE",
"665 -48 OFFCURVE",
"699 41 OFFCURVE",
"699 119 CURVE SMOOTH",
"699 203 OFFCURVE",
"633 273 OFFCURVE",
"489 326 CURVE",
"440 305 LINE",
"358 201 OFFCURVE",
"332 129 OFFCURVE",
"332 52 CURVE SMOOTH"
);
},
{
closed = 1;
nodes = (
"487 254 LINE",
"586 210 OFFCURVE",
"623 164 OFFCURVE",
"623 112 CURVE SMOOTH",
"623 61 OFFCURVE",
"601 -22 OFFCURVE",
"539 -102 CURVE",
"534 -103 LINE",
"445 -53 OFFCURVE",
"408 1 OFFCURVE",
"408 55 CURVE SMOOTH",
"408 105 OFFCURVE",
"429 173 OFFCURVE",
"482 253 CURVE"
);
},
{
closed = 1;
nodes = (
"280 223 OFFCURVE",
"303 240 OFFCURVE",
"303 279 CURVE SMOOTH",
"303 318 OFFCURVE",
"280 335 OFFCURVE",
"252 335 CURVE SMOOTH",
"223 335 OFFCURVE",
"200 318 OFFCURVE",
"200 279 CURVE SMOOTH",
"200 240 OFFCURVE",
"223 223 OFFCURVE",
"252 223 CURVE SMOOTH"
);
},
{
closed = 1;
nodes = (
"603 522 OFFCURVE",
"626 539 OFFCURVE",
"626 578 CURVE SMOOTH",
"626 617 OFFCURVE",
"603 634 OFFCURVE",
"575 634 CURVE SMOOTH",
"546 634 OFFCURVE",
"523 617 OFFCURVE",
"523 578 CURVE SMOOTH",
"523 539 OFFCURVE",
"546 522 OFFCURVE",
"575 522 CURVE SMOOTH"
);
}
);
vertOrigin = 25;
vertWidth = 1312;
width = 779;
}
);
leftMetricsKey = u1B180;
unicode = 1B1F0;
},
{
glyphname = u1B1F1;
lastChange = "2020-04-13 08:44:23 +0000";
layers = (
{
layerId = "CFFEBDE4-599A-46B2-9328-D96E42CD9C81";
paths = (
{
closed = 1;
nodes = (
"60 334 OFFCURVE",
"87 286 OFFCURVE",
"172 237 CURVE",
"240 249 LINE",
"302 341 OFFCURVE",
"330 414 OFFCURVE",
"330 478 CURVE SMOOTH",
"330 544 OFFCURVE",
"297 590 OFFCURVE",
"217 640 CURVE",
"154 634 LINE",
"81 516 OFFCURVE",
"60 457 OFFCURVE",
"60 396 CURVE SMOOTH"
);
},
{
closed = 1;
nodes = (
"196 580 LINE",
"238 540 OFFCURVE",
"258 504 OFFCURVE",
"258 468 CURVE SMOOTH",
"258 426 OFFCURVE",
"241 368 OFFCURVE",
"200 295 CURVE",
"196 295 LINE",
"154 329 OFFCURVE",
"133 362 OFFCURVE",
"133 406 CURVE SMOOTH",
"133 449 OFFCURVE",
"151 503 OFFCURVE",
"192 580 CURVE"
);
},
{
closed = 1;
nodes = (
"625 478 OFFCURVE",
"650 423 OFFCURVE",
"736 381 CURVE",
"804 393 LINE",
"870 485 OFFCURVE",
"894 558 OFFCURVE",
"894 622 CURVE SMOOTH",
"894 688 OFFCURVE",
"859 734 OFFCURVE",
"781 784 CURVE",
"718 778 LINE",
"645 673 OFFCURVE",
"625 601 OFFCURVE",
"625 540 CURVE SMOOTH"
);
},
{
closed = 1;
nodes = (
"808 -72 LINE",
"717 154 OFFCURVE",
"619 320 OFFCURVE",
"482 514 CURVE",
"474 399 LINE",
"576 248 OFFCURVE",
"664 82 OFFCURVE",
"737 -100 CURVE"
);
},
{
closed = 1;
nodes = (
"456 939 LINE",
"464 443 OFFCURVE",
"386 117 OFFCURVE",
"200 -167 CURVE",
"265 -203 LINE",
"447 94 OFFCURVE",
"530 443 OFFCURVE",
"532 938 CURVE"
);
},
{
closed = 1;
nodes = (
"761 724 LINE",
"803 684 OFFCURVE",
"823 648 OFFCURVE",
"823 612 CURVE SMOOTH",
"823 570 OFFCURVE",
"806 512 OFFCURVE",
"765 439 CURVE",
"761 439 LINE",
"719 473 OFFCURVE",
"698 506 OFFCURVE",
"698 550 CURVE SMOOTH",
"698 593 OFFCURVE",
"716 647 OFFCURVE",
"757 724 CURVE"
);
}
);
vertOrigin = 25;
vertWidth = 1362;
width = 954;
}
);
unicode = 1B1F1;
},
{
glyphname = u1B1F2;
lastChange = "2020-04-13 08:44:26 +0000";
layers = (
{
layerId = "CFFEBDE4-599A-46B2-9328-D96E42CD9C81";
paths = (
{
closed = 1;
nodes = (
"90 233 LINE",
"164 94 OFFCURVE",
"213 -37 OFFCURVE",
"250 -203 CURVE",
"322 -185 LINE",
"282 -9 OFFCURVE",
"231 131 OFFCURVE",
"154 272 CURVE"
);
},
{
closed = 1;
nodes = (
"590 697 LINE",
"503 538 OFFCURVE",
"425 419 OFFCURVE",
"332 295 CURVE",
"385 246 LINE",
"489 385 OFFCURVE",
"558 488 OFFCURVE",
"630 616 CURVE"
);
},
{
closed = 1;
nodes = (
"449 920 LINE",
"381 777 OFFCURVE",
"291 633 OFFCURVE",
"200 507 CURVE",
"291 328 OFFCURVE",
"355 179 OFFCURVE",
"415 16 CURVE",
"507 9 LINE",
"605 130 OFFCURVE",
"694 262 OFFCURVE",
"783 414 CURVE",
"714 582 OFFCURVE",
"645 732 OFFCURVE",
"550 917 CURVE"
);
},
{
closed = 1;
nodes = (
"499 858 LINE",
"537 781 OFFCURVE",
"568 721 OFFCURVE",
"603 645 CURVE SMOOTH",
"644 556 OFFCURVE",
"682 465 OFFCURVE",
"722 361 CURVE",
"733 482 LINE",
"689 404 OFFCURVE",
"646 333 OFFCURVE",
"603 268 CURVE SMOOTH",
"559 201 OFFCURVE",
"512 135 OFFCURVE",
"471 73 CURVE",
"467 73 LINE",
"443 152 OFFCURVE",
"415 229 OFFCURVE",
"379 309 CURVE SMOOTH",
"346 383 OFFCURVE",
"309 462 OFFCURVE",
"264 550 CURVE",
"258 458 LINE",
"307 530 OFFCURVE",
"331 564 OFFCURVE",
"368 624 CURVE SMOOTH",
"413 697 OFFCURVE",
"453 766 OFFCURVE",
"495 858 CURVE"
);
}
);
vertOrigin = 25;
vertWidth = 1362;
width = 873;
}
);
rightMetricsKey = u1B1B4;
unicode = 1B1F2;
},
{
glyphname = u1B1F3;
lastChange = "2020-04-13 08:44:39 +0000";
layers = (
{
layerId = "CFFEBDE4-599A-46B2-9328-D96E42CD9C81";
paths = (
{
closed = 1;
nodes = (
"519 939 LINE",
"467 847 OFFCURVE",
"420 771 OFFCURVE",
"373 704 CURVE SMOOTH",
"326 638 OFFCURVE",
"285 584 OFFCURVE",
"245 527 CURVE",
"240 527 LINE",
"228 603 OFFCURVE",
"207 662 OFFCURVE",
"194 693 CURVE SMOOTH",
"184 717 OFFCURVE",
"174 741 OFFCURVE",
"163 767 CURVE",
"100 738 LINE",
"138 647 OFFCURVE",
"166 576 OFFCURVE",
"194 480 CURVE",
"271 468 LINE",
"400 610 OFFCURVE",
"481 719 OFFCURVE",
"586 904 CURVE"
);
},
{
closed = 1;
nodes = (
"308 263 LINE",
"419 116 OFFCURVE",
"510 -18 OFFCURVE",
"593 -154 CURVE",
"654 -118 LINE",
"613 -49 OFFCURVE",
"584 -1 OFFCURVE",
"511 107 CURVE",
"494 107 LINE",
"455 181 OFFCURVE",
"404 258 OFFCURVE",
"356 323 CURVE",
"351 271 LINE",
"418 342 OFFCURVE",
"482 418 OFFCURVE",
"527 491 CURVE",
"557 520 LINE",
"572 542 OFFCURVE",
"588 565 OFFCURVE",
"605 590 CURVE",
"544 629 LINE",
"464 505 OFFCURVE",
"391 417 OFFCURVE",
"308 334 CURVE"
);
},
{
closed = 1;
nodes = (
"554 439 OFFCURVE",
"561 386 OFFCURVE",
"561 334 CURVE SMOOTH",
"561 277 OFFCURVE",
"540 196 OFFCURVE",
"498 107 CURVE",
"482 107 LINE",
"412 5 OFFCURVE",
"353 -57 OFFCURVE",
"263 -152 CURVE",
"314 -203 LINE",
"395 -118 OFFCURVE",
"458 -39 OFFCURVE",
"506 26 CURVE",
"527 49 LINE",
"604 160 OFFCURVE",
"635 247 OFFCURVE",
"635 334 CURVE SMOOTH",
"635 411 OFFCURVE",
"622 470 OFFCURVE",
"556 567 CURVE",
"499 491 LINE",
"531 491 LINE"
);
},
{
closed = 1;
nodes = (
"104 347 LINE",
"139 232 OFFCURVE",
"162 127 OFFCURVE",
"179 13 CURVE",
"252 26 LINE",
"231 160 OFFCURVE",
"209 252 OFFCURVE",
"175 370 CURVE"
);
}
);
vertOrigin = 25;
vertWidth = 1362;
width = 764;
}
);
rightMetricsKey = u1B17C;
unicode = 1B1F3;
},
{
glyphname = u1B1F4;
lastChange = "2020-04-13 08:45:36 +0000";
layers = (
{
layerId = "CFFEBDE4-599A-46B2-9328-D96E42CD9C81";
paths = (
{
closed = 1;
nodes = (
"228 471 LINE",
"381 337 OFFCURVE",
"509 211 OFFCURVE",
"651 57 CURVE",
"705 111 LINE",
"563 265 OFFCURVE",
"434 389 OFFCURVE",
"278 530 CURVE",
"267 473 LINE",
"381 610 OFFCURVE",
"442 704 OFFCURVE",
"498 806 CURVE",
"530 843 LINE",
"542 861 OFFCURVE",
"555 885 OFFCURVE",
"567 905 CURVE",
"502 939 LINE",
"400 770 OFFCURVE",
"319 652 OFFCURVE",
"228 542 CURVE"
);
},
{
closed = 1;
nodes = (
"540 738 OFFCURVE",
"548 676 OFFCURVE",
"548 612 CURVE SMOOTH",
"548 516 OFFCURVE",
"527 439 OFFCURVE",
"461 332 CURVE",
"433 297 LINE",
"387 230 OFFCURVE",
"327 150 OFFCURVE",
"244 48 CURVE",
"298 -4 LINE",
"378 96 OFFCURVE",
"442 180 OFFCURVE",
"491 255 CURVE",
"515 284 LINE",
"589 404 OFFCURVE",
"624 503 OFFCURVE",
"624 611 CURVE SMOOTH",
"624 707 OFFCURVE",
"602 775 OFFCURVE",
"526 896 CURVE",
"467 806 LINE",
"502 806 LINE"
);
},
{
closed = 1;
nodes = (
"275 231 OFFCURVE",
"298 248 OFFCURVE",
"298 287 CURVE SMOOTH",
"298 326 OFFCURVE",
"275 343 OFFCURVE",
"247 343 CURVE SMOOTH",
"218 343 OFFCURVE",
"195 326 OFFCURVE",
"195 287 CURVE SMOOTH",
"195 248 OFFCURVE",
"218 231 OFFCURVE",
"247 231 CURVE SMOOTH"
);
},
{
closed = 1;
nodes = (
"532 -28 OFFCURVE",
"555 -11 OFFCURVE",
"555 28 CURVE SMOOTH",
"555 67 OFFCURVE",
"532 84 OFFCURVE",
"504 84 CURVE SMOOTH",
"475 84 OFFCURVE",
"452 67 OFFCURVE",
"452 28 CURVE SMOOTH",
"452 -11 OFFCURVE",
"475 -28 OFFCURVE",
"504 -28 CURVE SMOOTH"
);
},
{
closed = 1;
nodes = (
"469 -152 LINE",
"351 -18 OFFCURVE",
"243 96 OFFCURVE",
"109 221 CURVE",
"60 163 LINE",
"181 51 OFFCURVE",
"307 -80 OFFCURVE",
"414 -203 CURVE"
);
}
);
vertOrigin = 25;
vertWidth = 1362;
width = 805;
}
);
leftMetricsKey = u1B1CE;
unicode = 1B1F4;
},
{
glyphname = u1B1F5;
lastChange = "2020-04-13 08:46:16 +0000";
layers = (
{
layerId = "CFFEBDE4-599A-46B2-9328-D96E42CD9C81";
paths = (
{
closed = 1;
nodes = (
"471 -148 LINE",
"409 -87 OFFCURVE",
"377 -39 OFFCURVE",
"377 24 CURVE SMOOTH",
"377 78 OFFCURVE",
"409 112 OFFCURVE",
"480 112 CURVE SMOOTH",
"494 112 OFFCURVE",
"508 111 OFFCURVE",
"522 111 CURVE",
"562 106 LINE",
"617 93 OFFCURVE",
"671 79 OFFCURVE",
"723 56 CURVE",
"751 121 LINE",
"695 147 OFFCURVE",
"629 166 OFFCURVE",
"563 179 CURVE",
"526 185 LINE",
"514 186 OFFCURVE",
"502 186 OFFCURVE",
"489 186 CURVE SMOOTH",
"375 186 OFFCURVE",
"303 122 OFFCURVE",
"303 24 CURVE SMOOTH",
"303 -66 OFFCURVE",
"349 -138 OFFCURVE",
"445 -203 CURVE",
"533 -186 LINE",
"567 -77 OFFCURVE",
"579 14 OFFCURVE",
"579 144 CURVE SMOOTH",
"579 320 OFFCURVE",
"536 496 OFFCURVE",
"404 714 CURVE",
"352 661 LINE",
"470 459 OFFCURVE",
"505 308 OFFCURVE",
"505 144 CURVE SMOOTH",
"505 20 OFFCURVE",
"498 -66 OFFCURVE",
"476 -147 CURVE"
);
},
{
closed = 1;
nodes = (
"491 939 LINE",
"384 761 OFFCURVE",
"267 625 OFFCURVE",
"144 509 CURVE",
"194 452 LINE",
"330 581 OFFCURVE",
"440 710 OFFCURVE",
"557 903 CURVE"
);
},
{
closed = 1;
nodes = (
"623 719 LINE",
"573 650 OFFCURVE",
"525 590 OFFCURVE",
"478 536 CURVE",
"450 508 LINE",
"379 429 OFFCURVE",
"310 365 OFFCURVE",
"240 306 CURVE",
"287 246 LINE",
"356 304 OFFCURVE",
"419 363 OFFCURVE",
"481 429 CURVE",
"508 455 LINE",
"566 519 OFFCURVE",
"625 591 OFFCURVE",
"687 676 CURVE"
);
},
{
closed = 1;
nodes = (
"120 338 LINE",
"143 216 OFFCURVE",
"152 94 OFFCURVE",
"152 -71 CURVE",
"226 -70 LINE",
"226 92 OFFCURVE",
"217 222 OFFCURVE",
"193 353 CURVE"
);
},
{
closed = 1;
nodes = (
"709 582 LINE",
"734 449 OFFCURVE",
"742 328 OFFCURVE",
"741 188 CURVE",
"815 190 LINE",
"816 333 OFFCURVE",
"807 459 OFFCURVE",
"782 594 CURVE"
);
}
);
vertOrigin = 25;
vertWidth = 1362;
width = 955;
}
);
leftMetricsKey = u1B17E;
rightMetricsKey = u1B1AB;
unicode = 1B1F5;
},
{
glyphname = u1B1F6;
lastChange = "2020-04-13 08:46:19 +0000";
layers = (
{
layerId = "CFFEBDE4-599A-46B2-9328-D96E42CD9C81";
paths = (
{
closed = 1;
nodes = (
"600 939 LINE",
"560 844 OFFCURVE",
"516 756 OFFCURVE",
"469 675 CURVE SMOOTH",
"426 601 OFFCURVE",
"388 541 OFFCURVE",
"345 475 CURVE",
"340 476 LINE",
"324 543 OFFCURVE",
"298 617 OFFCURVE",
"273 673 CURVE SMOOTH",
"256 711 OFFCURVE",
"237 750 OFFCURVE",
"215 792 CURVE",
"150 756 LINE",
"216 634 OFFCURVE",
"252 536 OFFCURVE",
"290 434 CURVE",
"380 415 LINE",
"496 567 OFFCURVE",
"592 720 OFFCURVE",
"670 912 CURVE"
);
},
{
closed = 1;
nodes = (
"535 85 OFFCURVE",
"490 186 OFFCURVE",
"407 322 CURVE",
"321 314 LINE",
"243 94 OFFCURVE",
"180 -32 OFFCURVE",
"102 -168 CURVE",
"170 -203 LINE",
"215 -123 OFFCURVE",
"254 -44 OFFCURVE",
"293 47 CURVE SMOOTH",
"321 111 OFFCURVE",
"346 174 OFFCURVE",
"366 252 CURVE",
"371 253 LINE",
"407 189 OFFCURVE",
"432 139 OFFCURVE",
"459 71 CURVE SMOOTH",
"479 20 OFFCURVE",
"498 -32 OFFCURVE",
"516 -90 CURVE",
"587 -67 LINE"
);
},
{
closed = 1;
nodes = (
"602 372 OFFCURVE",
"625 389 OFFCURVE",
"625 428 CURVE SMOOTH",
"625 467 OFFCURVE",
"602 484 OFFCURVE",
"574 484 CURVE SMOOTH",
"545 484 OFFCURVE",
"522 467 OFFCURVE",
"522 428 CURVE SMOOTH",
"522 389 OFFCURVE",
"545 372 OFFCURVE",
"574 372 CURVE SMOOTH"
);
},
{
closed = 1;
nodes = (
"180 310 OFFCURVE",
"203 327 OFFCURVE",
"203 366 CURVE SMOOTH",
"203 405 OFFCURVE",
"180 422 OFFCURVE",
"152 422 CURVE SMOOTH",
"123 422 OFFCURVE",
"100 405 OFFCURVE",
"100 366 CURVE SMOOTH",
"100 327 OFFCURVE",
"123 310 OFFCURVE",
"152 310 CURVE SMOOTH"
);
}
);
vertOrigin = 25;
vertWidth = 1362;
width = 770;
}
);
unicode = 1B1F6;
},
{
glyphname = u1B1F7;
lastChange = "2020-04-13 08:51:09 +0000";
layers = (
{
layerId = "CFFEBDE4-599A-46B2-9328-D96E42CD9C81";
paths = (
{
closed = 1;
nodes = (
"549 887 LINE",
"516 744 OFFCURVE",
"484 631 OFFCURVE",
"448 531 CURVE SMOOTH",
"413 435 OFFCURVE",
"383 367 OFFCURVE",
"341 278 CURVE",
"337 278 LINE",
"307 360 OFFCURVE",
"279 422 OFFCURVE",
"237 494 CURVE SMOOTH",
"212 537 OFFCURVE",
"187 577 OFFCURVE",
"162 614 CURVE",
"102 573 LINE",
"174 465 OFFCURVE",
"233 366 OFFCURVE",
"291 234 CURVE",
"385 226 LINE",
"488 416 OFFCURVE",
"551 571 OFFCURVE",
"623 872 CURVE"
);
},
{
closed = 1;
nodes = (
"80 -103 OFFCURVE",
"105 -148 OFFCURVE",
"173 -182 CURVE",
"244 -173 LINE",
"307 -87 OFFCURVE",
"325 -29 OFFCURVE",
"325 34 CURVE SMOOTH",
"325 88 OFFCURVE",
"301 133 OFFCURVE",
"228 171 CURVE",
"154 161 LINE",
"103 79 OFFCURVE",
"80 15 OFFCURVE",
"80 -37 CURVE SMOOTH"
);
},
{
closed = 1;
nodes = (
"201 116 LINE",
"243 83 OFFCURVE",
"255 57 OFFCURVE",
"255 28 CURVE SMOOTH",
"255 -15 OFFCURVE",
"242 -63 OFFCURVE",
"203 -130 CURVE",
"198 -131 LINE",
"165 -104 OFFCURVE",
"150 -72 OFFCURVE",
"150 -33 CURVE SMOOTH",
"150 3 OFFCURVE",
"163 50 OFFCURVE",
"196 115 CURVE"
);
},
{
closed = 1;
nodes = (
"453 -4 OFFCURVE",
"478 -49 OFFCURVE",
"546 -83 CURVE",
"617 -74 LINE",
"680 12 OFFCURVE",
"698 70 OFFCURVE",
"698 133 CURVE SMOOTH",
"698 187 OFFCURVE",
"674 232 OFFCURVE",
"601 270 CURVE",
"527 260 LINE",
"476 178 OFFCURVE",
"453 114 OFFCURVE",
"453 62 CURVE SMOOTH"
);
},
{
closed = 1;
nodes = (
"574 215 LINE",
"616 182 OFFCURVE",
"628 156 OFFCURVE",
"628 127 CURVE SMOOTH",
"628 84 OFFCURVE",
"615 36 OFFCURVE",
"576 -31 CURVE",
"571 -32 LINE",
"538 -5 OFFCURVE",
"523 27 OFFCURVE",
"523 66 CURVE SMOOTH",
"523 102 OFFCURVE",
"536 149 OFFCURVE",
"569 214 CURVE"
);
}
);
vertOrigin = 25;
vertWidth = 1362;
width = 758;
}
);
leftMetricsKey = u1B1AA;
rightMetricsKey = u1B1F1;
unicode = 1B1F7;
},
{
glyphname = u1B1F8;
lastChange = "2020-04-13 08:51:06 +0000";
layers = (
{
layerId = "CFFEBDE4-599A-46B2-9328-D96E42CD9C81";
paths = (
{
closed = 1;
nodes = (
"402 939 LINE",
"298 802 OFFCURVE",
"191 683 OFFCURVE",
"70 568 CURVE",
"122 513 LINE",
"251 635 OFFCURVE",
"352 750 OFFCURVE",
"464 895 CURVE"
);
},
{
closed = 1;
nodes = (
"303 727 LINE",
"459 501 OFFCURVE",
"571 293 OFFCURVE",
"681 75 CURVE",
"748 110 LINE",
"639 323 OFFCURVE",
"523 528 OFFCURVE",
"358 782 CURVE"
);
},
{
closed = 1;
nodes = (
"505 772 LINE",
"475 733 OFFCURVE",
"443 693 OFFCURVE",
"410 654 CURVE",
"387 632 LINE",
"304 534 OFFCURVE",
"215 440 OFFCURVE",
"132 360 CURVE",
"182 309 LINE",
"267 394 OFFCURVE",
"349 481 OFFCURVE",
"427 572 CURVE",
"455 599 LINE",
"492 642 OFFCURVE",
"527 686 OFFCURVE",
"562 730 CURVE"
);
},
{
closed = 1;
nodes = (
"490 480 LINE",
"384 356 OFFCURVE",
"299 260 OFFCURVE",
"188 160 CURVE",
"239 108 LINE",
"354 217 OFFCURVE",
"439 311 OFFCURVE",
"526 419 CURVE"
);
},
{
closed = 1;
nodes = (
"330 -115 OFFCURVE",
"359 -163 OFFCURVE",
"427 -203 CURVE",
"498 -194 LINE",
"566 -115 OFFCURVE",
"584 -50 OFFCURVE",
"584 11 CURVE SMOOTH",
"584 71 OFFCURVE",
"550 112 OFFCURVE",
"482 150 CURVE",
"408 140 LINE",
"350 58 OFFCURVE",
"330 -9 OFFCURVE",
"330 -58 CURVE SMOOTH"
);
},
{
closed = 1;
nodes = (
"454 96 LINE",
"494 64 OFFCURVE",
"509 29 OFFCURVE",
"509 0 CURVE SMOOTH",
"509 -43 OFFCURVE",
"499 -88 OFFCURVE",
"459 -152 CURVE",
"454 -153 LINE",
"419 -118 OFFCURVE",
"404 -87 OFFCURVE",
"404 -54 CURVE SMOOTH",
"404 -12 OFFCURVE",
"417 32 OFFCURVE",
"449 95 CURVE"
);
}
);
vertOrigin = 25;
vertWidth = 1362;
width = 828;
}
);
leftMetricsKey = u1B18E;
unicode = 1B1F8;
},
{
glyphname = u1B1F9;
lastChange = "2020-04-13 08:50:52 +0000";
layers = (
{
layerId = "CFFEBDE4-599A-46B2-9328-D96E42CD9C81";
paths = (
{
closed = 1;
nodes = (
"690 401 OFFCURVE",
"713 418 OFFCURVE",
"713 457 CURVE SMOOTH",
"713 496 OFFCURVE",
"690 513 OFFCURVE",
"662 513 CURVE SMOOTH",
"633 513 OFFCURVE",
"610 496 OFFCURVE",
"610 457 CURVE SMOOTH",
"610 418 OFFCURVE",
"633 401 OFFCURVE",
"662 401 CURVE SMOOTH"
);
},
{
closed = 1;
nodes = (
"575 241 OFFCURVE",
"598 258 OFFCURVE",
"598 297 CURVE SMOOTH",
"598 336 OFFCURVE",
"575 353 OFFCURVE",
"547 353 CURVE SMOOTH",
"518 353 OFFCURVE",
"495 336 OFFCURVE",
"495 297 CURVE SMOOTH",
"495 258 OFFCURVE",
"518 241 OFFCURVE",
"547 241 CURVE SMOOTH"
);
},
{
closed = 1;
nodes = (
"578 -109 LINE",
"687 23 OFFCURVE",
"750 134 OFFCURVE",
"814 274 CURVE",
"746 303 LINE",
"727 262 OFFCURVE",
"709 223 OFFCURVE",
"690 187 CURVE SMOOTH",
"647 105 OFFCURVE",
"591 20 OFFCURVE",
"547 -46 CURVE",
"543 -46 LINE",
"515 49 OFFCURVE",
"490 117 OFFCURVE",
"447 192 CURVE SMOOTH",
"409 258 OFFCURVE",
"364 322 OFFCURVE",
"314 379 CURVE",
"265 329 LINE",
"371 191 OFFCURVE",
"445 56 OFFCURVE",
"491 -96 CURVE"
);
},
{
closed = 1;
nodes = (
"200 614 OFFCURVE",
"227 471 OFFCURVE",
"227 291 CURVE SMOOTH",
"227 114 OFFCURVE",
"208 -12 OFFCURVE",
"146 -180 CURVE",
"216 -203 LINE",
"279 -32 OFFCURVE",
"303 108 OFFCURVE",
"303 291 CURVE SMOOTH",
"303 481 OFFCURVE",
"268 642 OFFCURVE",
"188 820 CURVE",
"120 792 LINE"
);
},
{
closed = 1;
nodes = (
"617 939 LINE",
"539 676 OFFCURVE",
"429 513 OFFCURVE",
"266 369 CURVE",
"311 320 LINE",
"505 481 OFFCURVE",
"602 642 OFFCURVE",
"688 917 CURVE"
);
}
);
vertOrigin = 25;
vertWidth = 1362;
width = 894;
}
);
leftMetricsKey = u1B186;
rightMetricsKey = u1B19A;
unicode = 1B1F9;
},
{
glyphname = u1B1FA;
lastChange = "2020-04-11 16:27:53 +0000";
layers = (
{
layerId = "CFFEBDE4-599A-46B2-9328-D96E42CD9C81";
paths = (
{
closed = 1;
nodes = (
"231 376 OFFCURVE",
"254 393 OFFCURVE",
"254 432 CURVE SMOOTH",
"254 471 OFFCURVE",
"231 488 OFFCURVE",
"203 488 CURVE SMOOTH",
"174 488 OFFCURVE",
"151 471 OFFCURVE",
"151 432 CURVE SMOOTH",
"151 393 OFFCURVE",
"174 376 OFFCURVE",
"203 376 CURVE SMOOTH"
);
},
{
closed = 1;
nodes = (
"160 96 OFFCURVE",
"183 113 OFFCURVE",
"183 152 CURVE SMOOTH",
"183 191 OFFCURVE",
"160 208 OFFCURVE",
"132 208 CURVE SMOOTH",
"103 208 OFFCURVE",
"80 191 OFFCURVE",
"80 152 CURVE SMOOTH",
"80 113 OFFCURVE",
"103 96 OFFCURVE",
"132 96 CURVE SMOOTH"
);
},
{
closed = 1;
nodes = (
"689 362 OFFCURVE",
"712 379 OFFCURVE",
"712 418 CURVE SMOOTH",
"712 457 OFFCURVE",
"689 474 OFFCURVE",
"661 474 CURVE SMOOTH",
"632 474 OFFCURVE",
"609 457 OFFCURVE",
"609 418 CURVE SMOOTH",
"609 379 OFFCURVE",
"632 362 OFFCURVE",
"661 362 CURVE SMOOTH"
);
},
{
closed = 1;
nodes = (
"667 99 OFFCURVE",
"690 116 OFFCURVE",
"690 155 CURVE SMOOTH",
"690 194 OFFCURVE",
"667 211 OFFCURVE",
"639 211 CURVE SMOOTH",
"610 211 OFFCURVE",
"587 194 OFFCURVE",
"587 155 CURVE SMOOTH",
"587 116 OFFCURVE",
"610 99 OFFCURVE",
"639 99 CURVE SMOOTH"
);
},
{
closed = 1;
nodes = (
"573 -138 OFFCURVE",
"596 -121 OFFCURVE",
"596 -82 CURVE SMOOTH",
"596 -43 OFFCURVE",
"573 -26 OFFCURVE",
"545 -26 CURVE SMOOTH",
"516 -26 OFFCURVE",
"493 -43 OFFCURVE",
"493 -82 CURVE SMOOTH",
"493 -121 OFFCURVE",
"516 -138 OFFCURVE",
"545 -138 CURVE SMOOTH"
);
},
{
closed = 1;
nodes = (
"431 939 LINE",
"430 472 OFFCURVE",
"344 93 OFFCURVE",
"207 -169 CURVE",
"277 -203 LINE",
"416 61 OFFCURVE",
"506 443 OFFCURVE",
"509 938 CURVE"
);
}
);
vertOrigin = 25;
vertWidth = 1362;
width = 792;
}
);
leftMetricsKey = u1B176;
rightMetricsKey = u1B177;
unicode = 1B1FA;
},
{
glyphname = u1B1FB;
lastChange = "2020-04-13 08:50:46 +0000";
layers = (
{
layerId = "CFFEBDE4-599A-46B2-9328-D96E42CD9C81";
paths = (
{
closed = 1;
nodes = (
"660 506 LINE",
"631 449 OFFCURVE",
"599 395 OFFCURVE",
"564 344 CURVE",
"546 324 LINE",
"510 273 OFFCURVE",
"471 226 OFFCURVE",
"429 183 CURVE",
"463 123 LINE",
"508 170 OFFCURVE",
"547 216 OFFCURVE",
"584 264 CURVE",
"603 284 LINE",
"646 343 OFFCURVE",
"684 405 OFFCURVE",
"721 475 CURVE"
);
},
{
closed = 1;
nodes = (
"422 459 LINE",
"513 350 OFFCURVE",
"595 207 OFFCURVE",
"644 87 CURVE",
"696 131 LINE",
"642 259 OFFCURVE",
"574 378 OFFCURVE",
"466 512 CURVE"
);
},
{
closed = 1;
nodes = (
"575 -112 LINE",
"672 -3 OFFCURVE",
"742 100 OFFCURVE",
"814 240 CURVE",
"749 271 LINE",
"727 228 OFFCURVE",
"704 186 OFFCURVE",
"680 146 CURVE SMOOTH",
"637 75 OFFCURVE",
"592 17 OFFCURVE",
"544 -49 CURVE",
"539 -48 LINE",
"521 24 OFFCURVE",
"494 100 OFFCURVE",
"456 170 CURVE SMOOTH",
"417 242 OFFCURVE",
"370 311 OFFCURVE",
"316 373 CURVE",
"265 329 LINE",
"371 191 OFFCURVE",
"445 56 OFFCURVE",
"485 -92 CURVE"
);
},
{
closed = 1;
nodes = (
"617 939 LINE",
"539 676 OFFCURVE",
"429 513 OFFCURVE",
"266 369 CURVE",
"311 320 LINE",
"505 481 OFFCURVE",
"602 642 OFFCURVE",
"688 917 CURVE"
);
},
{
closed = 1;
nodes = (
"200 614 OFFCURVE",
"227 471 OFFCURVE",
"227 291 CURVE SMOOTH",
"227 114 OFFCURVE",
"208 -12 OFFCURVE",
"146 -180 CURVE",
"216 -203 LINE",
"279 -32 OFFCURVE",
"303 108 OFFCURVE",
"303 291 CURVE SMOOTH",
"303 481 OFFCURVE",
"268 642 OFFCURVE",
"188 820 CURVE",
"120 792 LINE"
);
}
);
vertOrigin = 25;
vertWidth = 1362;
width = 894;
}
);
leftMetricsKey = u1B186;
rightMetricsKey = u1B19A;
unicode = 1B1FB;
},
{
glyphname = u1B1FC;
lastChange = "2020-04-13 08:50:30 +0000";
layers = (
{
layerId = "CFFEBDE4-599A-46B2-9328-D96E42CD9C81";
paths = (
{
closed = 1;
nodes = (
"180 34 OFFCURVE",
"203 51 OFFCURVE",
"203 90 CURVE SMOOTH",
"203 129 OFFCURVE",
"180 146 OFFCURVE",
"152 146 CURVE SMOOTH",
"123 146 OFFCURVE",
"100 129 OFFCURVE",
"100 90 CURVE SMOOTH",
"100 51 OFFCURVE",
"123 34 OFFCURVE",
"152 34 CURVE SMOOTH"
);
},
{
closed = 1;
nodes = (
"283 -203 OFFCURVE",
"306 -186 OFFCURVE",
"306 -147 CURVE SMOOTH",
"306 -108 OFFCURVE",
"283 -91 OFFCURVE",
"255 -91 CURVE SMOOTH",
"226 -91 OFFCURVE",
"203 -108 OFFCURVE",
"203 -147 CURVE SMOOTH",
"203 -186 OFFCURVE",
"226 -203 OFFCURVE",
"255 -203 CURVE SMOOTH"
);
},
{
closed = 1;
nodes = (
"595 665 LINE",
"548 604 OFFCURVE",
"500 548 OFFCURVE",
"449 495 CURVE",
"415 464 LINE",
"358 406 OFFCURVE",
"299 351 OFFCURVE",
"238 299 CURVE",
"284 243 LINE",
"342 291 OFFCURVE",
"393 338 OFFCURVE",
"441 387 CURVE",
"467 408 LINE",
"528 473 OFFCURVE",
"586 540 OFFCURVE",
"652 619 CURVE"
);
},
{
closed = 1;
nodes = (
"518 939 LINE",
"405 771 OFFCURVE",
"290 645 OFFCURVE",
"136 502 CURVE",
"188 445 LINE",
"334 584 OFFCURVE",
"464 722 OFFCURVE",
"583 898 CURVE"
);
},
{
closed = 1;
nodes = (
"639 377 LINE",
"532 250 OFFCURVE",
"433 153 OFFCURVE",
"311 60 CURVE",
"356 0 LINE",
"495 110 OFFCURVE",
"588 205 OFFCURVE",
"697 332 CURVE"
);
},
{
closed = 1;
nodes = (
"351 634 LINE",
"402 472 OFFCURVE",
"433 318 OFFCURVE",
"451 157 CURVE",
"520 187 LINE",
"501 357 OFFCURVE",
"465 515 OFFCURVE",
"410 709 CURVE"
);
}
);
vertOrigin = 25;
vertWidth = 1362;
width = 777;
}
);
rightMetricsKey = u1B197;
unicode = 1B1FC;
},
{
glyphname = u1B1FD;
lastChange = "2020-04-13 08:50:12 +0000";
layers = (
{
layerId = "CFFEBDE4-599A-46B2-9328-D96E42CD9C81";
paths = (
{
closed = 1;
nodes = (
"305 226 OFFCURVE",
"328 243 OFFCURVE",
"328 282 CURVE SMOOTH",
"328 321 OFFCURVE",
"305 338 OFFCURVE",
"277 338 CURVE SMOOTH",
"248 338 OFFCURVE",
"225 321 OFFCURVE",
"225 282 CURVE SMOOTH",
"225 243 OFFCURVE",
"248 226 OFFCURVE",
"277 226 CURVE SMOOTH"
);
},
{
closed = 1;
nodes = (
"533 347 OFFCURVE",
"556 364 OFFCURVE",
"556 403 CURVE SMOOTH",
"556 442 OFFCURVE",
"533 459 OFFCURVE",
"505 459 CURVE SMOOTH",
"476 459 OFFCURVE",
"453 442 OFFCURVE",
"453 403 CURVE SMOOTH",
"453 364 OFFCURVE",
"476 347 OFFCURVE",
"505 347 CURVE SMOOTH"
);
},
{
closed = 1;
nodes = (
"663 359 LINE",
"503 247 OFFCURVE",
"351 170 OFFCURVE",
"177 93 CURVE",
"209 27 LINE",
"388 107 OFFCURVE",
"535 180 OFFCURVE",
"706 299 CURVE"
);
},
{
closed = 1;
nodes = (
"611 196 OFFCURVE",
"627 167 OFFCURVE",
"627 119 CURVE SMOOTH",
"627 42 OFFCURVE",
"560 -10 OFFCURVE",
"253 -134 CURVE",
"281 -203 LINE",
"620 -64 OFFCURVE",
"703 2 OFFCURVE",
"703 119 CURVE SMOOTH",
"703 179 OFFCURVE",
"683 228 OFFCURVE",
"624 308 CURVE",
"574 251 LINE"
);
},
{
closed = 1;
nodes = (
"521 939 LINE",
"365 824 OFFCURVE",
"223 741 OFFCURVE",
"60 664 CURVE",
"93 599 LINE",
"256 678 OFFCURVE",
"409 765 OFFCURVE",
"566 881 CURVE"
);
},
{
closed = 1;
nodes = (
"484 777 OFFCURVE",
"499 745 OFFCURVE",
"499 700 CURVE SMOOTH",
"499 629 OFFCURVE",
"439 581 OFFCURVE",
"112 425 CURVE",
"145 359 LINE",
"502 528 OFFCURVE",
"575 589 OFFCURVE",
"575 705 CURVE SMOOTH",
"575 758 OFFCURVE",
"554 808 OFFCURVE",
"493 879 CURVE",
"440 833 LINE"
);
}
);
vertOrigin = 25;
vertWidth = 1362;
width = 836;
}
);
leftMetricsKey = u1B179;
rightMetricsKey = u1B1A9;
unicode = 1B1FD;
},
